<svg width="100%" height="100%" xmlns="http://www.w3.org/2000/svg" id="Layer_1" data-name="Layer 1" viewBox="0 0 1080 1080">
  <defs>
    <style>
      .cls-1 {
        fill: currentColor;
      }
    </style>
  </defs>
  <path class="cls-1" d="M432.68,524.72c-.95,3.83.77,5.85,2.58,8.26,5.29,7.01,10.93,13.77,15.31,21.51,4.22,7.53,9.38,14.5,13.85,21.9,5.94,9.81,11.7,19.7,16.26,30.29,2.71,6.24,5.12,12.56,7.57,18.89,4.47,11.4,7.31,23.02,7.96,35.23.13,2.67.3,5.42-.22,8-.47,2.32.26,3.66,2.15,4.17,3.96,1.12,7.96,2.5,12,2.8,8.65.65,16.05-2.97,23.02-7.79,0-1.42.04-2.84,0-4.22-.17-3.18.9-5.81,3.31-7.87,2.15-1.85,3.79-2.11,5.55-.95,2.54,1.63,3.61,3.66,2.75,6.15-.69,2.02-1.94,3.83-2.93,5.76-.22.43-.52.86-.77,1.29,1.16,2.28,2.97,3.48,5.16,4.47,9.94,4.43,19.79,3.44,29.86.26,4.73-1.46,9.12-3.44,13.29-6.02,2.67-1.68,2.84-1.63,1.81-4.52-3.87-10.75.9-23.45,9.42-29.6,3.31-2.41,7.31-4.04,11.83-3.18,2.06.39,3.53,1.29,4.69,3.05,3.27,5.03,2.8,10.2.34,15.31-3.18,6.67-8.09,11.92-13.55,16.69-.69.6-1.33,1.2-2.37,2.15,2.15,1.33,3.96,2.93,6.02,3.66,4.82,1.76,9.68,3.05,15.01,3.05,12.82-.04,24.56-3.79,35.96-9.16,11.06-5.25,20.74-12.56,30.16-20.13,5.72-4.6,11.1-9.64,16.61-14.45,1.42-1.25,2.11-2.67,2.19-4.69.56-9.34-.09-18.67.04-28.01.17-12.86.13-25.77.13-38.63,0-6.19-.09-12.35-.09-18.54,0-14.15.09-28.26.09-42.42,0-6.88-.34-13.81-.17-20.69.34-11.57-.3-23.14,0-34.67.26-8.17-.17-16.35.09-24.56.26-8.09-.09-16.22-.04-24.35.04-11.18.22-22.37.26-33.55,0-8.17-.17-16.35-.17-24.48,0-6.97.13-13.94.13-20.91s-.17-13.51-.17-20.3c0-3.57.22-7.1.3-10.67.04-3.01,0-6.02,0-9.21,1.16-1.59,2.84-1.76,4.95-1.76,12.73.09,25.42-.09,38.16-.09,7.7,0,15.4.22,23.1.17,11.18-.09,22.37-.39,33.55-.39,7.96,0,15.96.86,23.88.34,9.81-.69,19.62-.26,29.42-.43,9.42-.17,18.8,0,28.22.04,6.54.04,13.08.26,19.62.17,5.03-.04,10.02-.65,15.06-.65,7.36,0,14.67.39,22.03.43,7.23.04,14.41-.17,21.64-.22,5.81-.04,11.57.04,17.38.09,10.15.09,20.35.22,30.5.26,2.45,0,4.9-.43,7.31-.52.99-.04,2.02.26,3.05.39.52,2.5.9,4.6-.39,6.88-.69,1.2-.95,3.18-.47,4.47,1.2,3.31.26,6.62.43,9.89.39,8.09.47,16.18.47,24.22,0,6.62-.39,13.29-.47,19.92-.04,3.83.17,7.61.22,11.44.09,14.2.22,28.35.22,42.55,0,7.53-.39,15.06-.39,22.58.04,12.39.39,24.78.47,37.17.04,4.47-.43,8.95-.47,13.42,0,5.94.22,11.87.3,17.77.09,4.34.17,8.73.13,13.08-.04,6.41-.26,12.82-.3,19.23-.04,5.46-.09,10.93.04,16.43.04,1.51.39,3.18,1.16,4.43,3.14,5.16,4.04,10.8,3.74,16.61-.22,4.47-.86,8.95-1.38,13.38-.39,3.31-.39,3.27,2.71,4.26,3.05,1.03,5.68,2.93,7.66,5.33,3.57,4.34,7.23,8.82,8.6,14.45,1.33,5.55,3.05,11.1,1.76,16.95-.99,4.52-1.46,9.12-2.71,13.55-1.33,4.86-3.57,9.25-7.01,13.21-3.7,4.26-7.87,7.7-12.82,10.28-1.25.65-1.85,1.55-1.76,3.05.13,4.09.13,8.13.17,12.22.13,9.64.39,19.32.43,28.95,0,5.38-.52,10.71-.52,16.09,0,9.29.3,18.63.3,27.92.04,9.51-.09,19.01-.13,28.52v6.41c10.32.69,20.3,1.12,30.24-.47,1.59,2.67,1.81,5.33,1.89,8.04.09,4.43.17,8.9.3,13.34.09,2.97.34,5.94.26,8.86-.13,3.61-1.16,4.65-4.73,4.73-11.23.22-22.46.34-33.68.34-8.26,0-16.52-.39-24.82-.43-12.22-.04-24.43,0-36.65.04-10.15.04-20.35.22-30.5.26-13.29.04-26.59-.09-39.88-.04-11.87.04-23.75.3-35.66.3-10.71-.04-21.42-.39-32.13-.47-3.74-.04-7.44.3-11.18.34-5.16.04-10.28.13-15.44,0-8-.17-16-.69-23.96-.69s-16.69.43-25.04.56c-7.87.09-15.74-.04-23.62-.04-12.26-.04-24.52-.09-36.78-.09-1.94,0-3.87.34-5.81.47-1.51.09-2.71-.13-2.8-2.19-.17-4.39-.69-8.73-.77-13.12-.13-4.99.04-10.02.13-15.01.09-3.27,1.16-4.26,4.17-4.26,7.57-.04,15.14-.09,22.76-.09,1.76,0,3.48.26,5.64.39v-130.86c-1.33.95-2.02,1.38-2.62,1.89-6.71,5.46-13.29,11.14-20.18,16.39-6.45,4.95-13.46,9.12-20.65,12.95-8.22,4.43-16.82,7.87-25.9,9.89-7.83,1.76-15.83,2.93-23.83.99-6.5-1.55-12.99-3.23-17.72-8.65-.95.3-1.89.43-2.58.9-8.9,5.89-18.8,8.78-29.34,10.15-5.38.69-10.54-.09-15.7-1.08-4.52-.86-8.09-3.74-11.7-6.45-.39-.3-.82-.6-1.12-.82-12.78,8.95-26.24,11.7-41.08,5.55-.43.82-.99,1.55-1.25,2.37-1.85,6.88-5.46,12.52-10.58,17.59-4.17,4.17-8.73,7.57-13.72,10.41-2.88,1.63-6.19,2.71-9.46,3.4-7.23,1.46-14.58,1.85-21.94.77-5.21-.77-10.54-1.16-15.62-2.5-8.47-2.19-16.95-4.39-25.17-7.49-6.11-2.28-12.6-3.7-18.89-5.46-1.2,9.16-.73,56.7,1.55,68.49,9.38.86,18.84.95,28.69-.56.52,2.67,1.29,4.99,1.42,7.4.3,6.5.39,12.99.52,19.53,0,.26.04.52.04.77.13,6.8-1.16,7.57-6.75,7.53-10.58-.09-21.17.22-31.75.22-8.26,0-16.52-.39-24.82-.43-12.09-.04-24.18.04-36.26.09-10.15.04-20.35.17-30.5.17-13.42.04-26.84-.09-40.27-.04-18.71.04-37.43.26-56.18.26-6.45,0-12.91-.43-19.36-.47-4.86-.04-9.77.3-14.63.26-9.16-.09-18.33-.39-27.49-.47-3.83-.04-7.7.17-11.53.22-7.7.09-15.4.09-23.1.17-6.45.04-12.91.22-19.36.22-7.61,0-15.19-.17-22.8-.17-4.9,0-9.81.13-14.71.3-2.24.09-2.93-.09-3.1-2.58-.39-6.28-.52-12.6-.69-18.93-.09-2.93-.09-5.89,0-8.82.13-3.4,1.12-4.17,4.6-4.17,7.31,0,14.63-.09,21.98-.09,1.89,0,3.74.22,5.94.34.13-164.72-.13-329.01.13-493.34,1.25-1.46,2.71-1.89,4.73-1.89,10.8.04,21.55-.22,32.35-.22,6.07,0,12.13.3,18.15.39,4.09.04,8.17-.17,12.26-.26,6.15-.13,12.35-.3,18.5-.3,9.25-.04,18.5.04,27.79.09,1.81,0,3.61.13,5.42.13,11.74-.04,23.45-.17,35.19-.22,9.03-.04,18.02.04,27.06.09,6.54.04,13.08.26,19.62.17,5.03-.04,10.02-.65,15.06-.65,7.49,0,14.93.39,22.41.43,6.97.04,13.9-.17,20.86-.22,5.94-.04,11.83.04,17.77.09,10.15.09,20.35.22,30.5.26,2.19,0,4.34-.39,6.54-.47,1.25-.04,2.5.17,3.83.3.56,2.58.82,4.69-.39,6.97-.69,1.33-.39,3.18-.39,4.82,0,1.12.34,2.24.34,3.36.17,10.41.43,20.78.47,31.19,0,6.37-.39,12.73-.47,19.14-.04,3.83.17,7.61.22,11.44.09,14.2.26,28.35.22,42.55,0,7.53-.39,15.06-.34,22.58.04,12.39.39,24.78.47,37.17.04,4.6-.39,9.21-.52,13.81-.09,3.14-.13,6.28.13,9.38.09.99.86,2.24,1.68,2.8,7.14,4.73,13.34,10.5,19.06,16.82,2.58,2.84,4.82,5.98,7.36,8.86,1.25,1.42,2.67,2.75,4.22,3.87,3.96,2.75,7.27,6.11,10.32,9.81,1.08,1.25,2.15,2.54,3.27,3.7,2.24,2.8,4.52,5.46,8.78,5.55ZM818.69,559.01c1.46,2.88,2.93,5.72,4.26,8.43,1.08-.95,1.98-2.32,2.97-2.37.95-.04,2.02,1.2,2.67,1.68,2.62-.43,4.95-.86,7.36-1.25-.17-.6-.22-1.16-.39-1.25-.69-.22-1.42-.3-2.11-.34-2.5-.13-2.93-.69-2.45-3.05.13-.6.3-1.2.39-1.68-2.02-1.72-3.83-3.23-6.02-5.08-.95.26-2.62,1.72-3.79-.52-1.2-2.37,1.29-2.8,2.28-3.74-2.24-4.09-4.3-7.83-6.19-11.18-1.55.13-2.93.43-4.17.17-.39-.09-.9-1.59-.77-2.28.43-2.06,2.37-1.29,4.6-1.46-1.76-1.33-2.84-2.11-3.87-2.88-.52-2.02,2.02-4-.26-6.07-1.51.22-3.23.3-3.87-1.85-.69-2.15,1.59-2.24,2.11-3.31-.43-1.46-.52-2.93-.6-4.34-.13-1.46-.3-2.97-.47-4.65-1.33.22-2.24.34-3.53.52.6.82,1.03,1.16,1.12,1.59.22.9.65,2.24.22,2.71-.52.56-2.24.9-2.71.47-2.37-2.02-4.04,0-6.24.43,2.37,1.89,2.93,3.18,1.89,4.43-1.81,2.15-2.8-.56-4.65-.95-.95,1.12-2.02,2.32-2.97,3.61-1.12,1.55-2.28,1.94-3.91.95-.73-.43-1.33-.99-1.98-1.51-1.33,1.29-2.19,2.24-1.59,4.22.65,2.11-.47,3.4-2.24,2.93-2.75-.73-4.34.47-5.94,2.41-1.55,1.85-2.62,1.68-4.22-.43-.26-.34-.6-.65-1.03-1.08-.99,1.2-1.81,2.15-2.58,3.14.47,1.59.73,3.48-.09,4.26-1.81,1.68-2.71-1.03-4.17-1.63-1.16.56-2.32,1.16-2.67,1.33-.73,1.85-1.08,3.18-1.81,4.13-.22.3-1.85.04-2.41-.43-1.72-1.51.73-2.67.56-4.39-.69.04-1.81-.22-2.02.13-1.08,1.68-1.89,3.53-2.8,5.33,1.76,2.19-.17,4.73.43,6.97,3.1.3,3.48.47,3.83,1.42.77,2.15-1.63,2.62-2.24,3.96,1.85,4.26,2.67,8.82,6.32,12.05,1.33-.6,2.24-2.88,4.13-1.33.39.34.73,1.38.47,1.72-.69,1.08-1.68,1.94-2.75,3.1,2.11,1.38,3.14,4.52,6.67,3.57.26-.09.9.77,1.2,1.29.39.6.56,1.29,1.29,3.05,1.38-4.3,3.57-3.66,6.02-2.41.39.22,1.16-.3,1.72-.43.17-1.46-.99-3.1.95-3.91,2.67-1.08,2.75,1.89,4.09,2.93,2.28-2.93,2.24-2.84,5.33-1.76,1.08.39,2.37.04,3.79.04.26-1.81-1.08-3.7,1.12-4.43,2.58-.86,2.93,1.59,4.22,3.66.9-1.85,2.28-3.44,1.94-4.22-1.12-2.41.43-4.52.26-6.75-1.68-.43-3.87-.17-3.44-2.75.3-1.76,1.63-1.98,5.16-.77.47-1.25.95-2.5,1.38-3.74.6-1.81,2.45-2.8,3.53-1.59,1.38,1.55,2.88,1.85,4.73,1.98.6.04,1.2.86,1.76,1.33.77.65,1.51,1.29,2.28,1.98l-.09-.09ZM1019.5,527.82c.34-1.63.65-2.5.65-3.36-.09-7.4-.34-14.8-.39-22.24-.04-6.93-.3-13.9.22-20.78.26-3.36-.6-5.59-2.67-7.96-4.69-5.46-9.34-10.97-13.77-16.65-3.74-4.73-7.36-9.59-10.67-14.63-3.7-5.59-7.27-11.27-10.45-17.12-4.6-8.39-9.03-16.91-13.21-25.51-3.61-7.4-7.06-14.93-9.98-22.63-4.56-12-9.25-23.92-12.82-36.31-2.06-7.23-4-14.5-5.94-21.72-3.57-13.29-5.16-26.93-7.61-41h-10.58c-4.13.04-8.22.17-12.35.13-5.89-.04-11.79-.26-17.68-.26s-11.31.26-16.99.26c-6.02,0-12.05-.3-18.07-.3-4.86,0-9.77.43-14.63.43-6.97,0-13.9-.22-20.86-.34-2.45-.04-4.86-.22-7.31-.22-1.81,0-3.57.26-5.38.3-2.54.04-5.03,0-7.4,0-.52,3.53-.86,6.58-1.42,9.59-2.02,11.23-3.79,22.5-6.32,33.6-1.81,8.09-4.34,16.05-7.1,23.88-4.43,12.73-8.99,25.47-14.11,37.9-4.43,10.75-9.55,21.25-14.8,31.62-3.83,7.53-8.43,14.67-12.65,22.03-5.42,9.51-12.13,18.11-19.06,26.54-3.53,4.3-7.27,8.39-10.8,12.65-.86,1.03-1.72,2.41-1.81,3.66-.26,2.93-.13,5.89-.04,8.86.04,2.19.3,4.39.26,6.54-.04,6.75-.26,13.55-.26,20.3,0,5.21.26,10.41.26,15.62.04,7.23,0,14.45,0,21.68,0,15.1.04,30.2.04,45.3,0,4.78-.13,9.51-.17,14.28-.04,2.93,0,5.89,0,9.38,2.41-2.5,4.39-4.3,6.11-6.32,4.82-5.64,9.64-11.27,14.33-17.08,2.88-3.57,5.72-7.23,8.13-11.1,3.01-4.9,5.46-10.15,8.43-15.06,2.28-3.83,2.75-7.44.95-11.66-2.37-5.51-2.93-11.44-2.67-17.42.17-3.57,1.51-6.5,4.65-8.3,1.59-.95,2.32-2.15,2.54-4.04.77-6.88,3.74-12.78,8.65-17.59,5.46-5.38,11.36-10.28,18.54-13.38,2.58-1.12,5.25-2.15,8-2.67,5.46-.99,10.84-.73,15.62,3.7,2.28-1.68,4.52-3.14,6.58-4.82,2.5-2.11,4.9-3.87,8.26-1.76.47.3,1.29.04,1.89.26,1.33.47,2.84.77,3.83,1.68,3.1,2.88,6.28,5.81,8.86,9.12,4.9,6.32,8.82,13.29,11.92,20.65,1.08,2.62,2.06,5.29,2.88,8,1.42,4.69,3.1,9.34,3.91,14.15.65,3.87.56,8,.17,11.92-.34,3.66-1.85,7.01-5.68,8.52-2.02.82-4.04,1.81-6.15,2.24-5.25,1.12-10.58,1.98-15.87,3.01-1.33.26-2.62.82-3.87,1.2-.39,3.48-.73,6.62-3.53,8.6-1.68,1.16-2.24,2.5-1.98,4.56,1.2,9.94,2.15,19.87,3.36,29.81,1.46,12.05,3.31,24.05,7.1,35.66,2.58,7.87,4.95,15.79,7.44,23.66.34,1.08.95,2.02,1.68,3.57,4.17-3.74,8.47-6.84,11.83-10.75,7.49-8.78,15.44-17.16,22.28-26.5,4.9-6.71,10.2-13.12,15.36-19.62,2.24-2.8,4.95-5.25,6.97-8.17,4-5.76,7.23-12,10.2-18.37.47-.99.86-2.28.56-3.23-1.51-5.16-3.1-10.32-4.95-15.36-2.06-5.59-4.52-11.06-6.88-16.86-2.06-.39-4.34-.77-6.58-1.29-4.78-1.12-9.55-2.32-13.25-5.85-4.86-4.69-6.88-10.41-3.66-16.65.69-1.33,1.25-2.32,3.01-2.45,1.46-.13,2.84-.99,4.22-1.51,1.98-.77,3.44-3.01,3.36-5.21-.09-2.32-.6-2.84-3.61-3.61-.39-.09-.77-.13-1.12-.26-3.27-1.03-4.22-2.97-2.97-6.19.22-.6.39-1.25.82-1.68,3.01-3.18,1.76-5.64-.52-8.82-3.48-4.73-1.42-9.94,4.13-10.88,5.16-.9,8.9-3.74,11.96-7.57,2.62-3.31,4.82-6.97,7.18-10.5,4.04-6.07,8.52-11.7,15.31-14.84,1.42-.65,1.72-1.76,2.06-3.01.99-3.57,2.75-6.45,5.94-8.65,2.62-1.85,5.51-2.62,8.39-3.74,8.52-3.31,16.82-2.75,25.21.52,10.2,3.96,18.54,10.75,26.46,17.94,7.14,6.5,12,14.84,16.3,23.4,4.43,8.82,6.93,18.24,6.37,28.31-.09,1.25.13,2.5.22,3.66,5.76,2.02,12.05.9,17.21,5.12ZM489.21,675.8c-4.22-3.1-8.3-5.76-12-8.9-4.09-3.53-7.74-7.49-11.62-11.27-7.53-7.31-13.03-16.13-18.37-25.04-2.19-3.66-3.66-7.79-5.76-11.53-4.9-8.65-8-18.02-11.7-27.14-4.69-11.53-9.16-23.14-13.81-34.67-1.25-3.05-2.75-5.98-4.22-9.12-4.99,2.02-9.68,3.91-14.02,5.64.65,3.53.99,6.97,1.89,10.24,1.08,4.04,2.62,7.96,3.96,11.96,4.69,13.94,6.93,28.39,9.51,42.8,1.55,8.52,3.01,17.08,4.52,25.64.34,2.02-.26,3.18-1.89,3.66-1.25.34-2.97-.69-3.44-2.32-.6-2.11-.95-4.26-1.51-6.37-.3-1.12-.52-2.45-1.29-3.14-1.81-1.59-3.83-2.88-5.89-4.17-4.26-2.62-8.56-5.21-12.86-7.79-5.64-3.4-11.14-6.97-16.86-10.11-8-4.39-16.18-8.52-24.82-11.53-1.68-.6-3.18-1.81-4.86-2.37-4.26-1.38-8.6-2.58-12.95-3.7-6.19-1.55-12.43-2.88-18.76-4.34-3.31,8.26-8.09,15.01-13.34,21.38-6.45,7.79-5.42,6.11-12.09,1.25-1.76-1.29-3.05-3.74-6.11-3.36.9,2.28,1.59,4.34,2.54,6.32.95,1.98,1.46,4.13,2.24,6.15,2.45,6.45,4.09,13.21,5.94,19.87.9,3.31,1.42,6.71,2.24,10.02,1.94,7.66,3.96,15.27,5.89,22.93.69,2.75,1.29,5.51,1.89,8.26.56,2.62,1.33,5.25,1.46,7.92.13,2.75,1.81,5.03,1.72,7.92-.09,2.62.65,5.29,1.12,7.92,1.68,9.51,3.44,19.01,5.03,28.52.65,3.79.82,7.61,1.33,11.4.65,4.86,1.51,9.68,2.15,14.5.13.86-.47,1.81-.86,3.27h58.42c0-2.37.09-4.3,0-6.24-.22-5.55-.3-11.1-.86-16.61-.86-8.99-2.75-17.81-4.9-26.59-1.76-7.06-3.48-14.15-5.25-21.21-.99-3.87-2.15-7.7-3.1-11.57-.47-1.89-1.94-3.4-1.55-5.81.22-1.42-1.55-3.05-2.19-4.69-3.01-7.92-5.98-15.83-8.9-23.79-.9-2.41-1.59-4.9-2.28-7.36-.43-1.59.3-2.75,1.85-3.36,1.59-.65,2.37.3,2.97,1.59.73,1.63,1.72,3.18,2.32,4.86,1.51,4.13,2.84,8.3,4.3,12.43,2.62,7.53,5.81,14.93,7.83,22.58,1.55,6.02,5.16,8.17,10.71,8.82,1.76.22,3.53.73,5.25,1.29,9.42,3.1,18.76,6.54,28.26,9.38,6.88,2.06,14.02,3.31,21.04,5.03,7.53,1.85,15.14,2.93,22.89,2.41,10.63-.69,20.05-4.26,27.58-11.92,5.46-5.59,9.77-11.92,11.23-19.96ZM275.36,613.17c-.77,1.46-1.42,2.24-1.55,3.05-.6,4-1.12,8.04-1.59,12.05-.52,4.34-2.06,5.42-6.24,4.17-1.85-.56-3.66-1.33-5.51-1.85-4.47-1.2-9.08-2.06-13.46-3.48-12.86-4.22-25.73-8.52-38.46-13.08-2.97-1.08-4.95-.56-6.84,1.59-3.23,3.66-6.54,7.18-9.59,10.97-3.27,4-6.88,7.92-9.21,12.48-2.24,4.39-5.76,7.92-7.53,12.6-1.59,4.26-4.43,8.04-6.37,12.22-2.67,5.72-5.16,11.53-7.36,17.47-2.84,7.61-5.55,15.27-7.96,23.02-1.68,5.38-3.1,10.84-4.04,16.48-1.33,7.83-2.54,15.7-3.27,23.62-.65,7.14-.9,14.28-1.42,22.07,12.69,0,24.78.22,36.82,0,12.17-.22,24.39.65,36.52-.04.69-7.96,1.2-15.36,1.98-22.71,1.29-12.48,4.17-24.52,9.77-35.79,1.2-2.45,2.58-5.03,5.38-6.15,3.05,2.58,3.23,2.75,1.29,5.33-3.48,4.6-4.78,10.15-6.19,15.44-2.02,7.61-3.14,15.53-4.47,23.32-.6,3.66-.9,7.4-1.16,11.14-.17,3.01-.04,6.07-.04,9.21,1.12.13,1.89.3,2.62.3,11.44.04,22.84.09,34.29.13,3.74,0,7.49.39,11.18.09,3.61-.3,7.14.43,10.84.09,7.61-.73,15.36-.26,23.02-.34.95,0,1.94-.26,2.67-.34-.82-3.91-1.68-7.49-2.24-11.1-2.02-13.21-3.96-26.46-5.85-39.71-1.85-12.95-4.78-25.64-7.87-38.33-2.41-9.94-4.13-20.05-7.01-29.86-2.28-7.79-4.3-15.62-6.75-23.36-.99-3.57-2.71-6.75-4.39-10.67ZM1019.63,767.3v-28.78c0-2.67.04-5.38.09-8.04.13-9.25.39-18.54.43-27.79,0-11.83-.17-23.66-.26-35.49,0-1.81.39-3.57.3-5.38-.22-4.43-1.12-8.35-4.09-12.22-5.59-7.27-11.14-14.45-19.1-19.27-5.89-3.61-12.39-5.12-19.32-4.13-7.31.99-13.29,4.73-18.84,9.34-9.46,7.87-16.48,17.72-22.37,28.39-1.29,2.37-2.5,4.78-3.7,7.18-2.37,4.73-4.86,9.42-7.06,14.24-1.68,3.7-2.5,7.87-4.47,11.4-3.61,6.58-5.42,13.81-7.7,20.82-2.54,7.79-4.22,15.83-6.28,23.75-1.2,4.6-2.54,9.16-3.61,13.81-.86,3.83-1.33,7.7-2.02,11.74,2.28.34,4.17.86,6.02.86,5.76,0,11.57-.22,17.34-.22,1.08,0,2.58,1.12,3.18.69,2.11-1.51,4.3-.56,6.41-.65,6.54-.26,13.08-.3,19.62-.26,2.15,0,4.3.6,6.45.56,5.29-.13,10.54-.73,15.83-.73,11.36-.04,22.67.17,34.03.26,2.97-.04,5.89-.09,9.12-.09ZM713.98,767.05c5.16.34,10.11,1.08,15.01.82,4.9-.26,9.68-.34,14.63.09,4.69.43,9.46-.52,14.2-.69,4.95-.17,10.02-.69,14.84.09,5.08.82,9.98-.26,14.97,0,4.9.22,9.85-.17,15.4-.3-2.54-3.96-4.82-7.18-6.84-10.63-5.08-8.82-9.38-17.98-12.13-27.83-1.98-7.27-4.47-14.37-6.19-21.72-1.81-7.7-2.84-15.62-4.34-23.4-2.62-13.64-2.97-27.45-3.53-41.21-.26-7.1-.3-14.15-.34-21.25,0-5.68.22-11.31.26-16.99.04-6.62,0-13.25,0-19.57-4.22-3.96-8.39-7.83-12.69-11.87-4.04,8.73-9.85,16.18-14.88,24.09-3.57,5.59-8.17,10.58-12.48,15.7-4,4.69-8.26,9.16-12.35,13.77-2.02,2.28-4.13,4.34-4.04,7.96.22,8.52.04,17.08.04,25.64,0,6.93,0,13.81.04,20.74,0,7.66.04,15.36,0,23.02,0,4.43-.22,8.9-.17,13.34,0,5.33.22,10.63.22,15.96.04,10.15.09,20.26.13,30.41.04,1.2.17,2.5.26,3.87ZM713.46,278.14c0,1.89.04,3.27,0,4.65-.09,2.75-.56,5.55-.22,8.22.39,2.88-.3,5.68,0,8.56.47,4.39.13,8.9.13,13.34,0,6.37-.13,12.73-.09,19.06.04,5.16.39,10.37.43,15.53.04,4.56-.26,9.12-.3,13.68-.04,3.91.13,7.87.09,11.79-.04,10.07-.17,20.18-.26,30.24,0,2.37-.04,4.78,0,7.14.09,4.86.3,9.72.34,14.58.04,4.17-.13,8.35-.13,12.52,0,7.83-.04,15.7.04,23.53.04,2.28-.39,4.69,1.12,7.18,1.29-1.55,2.45-2.71,3.27-4.09.86-1.46,2.37-2.28,3.31-3.74,3.01-4.52,6.5-8.73,9.68-13.16,3.83-5.33,7.96-10.54,11.18-16.22,4.22-7.4,8.65-14.63,12.17-22.41,2.88-6.37,6.07-12.56,9.03-18.84,1.72-3.57,3.44-7.18,4.95-10.84,1.85-4.43,3.57-8.95,5.21-13.46,1.98-5.51,3.87-11.06,5.68-16.61,1.98-6.07,3.79-12.22,5.72-18.33,1.2-3.74,2.84-7.36,3.7-11.14,1.33-5.94,2.28-11.96,3.23-17.98,1.2-7.61,2.24-15.23,3.44-23.45-26.11-.04-51.92-.13-77.73-.17-1.2,0-2.45.26-4,.43ZM1019.03,467.72c.34-.17.69-.34.99-.52-1.12-4.39.17-8.69,0-13.08-.34-8.26-.09-16.56-.09-24.82,0-1.51-.17-2.97-.17-4.47-.04-4.99,0-9.94,0-14.93,0-8.09-.09-16.18-.04-24.22.04-6.15.3-12.26.3-18.41s-.22-12-.22-17.98c0-4.56.3-9.08.26-13.64-.04-11.4-.22-22.8-.3-34.2-.04-2.62,0-5.29,0-7.92,0-2.41-.04-4.82-.04-7.23v-8.69c-5.89,0-11.31.22-16.65-.04-5.33-.3-10.63.65-16,.3-5.25-.34-10.54-.26-15.79-.3-5.33-.04-10.71-.34-16.05.04-5.29.39-10.71-.73-16.22.77,1.81,11.01,3.53,21.77,5.33,32.52.56,3.23,1.16,6.45,2.02,9.64,1.29,4.69,2.71,9.29,4.22,13.9,2.58,7.92,5.21,15.83,7.96,23.66,2.54,7.23,5.12,14.41,7.96,21.51,1.85,4.65,4.39,8.99,6.37,13.59,4.3,9.89,9.16,19.53,14.41,28.91,2.19,3.91,4.3,7.87,6.8,11.62,3.61,5.46,7.49,10.8,11.36,16.05,4.52,6.07,9.12,11.96,13.59,17.94ZM813.53,603.92c-12.65,2.02-24.91,2.71-37.34.69-.13,1.16-.26,1.76-.26,2.41-.04,7.7-.26,15.36-.13,23.06.22,9.98.43,20,1.16,29.94.52,7.57,1.89,15.06,2.67,22.58.95,9.29,3.1,18.33,5.08,27.36.9,4.09,1.63,8.26,2.93,12.22,1.81,5.55,3.83,11.06,6.24,16.39,2.11,4.69,4.69,9.12,7.27,13.59,2.5,4.34,5.25,8.56,7.96,12.78,1.03,1.59,2.41,2.41,4.52,2.37,4.86-.13,9.77.04,14.63.04,7.49,0,14.97-.09,22.46.04,4.22.04,4.26.22,4.56-4.04.04-.77.04-1.55.09-2.28.34-5.89.26-11.87,1.12-17.68,1.68-11.4,3.87-22.67,5.85-34.03.22-1.25.73-2.5.99-3.74,1.72-7.74,3.05-15.62,5.21-23.23,3.53-12.35,7.23-24.69,12.35-36.52.9-2.02,1.59-4.17,2.37-6.28-13.68,16.22-26.8,32.69-42.85,46.2.26,1.46.69,2.45.6,3.44-.22,2.75-2.58,3.79-4.69,2.02-.95-.77-1.68-1.98-2.15-3.14-1.59-3.79-2.93-7.61-4.52-11.4-3.74-9.08-6.32-18.5-8.69-28.01-1.38-5.46-2.41-11.06-3.4-16.61-1.03-5.81-1.76-11.7-2.62-17.55-.43-3.36-.86-6.75-1.38-10.63ZM1052.28,773.41c-.86-.09-1.46-.22-2.06-.22-9.81.04-19.66.17-29.47.17-7.87,0-15.74-.22-23.62-.26-4.47-.04-8.95.22-13.42.22-8.39-.04-16.78-.26-25.17-.26-6.41,0-12.82.22-19.27.22-5.51,0-10.97-.22-16.48-.22-8.78,0-17.55.17-26.33.22-12.82.09-25.6.17-38.42.13-10.75,0-21.47-.17-32.22-.3-7.27-.09-14.58-.17-21.85-.17-7.74-.04-15.44,0-23.19-.04-4.17,0-8.35-.22-12.52-.17-4.34.04-8.65.47-12.99.52-5.21.04-10.41-.26-15.66-.26-8.78.04-17.55.34-26.33.3-8.65,0-17.29-.3-25.9-.39-2.02-.04-4.04.22-6.32.39v22.54h7.57c7.06-.04,14.11-.04,21.21-.17,6.19-.13,12.39.43,18.58.3,2.71-.04,5.59.86,8.13.26,4.26-.99,8.43.3,12.69-.17,7.31-.86,14.8-.3,22.2-.34.99,0,2.02-.09,3.01,0,1.89.13,3.79.47,5.64.43,3.61-.09,7.23-.6,10.84-.65,5.55-.04,11.06.17,16.61.26,2.45.04,4.9-.13,7.36-.13,4.65.04,9.25.17,13.9.17,5.64,0,11.27-.22,16.91-.22,3.87,0,7.74.26,11.62.26,6.15,0,12.3-.17,18.5-.17,5.55,0,11.06.09,16.61.13,6.45.04,12.91.04,19.36.13,2.88.04,5.76.47,8.6.17,4.39-.47,8.69.22,13.08-.09,4.86-.34,9.81.39,14.67.04,3.96-.3,7.83-1.16,11.74.34.65.26,1.55,0,2.32-.04,4.09-.3,8.22-.86,12.3-.86,10.2-.04,20.35.26,30.54.26,6.15,0,12.3-.34,18.45-.3,7.23.04,14.45.34,21.68.43,2.28.04,4.56-.34,7.14-.56-.04-7.4-.04-14.41-.04-21.9ZM404.68,772.77c-.86-.13-1.59-.3-2.32-.3-9.68.04-19.4.17-29.08.13-7.1-.04-14.2-.39-21.34-.43-5.25-.04-10.5.34-15.74.34-10.45,0-20.86-.13-31.32-.13-6.67-.04-13.29.04-19.96,0-10.45,0-20.91-.13-31.32-.09-14.76.04-29.47.3-44.22.26-17.51-.09-35.02-.43-52.53-.56-8.35-.04-16.73.13-25.08.22-7.87.09-15.7.22-23.57.22-5.33,0-10.71-.34-16.05-.3-9.03.04-18.07.34-27.1.34-8.26,0-16.52-.26-24.74-.39-2.15-.04-4.3.22-6.8.34v22.54h7.31c7.06-.04,14.11.04,21.21-.13,6.19-.17,12.39.39,18.58.3,2.71-.04,5.64.99,8.13.3,4.3-1.16,8.43.3,12.73-.26,7.18-.95,14.54-.34,21.81-.39,1.25,0,2.54,0,3.79.09,1.63.13,3.31.65,4.86.43,11.44-1.51,22.93-.13,34.41-.56,7.7-.3,15.4.13,23.1.09,10.67-.04,21.34-.26,32.01-.3,6.41,0,12.86-.09,19.27.3,6.5.39,13.03-1.03,19.44.69.22.04.52-.09.77-.13,2.88-.17,5.76-.39,8.69-.43,4.95-.09,9.89.13,14.88-.04,7.83-.26,15.66-.04,23.49-.34.77-.04,1.63-.04,2.28.26,1.72.9,3.44.47,5.21.34,5.03-.34,10.02-.73,15.06-.73,7.74,0,15.44.47,23.19.47,9.25,0,18.5-.3,27.75-.34,5.16,0,10.32.3,15.49.34,2.54,0,5.03-.39,7.74-.6-.04-7.4-.04-14.37-.04-21.55ZM280.39,491.55c-2.62,1.2-4.82,2.62-7.23,3.31-5.55,1.63-11.14,3.1-16.78,4.34-5.42,1.2-11.06,1.59-16.35,3.14-5.89,1.68-10.41,5.38-12.13,11.7-1.55,5.64-.17,10.75,2.54,15.62,1.94,3.48,2.75,7.18,2.62,11.14-.04,1.38-.13,2.75-1.98,3.36-1.81.6-3.05-.09-4.13-1.16-1.63-1.59-3.05-3.4-4.6-5.08-2.58-2.75-5.98-4.04-9.51-4.82-2.37-.52-4,.73-3.96,2.97.04,5.55,3.14,13.55,10.32,13.38,1.63-.04,2.37.82,3.01,1.98,2.11,3.87,1.16,12.82-1.94,16.09-2.5,2.62-2.06,5.25-1.03,8.13,1.03,2.88,1.98,5.76,1.76,8.9-.09,1.38.17,2.75.3,3.91,1.59.56,2.8.99,4.04,1.42,5.38,1.72,10.71,3.53,16.13,5.12,10.15,2.97,20.3,5.81,30.8,7.18,2.02.26,4.39.56,6.11-.26,1.46-.69,2.28-2.93,3.31-4.47.65-.95,1.03-2.15,1.81-2.97,1.38-1.38,1.29-2.88.86-4.56-.73-3.1-1.33-6.24-2.06-9.34-.26-1.03-.9-2.02-1.42-3.1-2.24.9-4.09,1.76-6.07,2.37-2.58.82-5.21,1.55-7.87,2.11-1.46.3-2.75-.09-3.18-1.98-.43-1.85.39-2.97,1.76-3.87.39-.26,1.03-.13,1.51-.3,3.66-1.25,7.53-2.11,10.93-3.83,7.44-3.79,13.85-9.03,18.58-15.96,2.5-3.61,4.3-7.74,3.1-12.35-1.08-4.09-2.28-8.13-3.91-12-2.37-5.68-5.21-11.14-7.83-16.69-1.03-2.24-2.11-4.47-2.8-6.8-1.72-5.29-3.14-10.67-4.73-16.65ZM895.39,767.22c.47-2.62.82-4.9,1.33-7.14,2.37-9.77,4.82-19.57,7.27-29.34.86-3.44,1.72-6.84,3.1-10.2,1.42-3.53,1.85-7.49,3.53-11.06.86-1.89,1.08-4.09,1.72-6.07,1.46-4.39,2.71-8.86,4.73-12.99,1.33-2.71,2.24-5.55,3.61-8.22,2.93-5.72,5.51-11.62,8.3-17.38.56-1.12,1.59-2.02,2.11-3.18,2.54-5.81,6.28-10.88,10.11-15.92,2.93-3.79,6.07-7.4,9.34-11.4-7.18-2.71-13.64-5.89-19.23-10.71-1.08.65-1.98,1.12-2.8,1.68-3.79,2.54-8,3.4-12.48,3.48-4.3.09-9.08-2.54-9.55-8.13-.3-3.66.04-7.36.04-11.01,0-.77-.26-1.55-.39-2.37-1.08.65-1.63,1.38-1.85,2.15-.77,3.05-2.28,5.68-4.17,8.17-.65.82-1.33,1.63-1.72,2.58-2.93,6.45-5.94,12.86-8.6,19.4-2.75,6.67-5.16,13.51-7.66,20.26-2.32,6.28-4.99,12.43-6.45,19.01-1.51,6.75-3.53,13.42-5.03,20.18-1.25,5.59-2.54,11.18-3.7,16.78-.82,3.96-2.02,7.96-2.41,11.92-.77,7.96-2.93,15.7-2.88,23.75.04,4.43-.47,8.86-.65,13.29-.04.82.47,1.63.73,2.41,11.14.04,22.07.04,33.64.04ZM899.3,562.23c1.29,3.27,2.24,5.89,3.36,8.47,3.66,8.35,7.18,16.73,8.82,25.77.65,3.53,1.42,7.06,1.98,10.63.13.82-.04,1.81-.43,2.5-1.59,2.71-1.55,5.64-1.33,8.56.26,3.57,2.58,5.38,6.07,4.69,2.75-.56,5.42-1.59,8.09-2.54,1.81-.65,1.59-1.89,1.03-3.44-1.16-3.4-2.5-6.84-3.1-10.37-1.2-7.01-1.12-14.07.86-21.04,1.81-6.32,4.39-12.09,10.24-15.74.39-.26.69-.73.95-.99-1.59-8.17-2.24-16.13,1.72-24.35-3.36,1.03-5.03,0-5.59-3.18,2.11-1.12,4.3-2.41,6.62-3.44,5.64-2.58,9.29-8.39,9.08-14.5-.13-2.93-1.51-5.12-4.26-5.68-3.1-.6-6.32-1.33-9.38.6-1.16.73-2.62,1.08-3.87,1.55-3.96-2.06-4.22-2.71-2.67-6.58.04-.13.09-.26.13-.39,1.25-3.61,2.71-7.14,3.61-10.84.73-3.05,1.76-6.28.09-9.46-2.67-5.03-5.94-9.55-10.71-12.73-2.06-1.38-3.91-2.84-5.08-5.08-.73-1.42-1.51-2.8-2.28-4.26-3.79,1.81-6.84,4.17-9.12,7.36-3.05,4.26-5.85,8.69-8.82,12.99-1.38,1.98-2.71,4.22-4.6,5.64-3.44,2.58-6.93,5.38-11.49,6.02-.82.13-1.51.73-2.62,1.29,1.42,2.19,2.45,4.39,4.04,5.94,1.33,1.33,1.16,2.28.47,3.66-1.12,2.15-2.11,4.39-3.18,6.75,2.24.82,4.56.65,5.98,2.84,3.7,5.64,1.59,13.21-4.6,15.87-1.63.73-3.31,1.38-4.82,2.02-1.03,4.9,1.76,9.98,6.19,11.62,7.4,2.71,15.01,3.83,22.84,3.27,2.97-.22,5.94-.52,8.9-.65,2.5-.13,3.4.6,3.66,2.45.22,1.55-.9,2.97-2.93,3.44-1.12.26-2.32.3-3.48.39-3.36.3-6.67.6-10.37.95ZM223.35,529.71c-.47-1.25-.82-2.19-1.16-3.14-2.58-7.79-1.51-15.19,3.48-21.6,5.03-6.45,12.26-9.21,20.18-10.28,9.08-1.2,18.11-2.5,26.63-6.19,4.99-2.15,9.21-5.21,11.87-10.11,1.59-2.93,2.02-6.11.77-8.99-3.23-7.44-9.12-12.22-16.99-13.9-7.96-1.72-15.44.56-22.07,5.03-7.4,4.99-15.4,8.17-24,10.2-7.23,1.72-14.41,3.44-20.78,7.92-7.96,5.59-11.96,12.91-11.57,22.54.13,3.74.56,7.49,1.12,11.18.99,6.41-.69,12.13-3.74,17.72-.86,1.55-1.29,3.7-1.08,5.46.86,7.36,5.08,12.17,11.96,14.71.95.34,2.19.52,2.84,1.16,3.31,3.53,8.13,5.46,10.63,9.89.82,1.46,1.98,2.71,3.05,4.13,4.13-3.1,2.8-6.41,2.75-9.03-2.75-1.63-5.51-2.58-7.27-4.43-3.83-4-6.5-8.69-7.23-14.45-.69-5.55,3.14-11.44,10.11-10.41,3.31.52,6.62,1.63,10.5,2.58ZM161.88,277.75v101.4c-2.02.13-3.57.3-5.08.3-8.78,0-17.55-.09-26.33-.09-19.87,0-39.79.09-59.67.13-1.51,0-3.05.39-4.52.56v6.41c102.04-.43,203.65-.9,305.39-1.33.56-2.45,1.29-4.65,0-6.75-5.81-.09-11.44-.26-17.08-.22-11.74.04-23.49.13-35.23.26-13.03.13-26.07.26-39.1.34-.99,0-1.94-.39-3.01-.65v-7.49c.04-9.34.13-18.71.13-28.05,0-11.01-.13-22.03-.13-33.04,0-8.43.13-16.86.09-25.3,0-2.37-.39-4.78-.6-7.44-2.41.34-4.22.65-6.15.95v10.75c-.04,10.84-.04,21.68-.09,32.52,0,7.57-.09,15.1-.09,22.67,0,10.28-.04,20.52.04,30.8,0,3.79-.95,4.86-4.65,4.69-2.45-.13-4.86-.39-7.31-.39-9.29-.04-18.63-.04-27.92-.04-4.86,0-9.72.13-14.58.13-4.52,0-8.99-.09-13.51-.04-8.35.09-16.73.3-25.08.39-2.8.04-5.55-.22-8.65-.34v-39.23c0-9.64-.04-19.32-.09-28.95,0-3.96.09-7.92.04-11.87-.09-6.32-.09-12.6-.34-18.93-.13-2.8-.69-3.05-3.4-2.71-.86.13-1.72.3-3.1.56ZM416.33,544.85c.86,1.38,1.55,2.32,2.02,3.36,2.32,5.29,4.65,10.58,6.84,15.92,3.18,7.7,6.28,15.44,9.34,23.19,2.11,5.38,3.91,10.88,6.07,16.22,2.93,7.18,5.98,14.37,10.02,21.04,2.24,3.7,4.86,7.18,6.88,11.01,2.45,4.6,6.11,8.26,9.25,12.26,3.44,4.39,7.74,8.09,11.74,12,3.27,3.23,6.84,6.11,11.27,8.22.26-1.42.73-2.54.69-3.66-.43-8.6-1.38-17.21-3.74-25.51-2.19-7.7-4.39-15.44-8.26-22.58-2.06-3.83-3.4-8.09-5.46-11.96-5.51-10.2-11.14-20.35-16.99-30.33-4.04-6.84-8.52-13.42-12.86-20.09-2.54-3.87-5.03-7.74-7.74-11.49-2.15-2.97-4.52-5.76-6.88-8.73-4.3,3.91-8.17,7.44-12.17,11.14ZM358.95,549.33c1.89-.09,2.8-.77,2.84-2.67.04-.86.65-2.11,1.33-2.41.6-.26,1.98.39,2.45,1.03.9,1.16,1.89,1.25,3.05.95.99-.26,1.89-.73,2.84-1.12.17-1.68.56-3.36,1.63-4,1.89-1.16,2.28,1.46,3.36,2.06,1.76.09,2.41-.77,2.8-2.24.47-1.63,1.59-2.11,3.31-1.29,2.8,1.38,4.6.77,6.41-1.76.65-.95,1.51-1.72,1.85-2.15.69-2.93,1.25-5.33,1.76-7.49-1.2-.95-2.84-1.59-3.18-2.62-.77-2.41,2.28-2.24,3.18-3.57-.99-4.39-.22-9.08-3.4-13.12-2.67,2.54-5.12,4.9-7.61,7.27.95,2.41.86,3.31-.43,3.91-1.55.69-2.5-.09-3.44-2.15-2.58-1.68-4.39-2.84-6.5-4.17q-3.18,1.16-5.33-2.15c-1.59.43-3.27.65-3.66,2.75-.26,1.46-1.38,1.85-2.67,1.46-1.29-.39-2.06-1.42-1.59-2.67.69-1.72-.13-2.97-.82-4.34-.77-1.42-1.46-2.93-2.32-4.65-1.72,1.46-3.23,2.8-4.82,4.13-1.12.95-2.37,1.25-3.4-.09-.99-1.25-2.19-1.51-3.74-1.63-.82-.04-1.85-.82-2.32-1.59-.65-.99-.09-1.89.9-2.62,1.51-1.12,1.85-2.41.04-4.09-.82,1.63-1.59,3.18-2.45,4.9-2.41-.13-4.82-.26-7.36-.39-.17.77-.09,1.59-.43,1.98-.6.69-1.46,1.29-2.32,1.63-.39.13-1.51-.47-1.51-.82-.09-.95.04-1.98.47-2.84.34-.69,1.2-1.16,1.76-1.68-.65-1.68-1.16-3.05-1.68-4.43q-2.97-.43-4.39-2.62c-2.28-.34-4.26-.73-6.24-.9-.56-.04-1.16.65-1.76.99.39.43.73,1.03,1.2,1.29.56.26,1.29.17,1.89.39,1.12.34,1.98,1.16,1.42,2.28-1.16,2.45-.17,4.13,1.42,5.85.73.82,1.03,2.06,1.51,3.14,1.38.22,3.18-.69,3.96,1.42.82,2.28-1.33,2.71-2.54,3.74,1.03,4.22,2.02,8.35,3.01,12.35,1.89.13,3.96-.6,4.34,1.85.47,3.01-2.45,2.15-4.17,3.14,1.94,1.51,2.67,2.97,1.16,5.08-1.16,1.63-.56,2.93,1.42,3.96,2.06,1.03,2.15,3.1.43,4.26-.52.34-1.16.47-1.46.56-.22,1.63.04,3.31-.65,4.26-1.12,1.51-1.08,3.01-1.25,4.6.43.3.69.65,1.03.73,1.68.47,2.37,1.63,1.98,3.23-.39,1.63-1.63,1.68-3.1,1.29-.39-.09-.95.6-1.94,1.33,2.97.86,4.9.65,6.67-1.08.77-.77,2.06-1.89,2.75-1.68,3.91,1.2,6.67-1.42,10.07-2.58-.26-.86-.56-1.55-.69-2.28-.22-1.33.3-2.54,1.63-2.58.73-.04,1.63.86,2.24,1.55.43.52.52,1.33.77,1.94,2.11-.56,3.91-1.08,5.76-1.55-.86-3.14-.65-4.52.86-4.95,3.01-.56,2.54,2.19,3.61,3.66ZM408.76,628.18c-1.12-6.37-1.98-12.22-3.23-17.94-2.15-9.89-4.47-19.75-6.97-29.55-1.98-7.83-4.34-15.57-6.5-23.36-.34-1.2-1.16-2.71-.77-3.66,1.03-2.41-.3-4.22-.95-6.24-.52-1.63-1.59-1.85-3.05-1.38-1.59.47-3.18,1.03-4.82,1.46-4.09.99-4.34,1.16-4.34,5.46-.04,13.03,0,26.07,0,39.15v17.08c10.2,6.24,20,12.35,30.63,18.97ZM349.87,500.2c2.84-2.45,4.99-5.08,6.58-8.17.65-1.25,1.51-2.41,2.11-3.66,1.03-2.15,2.88-1.55,4.34-1.16.77.22,1.51,1.63,1.68,2.58.22,1.2-.13,2.5-.34,3.74-.52,3.14-1.2,6.24-1.68,9.38-.09.73.47,1.55.99,3.18,2.11-3.4,5.12-5.03,6.19-8.43.82-2.58,2.88-3.7,4.99-3.23,1.59.34,2.45,2.11,2.28,4.73-.13,2.15-.39,4.3-.43,6.41-.04,1.63.13,3.31,1.89,4.65,2.84-2.45,5.55-4.95,8.43-7.23,3.05-2.45,6.07-1.94,7.44,1.59,1.63,4.17,3.01,8.52,3.91,12.86.52,2.37,1.46,3.91,3.4,5.21,2.24,1.46,4.3,3.05,5.64,5.55,1.94,3.53,4.22,6.88,6.58,10.63,3.91-2.8,7.06-6.19,10.28-9.77-1.33-1.63-2.41-3.05-3.57-4.39-3.31-3.74-6.32-7.96-10.15-11.06-4.26-3.4-7.74-7.4-11.36-11.36-4.13-4.56-8.17-9.29-12.91-13.21-4.65-3.87-9.51-7.57-15.27-10.07-5.81-2.5-11.66-4.22-17.94-4.17-11.01.09-19.1,7.27-19.06,19.79,0,.65.39,1.33.69,2.15,2.45-1.25,3.57-3.31,4.95-5.12,1.29-1.76,2.45-3.66,3.91-5.29,2.15-2.37,5.16-1.55,5.81,1.55.26,1.33-.13,2.8-.04,4.17.09,2.62-1.68,5.33.65,8.13ZM322.51,538.53c0-1.94.17-3.87-.04-5.76-.95-8.09-2.75-16-5.72-23.62-1.81-4.69-4.09-9.16-7.61-12.78-1.63-1.68-3.7-3.66-6.41-2.58-2.28.9-4.26,2.45-5.08,4.99-.56,1.72-1.08,3.44-1.55,5.16-1.33,4.78-1.89,9.68-.17,14.37,1.89,5.12,4.47,10.02,6.5,15.1,2.37,5.98,4.39,12,2.15,18.58-.26.77-.22,1.85.13,2.58.69,1.51,1.42,3.1,2.5,4.3,1.46,1.59,3.14,3.05,4.99,4.22,1.46.9,5.85-1.72,6.88-3.83,3.27-6.58,3.7-13.59,3.44-20.73ZM815.72,509.41h.17c.13,2.41-.17,4.99.52,7.18,1.76,5.46,3.1,11.01,5.59,16.3,4.43,9.42,8.9,18.67,16.52,26.07,1.94,1.85,4,3.18,6.37,4.13,2.15.86,4.22-.34,4.52-2.58.34-2.62.43-5.33.47-8,.04-5.25-1.55-10.15-3.23-15.01-1.89-5.42-3.91-10.88-6.5-16.05-2.32-4.65-5.25-9.08-8.35-13.25-2.58-3.48-5.64-6.62-9.42-8.9-3.4-2.02-5.25-1.51-6.24,2.41-.56,2.54-.3,5.16-.43,7.7ZM215.44,592.22c-2.97,5.12-5.64,9.72-8.47,14.67,3.18,1.42,5.85,2.93,8.73,3.87,6.84,2.24,13.77,4.22,20.61,6.32,5.76,1.81,11.49,3.7,17.25,5.46,4.04,1.2,8.13,2.28,12.6,3.48.86-6.28,3.48-11.74,3.18-17.98-18.37-3.66-36.31-8.09-53.9-15.83ZM803.63,578.97c-1.98.26-4,.47-5.98.86-1.89.39-3.74,1.03-5.64,1.42-4.17.9-8.35,1.68-12.48,2.54-1.51.34-3.31.69-3.27,2.71.04,4.13.3,8.3.47,12.78,12.35,1.25,24.26,2.32,35.96-1.51v-11.23c-3.36-2.15-8.17-1.94-9.08-7.57ZM762.55,532.72c.56-.22.95-.26,1.29-.47,2.58-1.46,3.91-3.96,5.46-6.32,2.15-3.31,4.43-3.27,6.54.09.13.22.39.3.99.77.65-.47,1.63-.9,2.11-1.63,1.29-2.02,2.62-4.13,3.53-6.37.95-2.37,2.37-3.48,4.86-3.31,1.2,1.03,2.45,2.06,4.13,3.48.95-1.89,1.98-3.27,2.32-4.82.43-2.06,1.46-3.48,3.27-4.86,1.33.39,2.8.77,4.22,1.16,2.32-3.66,1.85-5.42-1.85-7.31-3.4-1.72-6.84-.6-10.15-.09-4,.65-7.01,3.44-10.32,5.46-6.54,4.04-11.66,9.59-15.44,16.26-1.33,2.28-2.5,5.03-.95,7.96ZM292.14,586.75c-.34.6-.86,1.12-.95,1.68-.86,4.82-5.72,7.83-5.76,13.03,0,.3-.3.73-.6.95-1.68,1.33-1.16,2.88,0,4,2.11,1.94,4.43,3.7,6.8,5.33.73.52,1.85.52,2.41.69,1.2-2.02,2.06-3.7,3.14-5.25,1.42-2.06,3.27-3.74,4.43-6.02,1.59-3.05,3.57-5.94,5.16-8.99,1.2-2.32.6-3.27-1.98-3.66-4.13-.65-8.3-1.16-12.65-1.76ZM597.92,661.48c4.17-3.91,8.35-7.4,11.57-11.92,2.15-3.05,3.57-6.24,4.04-9.81.47-3.4-1.55-5.25-4.82-4.43-1.55.39-3.1,1.2-4.47,2.06-4.65,2.97-6.45,7.92-7.87,12.82-1.08,3.57-.82,7.44,1.55,11.27ZM409.58,541.89c-3.79-4.52-4.52-10.88-10.41-13.77-.3.77-.56,1.25-.65,1.72-.43,4-1.42,7.79-3.1,11.44-.26.56-.43,1.25-.39,1.85.09,2.62,1.68,4.47,3.57,3.96,3.7-1.03,7.44-2.19,10.97-5.21ZM809.87,578.97c5.12,2.58,8.35.69,7.87-4.99-.47-5.16-2.88-9.42-6.84-12.78-.47.34-.77.47-.86.65-.17.34-.3.69-.43,1.08-1.08,3.74-.73,7.44-.13,11.23.26,1.46.26,2.93.39,4.82ZM371.03,509.62c-.39-.3-.69-.65-.95-.65s-.56.39-.82.6c.34.3.65.6,1.03.82.09.04.43-.43.73-.77Z"/>
  <path class="cls-1" d="M818.77,559.18c-.77-1.55.09-2.5,1.38-2.93.56-.22,1.72.09,1.94.52.39.65.47,1.72.17,2.45-.52,1.33-1.72,1.2-3.61-.17.04-.04.13.13.13.13Z"/>
  <path class="cls-1" d="M804.79,545.07c.9,1.33,1.85,2.15,1.94,3.05.17,1.2-.73,2.19-2.11,2.06-1.55-.17-2.24-1.38-2.02-2.71.09-.69,1.12-1.29,2.19-2.41Z"/>
  <path class="cls-1" d="M763.02,547.91c-1.59.99-2.45,1.94-3.36,1.94-.69,0-1.76-1.03-1.98-1.81-.34-1.33.69-2.32,1.94-2.19.99.13,1.81,1.03,3.4,2.06Z"/>
  <path class="cls-1" d="M806.17,545.33c-1.12-1.29-2.15-1.98-2.45-2.93-.39-1.2.69-2.15,1.72-1.94.9.22,1.98,1.12,2.37,1.98.21.47-.82,1.51-1.63,2.88Z"/>
  <path class="cls-1" d="M814,542.14c-.17,2.06-1.12,2.88-2.37,2.58-.77-.22-1.29-1.33-1.89-2.02.82-.69,1.55-1.72,2.5-1.94.52-.13,1.38,1.03,1.76,1.38Z"/>
  <path class="cls-1" d="M802.64,545.93c-1.63,1.03-2.41,1.85-3.36,2.02-1.38.26-2.24-.77-2.06-2.02.09-.77,1.16-2.06,1.68-2.02.99.13,1.94.99,3.74,2.02Z"/>
  <path class="cls-1" d="M768.44,560.3c1.03,1.46,2.02,2.24,2.11,3.14.17,1.38-1.12,2.11-2.28,1.85-.77-.17-1.85-1.25-1.85-1.89.04-.86,1.03-1.68,2.02-3.1Z"/>
  <path class="cls-1" d="M782.94,566.71c-1.29.99-2.28,2.15-2.71,1.98-.9-.39-1.81-1.38-2.11-2.28-.13-.43,1.25-1.89,1.81-1.81.9.09,1.68,1.08,3.01,2.11Z"/>
  <path class="cls-1" d="M793.26,531.56c.95-.34,1.98-1.12,2.84-.99.77.13,1.68,1.16,1.94,1.94.17.56-.6,1.81-1.25,2.02-.6.26-1.76-.17-2.32-.69-.6-.6-.73-1.59-1.12-2.45l-.09.17Z"/>
  <path class="cls-1" d="M771.32,554.32c-.9-1.59-1.81-2.5-1.81-3.44,0-.6,1.2-1.72,1.94-1.76,1.29-.09,2.19,1.08,1.94,2.37-.17.77-1.03,1.46-2.06,2.84Z"/>
  <path class="cls-1" d="M765.13,553.29c-.99-1.81-1.81-2.8-1.98-3.83-.04-.39,1.46-1.46,2.19-1.38s1.89,1.25,1.89,1.89c-.04.86-1.03,1.68-2.11,3.31Z"/>
  <path class="cls-1" d="M790.9,535.73c-1.42,1.16-2.19,2.24-3.01,2.28-.65.04-1.85-.99-2.06-1.72-.39-1.38.77-2.19,2.02-2.15.77,0,1.55.77,3.05,1.59Z"/>
  <path class="cls-1" d="M765.65,556.34c-1.29,1.03-2.15,2.24-2.88,2.15-.77-.09-1.81-1.33-1.98-2.19-.26-1.33.95-2.11,2.19-1.89.86.17,1.51,1.03,2.67,1.94Z"/>
  <path class="cls-1" d="M789.22,559.82c-.99-1.68-1.81-2.58-2.02-3.66-.09-.34,1.38-1.42,2.15-1.46,1.29-.09,2.24.95,1.98,2.28-.13.82-1.03,1.46-2.11,2.84Z"/>
  <path class="cls-1" d="M772.23,557.24c-1.51.9-2.28,1.81-3.01,1.76-.77-.04-2.02-.9-2.11-1.55-.22-1.33.95-2.19,2.19-2.06.77.04,1.51.9,2.93,1.85Z"/>
  <path class="cls-1" d="M798.25,557.8c-1.2,1.03-2.11,2.28-2.54,2.11-.86-.26-1.81-1.2-2.11-2.11-.17-.47,1.08-1.98,1.63-1.94.82.13,1.63,1.03,3.01,1.94Z"/>
  <path class="cls-1" d="M778.51,539.26c-1.63.95-2.5,1.85-3.4,1.85-.69,0-1.76-1.03-1.94-1.81-.34-1.33.69-2.32,1.98-2.15.95.17,1.76,1.08,3.36,2.11Z"/>
  <path class="cls-1" d="M829.27,561.16c-1.42,1.03-2.24,2.02-3.1,2.06-.56.04-1.59-1.25-1.72-2.02-.26-1.38.86-2.19,2.15-1.98.73.09,1.42.99,2.67,1.94Z"/>
  <path class="cls-1" d="M790.34,548.12c.99,1.46,1.94,2.28,2.02,3.23.04.56-1.51,1.89-1.85,1.72-.9-.39-1.85-1.33-2.15-2.24-.13-.47.99-1.38,1.98-2.71Z"/>
  <path class="cls-1" d="M795.72,570.15c-1.51.9-2.32,1.72-3.23,1.85-1.33.22-2.06-.9-2.11-2.15-.04-1.38.99-2.24,2.19-1.98.95.22,1.68,1.16,3.14,2.28Z"/>
  <path class="cls-1" d="M771.5,575.05c-1.03-1.68-1.94-2.54-1.98-3.44,0-.6,1.25-1.68,1.98-1.72.69,0,1.94,1.12,1.89,1.72.04.95-.9,1.81-1.89,3.44Z"/>
  <path class="cls-1" d="M784.7,551.13c-1.03-1.08-2.02-1.63-2.15-2.32-.22-1.33.9-2.19,2.11-2.02.73.13,1.76,1.08,1.85,1.76.09.6-.9,1.38-1.81,2.58Z"/>
  <path class="cls-1" d="M778.12,550.96c-.95-1.68-1.85-2.58-1.85-3.44,0-.6,1.25-1.55,2.06-1.72,1.16-.26,2.11.69,1.89,1.81-.17.95-1.03,1.72-2.11,3.36Z"/>
  <path class="cls-1" d="M775.41,544.6c-1.42,1.08-2.19,2.11-3.05,2.15-.6.04-1.72-1.12-1.89-1.89-.26-1.33.9-2.15,2.11-2.06.77.04,1.46.9,2.84,1.81Z"/>
  <path class="cls-1" d="M796.62,548.55c.9,1.29,1.68,1.98,1.85,2.71.26,1.33-.65,2.32-1.94,2.11-.77-.13-1.98-1.16-1.94-1.72,0-.86.99-1.68,2.02-3.1Z"/>
  <path class="cls-1" d="M796.71,524.21c1.16,1.25,2.19,1.94,2.41,2.84.13.52-1.25,2.02-1.63,1.94-.95-.26-1.98-1.03-2.41-1.89-.22-.52.82-1.55,1.63-2.88Z"/>
  <path class="cls-1" d="M787.11,554.92c-1.68.82-2.62,1.68-3.48,1.59-.69-.04-1.68-1.2-1.81-1.98-.17-1.29.95-2.19,2.19-1.94.9.26,1.63,1.2,3.1,2.32Z"/>
  <path class="cls-1" d="M806.26,527.6c-1.55.86-2.5,1.72-3.31,1.68-.65-.04-1.25-1.29-1.85-1.98.82-.65,1.59-1.59,2.5-1.76.56-.13,1.38.99,2.67,2.06Z"/>
  <path class="cls-1" d="M783.54,541.46c-1.33.95-2.02,1.72-2.84,1.94-1.12.26-2.37-1.2-2.28-2.5s1.12-1.85,2.11-1.55c.95.26,1.68,1.12,3.01,2.11Z"/>
  <path class="cls-1" d="M786.47,565.98c.9,1.33,1.63,1.98,1.72,2.71.17,1.25-.43,2.45-1.89,2.28-.6-.09-1.68-1.16-1.59-1.68.13-.95.9-1.81,1.76-3.31Z"/>
  <path class="cls-1" d="M793.65,536.21c.9,1.25,1.72,1.94,1.85,2.71.17,1.25-.56,2.28-1.94,2.28s-2.15-1.03-1.94-2.28c.17-.77,1.08-1.46,2.02-2.71Z"/>
  <path class="cls-1" d="M802.08,566.88c-1.42.82-2.41,1.76-2.97,1.55-.9-.34-1.51-1.42-2.24-2.19.69-.6,1.51-1.72,2.11-1.63.95.13,1.72,1.16,3.1,2.28Z"/>
  <path class="cls-1" d="M804.92,533.58c-1.12,1.16-1.68,2.19-2.45,2.37-1.33.3-2.24-.82-2.19-1.98.04-.77.99-2.11,1.51-2.11.9,0,1.76.9,3.14,1.72Z"/>
  <path class="cls-1" d="M796.36,563.65c-1.42,1.08-2.11,2.02-2.84,2.02-.77.04-2.06-.65-2.28-1.29-.39-1.33.69-2.19,1.94-2.15.77,0,1.59.65,3.18,1.42Z"/>
  <path class="cls-1" d="M811.03,536.42c-1.25.9-1.94,1.81-2.71,1.85-1.2.13-1.98-.95-1.59-2.02.26-.82,1.16-1.72,1.98-1.89.43-.17,1.2,1.03,2.32,2.06Z"/>
  <path class="cls-1" d="M786.85,560.17c.99,1.33,1.89,1.98,1.98,2.71.17,1.2-.56,2.41-1.94,2.24-.73-.09-1.89-1.12-1.89-1.76-.04-.82.9-1.68,1.85-3.18Z"/>
  <path class="cls-1" d="M784.7,535.69c-1.33.99-2.19,2.11-2.75,1.94-.9-.22-2.02-1.08-2.32-1.94-.43-1.12.69-2.02,1.76-1.85.95.13,1.76.95,3.31,1.85Z"/>
  <path class="cls-1" d="M776.87,565.37c-1.29,1.03-1.94,1.89-2.75,2.15-1.08.34-2.45-1.12-2.45-2.41s.99-1.94,2.02-1.72c.95.22,1.76,1.03,3.18,1.98Z"/>
  <path class="cls-1" d="M777.99,560.21c-1.46.73-2.45,1.68-3.01,1.46-.86-.34-1.42-1.46-2.06-2.28.73-.56,1.55-1.63,2.15-1.55.9.22,1.59,1.25,2.93,2.37Z"/>
  <path class="cls-1" d="M800.23,537.24c.86,1.2,1.63,1.81,1.72,2.5.17,1.42-.86,2.19-2.19,1.89-.69-.17-1.81-1.25-1.72-1.51.34-.9,1.16-1.63,2.19-2.88Z"/>
  <path class="cls-1" d="M793.35,531.43c-.82.39-1.63,1.03-2.45,1.03-.73,0-1.81-.56-2.11-1.16-.26-.6,0-1.94.52-2.32.56-.43,1.89-.43,2.41-.04.73.56,1.03,1.72,1.51,2.58.04.04.13-.09.13-.09Z"/>
  <path class="cls-1" d="M809.27,527.47c.82,1.33,1.59,2.02,1.68,2.84.13,1.25-.6,2.24-2.02,2.15s-2.06-1.16-1.81-2.37c.17-.77,1.12-1.38,2.15-2.62Z"/>
  <path class="cls-1" d="M780.4,553.33c-1.33,1.03-2.02,1.89-2.93,2.15-.34.13-1.68-1.2-1.59-1.51.34-.95,1.03-1.89,1.85-2.45.3-.17,1.42.95,2.67,1.81Z"/>
  <path class="cls-1" d="M787.03,545.71c-1.08-1.55-2.02-2.32-2.11-3.23-.04-.65.9-1.89,1.59-2.02,1.29-.26,2.19.77,2.06,2.06-.04.82-.73,1.59-1.55,3.18Z"/>
  <path class="cls-1" d="M817.31,548.68c.86,1.38,1.55,2.02,1.63,2.75.13,1.25-.47,2.45-1.98,2.24-.65-.09-1.68-1.2-1.59-1.72.17-.95.99-1.81,1.94-3.27Z"/>
  <path class="cls-1" d="M809.18,522.1c-1.59.86-2.5,1.72-3.4,1.68-.65-.04-1.63-1.16-1.81-1.94-.26-1.33.77-2.28,2.06-2.02.95.22,1.68,1.2,3.14,2.28Z"/>
  <path class="cls-1" d="M795.8,544.81c-1.33.99-2.06,1.85-2.97,2.06-.39.09-1.68-1.29-1.55-1.59.34-.95,1.08-1.85,1.94-2.37.26-.17,1.33.95,2.58,1.89Z"/>
  <path class="cls-1" d="M820.62,545.33c-1.38,1.25-2.06,2.28-2.97,2.5-.47.13-1.76-1.2-1.81-1.89-.04-.69.95-1.81,1.72-2.02.65-.22,1.55.65,3.05,1.42Z"/>
  <path class="cls-1" d="M764.91,562.36c-1.29.86-1.98,1.68-2.75,1.81-1.25.22-1.98-.82-1.59-1.89.26-.77,1.12-1.76,1.85-1.89.56-.13,1.33.95,2.5,1.98Z"/>
  <path class="cls-1" d="M781.43,557.07c.82,1.55,1.46,2.28,1.63,3.1.22,1.25-.73,2.11-1.81,1.89-.77-.17-1.98-1.2-1.94-1.81,0-.82.99-1.63,2.11-3.18Z"/>
  <path class="cls-1" d="M780.66,572.9c-1.38.69-2.15,1.29-3.01,1.42-1.16.17-2.11-.47-1.89-1.76.26-1.29,1.29-2.02,2.58-1.72.69.17,1.2,1.03,2.32,2.06Z"/>
  <path class="cls-1" d="M802.25,557.54c-.99-1.38-1.76-2.06-1.94-2.88-.3-1.38.73-2.06,1.98-2.15,1.2-.09,2.11.6,1.89,1.76-.13.95-.99,1.72-1.94,3.27Z"/>
  <path class="cls-1" d="M813.57,549.11c-1.16,1.03-1.81,2.02-2.58,2.15-1.38.22-2.06-.9-2.11-2.19-.04-1.2.73-2.06,1.89-1.85.86.13,1.55.99,2.8,1.89Z"/>
  <path class="cls-1" d="M769.35,544.6c-1.51.86-2.5,1.81-2.97,1.63-.86-.34-1.38-1.46-2.06-2.24.6-.52,1.33-1.51,1.81-1.42.9.17,1.72.99,3.23,2.02Z"/>
  <path class="cls-1" d="M356.41,531.69c.99,1.55,1.89,2.41,1.98,3.31.17,1.46-1.12,1.94-2.37,1.94s-2.11-.77-1.81-1.94c.26-.99,1.12-1.76,2.19-3.31Z"/>
  <path class="cls-1" d="M361.7,531.39c1.59-.99,2.41-1.94,3.31-2.02,1.38-.13,1.85,1.12,1.98,2.37.13,1.29-.6,2.19-1.76,1.94-1.03-.26-1.89-1.2-3.53-2.28Z"/>
  <path class="cls-1" d="M368.8,522.44c.99,1.51,1.94,2.37,1.98,3.23.04.69-.99,1.76-1.72,1.98-1.25.39-2.45-.43-2.32-1.81.13-.9,1.08-1.76,2.06-3.4Z"/>
  <path class="cls-1" d="M352.02,536.64c1.08,1.33,2.06,2.06,2.28,2.93.3,1.29-.6,2.15-1.98,2.19-1.38.09-2.37-.73-2.24-2.02.09-.86.99-1.63,1.94-3.1Z"/>
  <path class="cls-1" d="M348.02,524.46c-1.94-.13-3.18-1.55-2.67-2.75.3-.73,1.38-1.46,2.19-1.59,1.42-.22,2.24.9,2.02,2.15-.17.9-1.12,1.68-1.55,2.19Z"/>
  <path class="cls-1" d="M368.11,517.71c-1.59.9-2.62,1.94-3.31,1.76-.82-.22-1.85-1.38-2.02-2.28-.26-1.42,1.12-2.06,2.28-1.81.86.22,1.59,1.16,3.05,2.32Z"/>
  <path class="cls-1" d="M390.39,530.44c-1.55.9-2.41,1.72-3.31,1.81-1.33.13-2.06-.95-2.06-2.24,0-1.51,1.16-2.11,2.32-1.89.9.22,1.63,1.2,3.05,2.32Z"/>
  <path class="cls-1" d="M350.47,536.72c-1.38.82-2.11,1.59-2.88,1.68-1.46.13-2.37-.86-2.32-2.32.04-1.29.9-2.37,2.15-2.02.95.3,1.68,1.42,3.05,2.67Z"/>
  <path class="cls-1" d="M369.66,531.86c.99,1.42,1.89,2.15,2.06,3.05.26,1.33-.69,2.11-2.06,2.15-1.42,0-2.32-.9-2.15-2.11.09-.9,1.12-1.63,2.15-3.1Z"/>
  <path class="cls-1" d="M357.4,516.12c1.08,1.63,1.94,2.5,2.24,3.57.13.39-.95,1.46-1.63,1.68-1.2.39-2.62-.86-2.45-2.24.13-.82.95-1.55,1.85-3.01Z"/>
  <path class="cls-1" d="M373.87,519.77c-1.59,1.08-2.5,1.85-3.53,2.24-.22.09-1.46-1.38-1.33-1.76.34-.9,1.12-1.94,1.98-2.28.47-.17,1.46.86,2.88,1.81Z"/>
  <path class="cls-1" d="M341.65,530.1c.9,1.68,1.81,2.62,1.81,3.53,0,.69-1.12,1.76-1.85,1.89-1.33.26-2.32-.77-2.06-2.11.13-.9,1.03-1.68,2.11-3.31Z"/>
  <path class="cls-1" d="M334.51,547.44c-.99-1.46-1.89-2.24-2.06-3.14-.26-1.46.99-1.89,2.24-1.94,1.42-.04,2.24.9,2.02,2.15-.17.82-1.12,1.55-2.19,2.93Z"/>
  <path class="cls-1" d="M353.35,545.33c-1.76,1.08-2.58,1.98-3.48,2.02-.65,0-1.89-1.12-1.89-1.72,0-.69,1.03-1.94,1.68-1.98.9-.09,1.89.77,3.7,1.68Z"/>
  <path class="cls-1" d="M381.75,524.51c1.94,0,2.93,1.25,2.8,2.71-.09,1.29-.95,1.81-2.11,1.72-1.33-.09-2.37-.86-2.15-2.19.17-.9,1.12-1.72,1.46-2.24Z"/>
  <path class="cls-1" d="M373.83,526.96c1.03,1.59,1.94,2.37,2.06,3.27.17,1.42-1.12,1.89-2.32,1.94s-2.06-.73-1.76-1.89c.22-.95,1.03-1.72,2.02-3.31Z"/>
  <path class="cls-1" d="M353.83,516.98c-.3,2.06-1.38,2.45-2.58,2.45s-1.89-.73-1.81-1.98c.09-1.38.9-2.32,2.19-2.02.9.17,1.63,1.12,2.19,1.55Z"/>
  <path class="cls-1" d="M343.37,546.79c-1.25.99-2.02,1.98-2.97,2.24-1.16.26-1.89-.73-1.76-1.94.13-1.29.86-2.28,2.28-2.06.69.13,1.29.9,2.45,1.76Z"/>
  <path class="cls-1" d="M359.12,525.32c.95,1.72,1.85,2.62,1.85,3.53,0,.69-1.03,1.81-1.76,1.98-1.33.3-2.24-.77-2.06-2.06.13-.95.95-1.76,1.98-3.44Z"/>
  <path class="cls-1" d="M338.3,542.53c-.73-1.42-1.42-2.15-1.51-2.97-.13-1.33.77-2.15,2.15-2.11,1.46.04,2.19,1.16,1.89,2.32-.17.86-1.29,1.51-2.54,2.75Z"/>
  <path class="cls-1" d="M376.76,527.17c-1.08-1.46-2.06-2.19-2.24-3.14-.26-1.25.6-2.28,1.98-2.32,1.46-.04,2.02,1.16,1.98,2.37-.04.82-.82,1.59-1.72,3.1Z"/>
  <path class="cls-1" d="M340.66,552.04c-.13,2.06-.95,2.97-2.28,2.67-.77-.17-1.98-1.46-1.85-1.89.3-.9,1.2-2.06,2.06-2.28.65-.09,1.59,1.12,2.06,1.51Z"/>
  <path class="cls-1" d="M332.02,517.8c-1.42.9-2.28,1.81-3.1,1.81-.69,0-1.72-1.03-1.94-1.81-.34-1.12,1.38-2.67,2.41-2.28.82.3,1.42,1.16,2.62,2.28Z"/>
  <path class="cls-1" d="M378.65,537.24c-1.46,1.08-2.19,1.98-3.14,2.24-1.2.34-1.94-.6-1.85-1.76.09-1.2.65-2.37,2.06-2.19.77.04,1.51.82,2.93,1.72Z"/>
  <path class="cls-1" d="M345.7,519.3c-1.46.77-2.19,1.46-3.01,1.51-1.33.09-2.15-.82-2.15-2.15s.9-2.45,2.11-2.19c.95.22,1.63,1.51,3.05,2.84Z"/>
  <path class="cls-1" d="M335.97,534.62c-.17,2.06-1.12,2.84-2.37,2.54-.77-.17-1.98-1.51-1.81-1.85.34-.9,1.25-2.02,2.11-2.19.65-.13,1.55,1.08,2.06,1.51Z"/>
  <path class="cls-1" d="M388.54,520.33c-.13,2.02-.95,2.93-2.24,2.62-.77-.17-1.98-1.38-1.89-1.81.26-.95,1.16-2.11,1.98-2.28.65-.17,1.59,1.03,2.15,1.46Z"/>
  <path class="cls-1" d="M334,525.15c-.95-1.33-1.81-2.02-1.94-2.8-.22-1.29.6-2.45,1.98-2.19.77.13,1.98,1.2,1.94,1.81,0,.82-.95,1.63-1.98,3.18Z"/>
  <path class="cls-1" d="M336.62,512.72c1.08,1.59,2.06,2.41,2.11,3.27.04.73-.9,1.89-1.63,2.15-1.29.39-2.32-.65-2.28-1.89,0-.95.86-1.81,1.81-3.53Z"/>
  <path class="cls-1" d="M346.64,515.9c-.99-1.29-1.81-1.94-2.02-2.75-.3-1.2,1.12-2.71,2.28-2.32.73.26,1.72,1.33,1.68,1.98-.09.86-1.03,1.68-1.94,3.1Z"/>
  <path class="cls-1" d="M335.67,532.34c-.86-1.2-1.85-2.02-1.68-2.45.3-.95,1.16-1.72,1.81-2.58.69.65,1.94,1.33,1.89,1.89-.09.95-1.03,1.76-2.02,3.14Z"/>
  <path class="cls-1" d="M324.83,497.02c.73,1.63,1.55,2.58,1.46,3.44-.09.65-1.25,1.51-2.06,1.63-1.29.17-2.32-.73-1.94-2.11.3-.9,1.29-1.59,2.54-2.97Z"/>
  <path class="cls-1" d="M362.52,526.05c-.86-1.33-1.72-2.06-1.76-2.84-.13-1.38.95-2.19,2.19-1.85.77.22,1.89,1.29,1.81,1.85-.13.86-1.16,1.55-2.24,2.84Z"/>
  <path class="cls-1" d="M332.4,553.07c-.95-1.25-1.81-1.94-1.94-2.71-.22-1.33.73-2.28,2.06-2.02.82.17,2.06,1.2,1.98,1.76-.09.86-1.08,1.63-2.11,2.97Z"/>
  <path class="cls-1" d="M344.79,538.53c.99,1.51,1.85,2.32,2.02,3.23.26,1.25-.77,1.81-1.94,1.76-1.42-.04-2.19-1.03-2.06-2.24.04-.77.95-1.46,1.98-2.75Z"/>
  <path class="cls-1" d="M338.47,506.95c-1.55.82-2.28,1.46-3.1,1.55-1.38.13-2.15-1.03-2.06-2.19.09-.69,1.38-1.94,1.76-1.85.99.34,1.81,1.29,3.4,2.5Z"/>
  <path class="cls-1" d="M340.1,513.15c-.82-1.33-1.59-2.06-1.63-2.88-.09-1.2.9-1.98,2.06-1.68.82.26,1.46,1.16,2.19,1.76-.69.77-1.38,1.51-2.62,2.8Z"/>
  <path class="cls-1" d="M354.69,508.07c.73,1.72,1.55,2.71,1.42,3.57-.09.69-1.29,1.68-1.98,1.68-1.29,0-2.06-1.16-1.68-2.45.22-.77,1.08-1.42,2.24-2.8Z"/>
  <path class="cls-1" d="M343.2,524.46c-1.51.82-2.24,1.55-3.05,1.63-1.38.13-2.19-1.08-2.06-2.19.09-.73,1.38-2.02,1.72-1.89.99.3,1.81,1.25,3.4,2.45Z"/>
  <path class="cls-1" d="M356.28,524.59c-1.63,1.03-2.54,1.72-3.53,2.11-.22.09-1.38-1.42-1.25-1.81.34-.9,1.16-1.85,2.02-2.19.43-.17,1.38.9,2.75,1.89Z"/>
  <path class="cls-1" d="M348.62,527.6c-1.55,1.16-2.24,1.98-3.05,2.19-1.25.3-2.45-.26-2.37-1.76.04-.65.99-1.72,1.55-1.76.99,0,1.94.65,3.87,1.33Z"/>
  <path class="cls-1" d="M351.81,527.17c.77,1.68,1.55,2.62,1.59,3.53.04,1.42-1.12,1.89-2.45,1.72-1.2-.17-1.98-1.03-1.59-2.15.3-.9,1.25-1.63,2.45-3.1Z"/>
  <path class="cls-1" d="M382.65,532.25c-1.12.86-1.68,1.55-2.37,1.76-1.29.34-2.5-.82-2.5-2.19,0-1.29.9-1.98,1.98-1.72.9.26,1.59,1.2,2.88,2.15Z"/>
  <path class="cls-1" d="M388.2,535.99c-1.55.9-2.28,1.63-3.14,1.81-1.33.3-2.37-.77-2.19-2.02.17-1.2.99-1.94,2.19-1.63.9.22,1.63.9,3.14,1.85Z"/>
  <path class="cls-1" d="M362.6,539.69c-1.12-1.42-2.02-2.15-2.28-3.1-.34-1.2.69-1.89,1.85-1.89,1.38-.04,2.28.9,2.24,2.15,0,.77-.9,1.51-1.81,2.84Z"/>
  <path class="cls-1" d="M360.8,541.89c-1.2,1.08-1.89,1.94-2.75,2.32-.34.13-1.55-.77-1.72-1.38-.39-1.33.77-2.75,1.98-2.54.69.13,1.29.82,2.5,1.59Z"/>
  <path class="cls-1" d="M388.2,518.14c-.82-1.25-1.55-1.89-1.59-2.58-.09-1.16.39-2.37,1.85-2.37,1.16,0,2.11.69,1.81,1.89-.22.95-1.08,1.72-2.06,3.05Z"/>
  <path class="cls-1" d="M367.25,543.48c-.82-1.38-1.72-2.24-1.55-2.84.17-.69,1.29-1.68,1.94-1.63.73.04,1.42,1.08,2.11,1.68-.69.73-1.38,1.46-2.5,2.8Z"/>
  <path class="cls-1" d="M330.77,514.83c-.77-1.25-1.46-1.89-1.55-2.58-.13-1.2.47-2.28,1.89-2.32,1.16-.04,2.11.65,1.76,1.85-.26.95-1.12,1.68-2.11,3.05Z"/>
</svg>
