<svg xmlns="http://www.w3.org/2000/svg" width="100%" height="100%" viewBox="0 0 1031 532" fill="none">
<path d="M405.177 254.25C404.227 258.08 405.948 260.1 407.758 262.51C413.048 269.52 418.688 276.28 423.068 284.02C427.288 291.55 432.448 298.52 436.918 305.92C442.858 315.73 448.617 325.62 453.177 336.21C455.887 342.45 458.297 348.77 460.747 355.1C465.217 366.5 468.057 378.12 468.707 390.33C468.837 393 469.007 395.75 468.487 398.33C468.017 400.65 468.748 401.99 470.638 402.5C474.598 403.62 478.598 405 482.638 405.3C491.288 405.95 498.687 402.33 505.657 397.51C505.657 396.09 505.697 394.67 505.657 393.29C505.487 390.11 506.557 387.48 508.967 385.42C511.117 383.57 512.758 383.31 514.518 384.47C517.058 386.1 518.128 388.13 517.268 390.62C516.578 392.64 515.328 394.45 514.338 396.38C514.118 396.81 513.818 397.24 513.568 397.67C514.728 399.95 516.537 401.15 518.727 402.14C528.667 406.57 538.518 405.58 548.588 402.4C553.318 400.94 557.708 398.96 561.878 396.38C564.548 394.7 564.717 394.75 563.688 391.86C559.818 381.11 564.587 368.41 573.107 362.26C576.417 359.85 580.418 358.22 584.938 359.08C586.997 359.47 588.468 360.37 589.628 362.13C592.898 367.16 592.427 372.33 589.967 377.44C586.787 384.11 581.877 389.36 576.417 394.13C575.727 394.73 575.087 395.33 574.047 396.28C576.197 397.61 578.008 399.21 580.068 399.94C584.888 401.7 589.748 402.99 595.078 402.99C607.898 402.95 619.637 399.2 631.037 393.83C642.097 388.58 651.778 381.27 661.198 373.7C666.918 369.1 672.297 364.06 677.807 359.25C679.227 358 679.917 356.58 679.997 354.56C680.557 345.22 679.907 335.89 680.037 326.55C680.207 313.69 680.167 300.78 680.167 287.92C680.167 281.73 680.078 275.57 680.078 269.38C680.078 255.23 680.167 241.12 680.167 226.96C680.167 220.08 679.827 213.15 679.997 206.27C680.337 194.7 679.697 183.13 679.997 171.6C680.257 163.43 679.828 155.25 680.088 147.04C680.348 138.95 679.997 130.82 680.047 122.69C680.087 111.51 680.267 100.32 680.307 89.14C680.307 80.97 680.138 72.79 680.138 64.66C680.138 57.69 680.268 50.72 680.268 43.75C680.268 36.78 680.097 30.24 680.097 23.45C680.097 19.88 680.318 16.35 680.398 12.78C680.438 9.77 680.398 6.76001 680.398 3.57001C681.558 1.98001 683.237 1.81 685.347 1.81C698.077 1.9 710.768 1.72 723.508 1.72C731.208 1.72 738.907 1.93998 746.607 1.88998C757.787 1.79998 768.977 1.5 780.157 1.5C788.117 1.5 796.117 2.36 804.037 1.84C813.847 1.15 823.658 1.58 833.458 1.41C842.878 1.24 852.257 1.41001 861.677 1.45001C868.217 1.49001 874.757 1.71 881.297 1.62C886.327 1.58 891.317 0.970001 896.357 0.970001C903.717 0.970001 911.028 1.35999 918.388 1.39999C925.618 1.43999 932.798 1.22999 940.028 1.17999C945.838 1.13999 951.597 1.21999 957.407 1.26999C967.557 1.35999 977.757 1.49 987.907 1.53C990.357 1.53 992.807 1.10001 995.217 1.01001C996.207 0.97001 997.238 1.26999 998.268 1.39999C998.788 3.89999 999.168 6 997.878 8.28C997.188 9.48 996.928 11.46 997.408 12.75C998.608 16.06 997.667 19.37 997.837 22.64C998.227 30.73 998.308 38.82 998.308 46.86C998.308 53.48 997.917 60.15 997.837 66.78C997.797 70.61 998.008 74.39 998.058 78.22C998.148 92.42 998.278 106.57 998.278 120.77C998.278 128.3 997.888 135.83 997.888 143.35C997.928 155.74 998.277 168.13 998.357 180.52C998.397 184.99 997.928 189.47 997.888 193.94C997.888 199.88 998.107 205.81 998.187 211.71C998.277 216.05 998.357 220.44 998.317 224.79C998.277 231.2 998.058 237.61 998.018 244.02C997.978 249.48 997.928 254.95 998.058 260.45C998.098 261.96 998.447 263.63 999.217 264.88C1002.36 270.04 1003.26 275.68 1002.96 281.49C1002.74 285.96 1002.1 290.44 1001.58 294.87C1001.19 298.18 1001.19 298.14 1004.29 299.13C1007.34 300.16 1009.97 302.06 1011.95 304.46C1015.52 308.8 1019.18 313.28 1020.55 318.91C1021.88 324.46 1023.6 330.01 1022.31 335.86C1021.32 340.38 1020.85 344.98 1019.6 349.41C1018.27 354.27 1016.03 358.66 1012.59 362.62C1008.89 366.88 1004.72 370.32 999.768 372.9C998.518 373.55 997.918 374.45 998.008 375.95C998.138 380.04 998.138 384.08 998.178 388.17C998.308 397.81 998.567 407.49 998.607 417.12C998.607 422.5 998.087 427.83 998.087 433.21C998.087 442.5 998.388 451.84 998.388 461.13C998.428 470.64 998.298 480.14 998.258 489.65V496.06C1008.58 496.75 1018.56 497.18 1028.5 495.59C1030.09 498.26 1030.31 500.92 1030.39 503.63C1030.48 508.06 1030.56 512.53 1030.69 516.97C1030.78 519.94 1031.03 522.91 1030.95 525.83C1030.82 529.44 1029.79 530.48 1026.22 530.56C1014.99 530.78 1003.76 530.9 992.537 530.9C984.277 530.9 976.017 530.51 967.717 530.47C955.497 530.43 943.288 530.47 931.068 530.51C920.918 530.55 910.718 530.73 900.568 530.77C887.278 530.81 873.977 530.68 860.688 530.73C848.818 530.77 836.938 531.03 825.028 531.03C814.318 530.99 803.608 530.64 792.898 530.56C789.158 530.52 785.457 530.86 781.717 530.9C776.557 530.94 771.438 531.03 766.278 530.9C758.278 530.73 750.278 530.21 742.318 530.21C734.358 530.21 725.628 530.64 717.278 530.77C709.408 530.86 701.537 530.73 693.657 530.73C681.397 530.69 669.138 530.64 656.878 530.64C654.938 530.64 653.008 530.98 651.068 531.11C649.558 531.2 648.358 530.98 648.268 528.92C648.098 524.53 647.577 520.19 647.497 515.8C647.367 510.81 647.538 505.78 647.628 500.79C647.718 497.52 648.787 496.53 651.797 496.53C659.367 496.49 666.937 496.44 674.557 496.44C676.317 496.44 678.038 496.7 680.198 496.83V365.97C678.868 366.92 678.178 367.35 677.578 367.86C670.868 373.32 664.288 379 657.398 384.25C650.948 389.2 643.937 393.37 636.747 397.2C628.527 401.63 619.927 405.07 610.847 407.09C603.017 408.85 595.018 410.02 587.018 408.08C580.518 406.53 574.027 404.85 569.297 399.43C568.347 399.73 567.407 399.86 566.717 400.33C557.817 406.22 547.918 409.11 537.378 410.48C531.998 411.17 526.837 410.39 521.677 409.4C517.157 408.54 513.587 405.66 509.977 402.95C509.587 402.65 509.157 402.35 508.857 402.13C496.077 411.08 482.617 413.83 467.777 407.68C467.347 408.5 466.787 409.23 466.527 410.05C464.677 416.93 461.068 422.57 455.948 427.64C451.778 431.81 447.218 435.21 442.228 438.05C439.348 439.68 436.037 440.76 432.767 441.45C425.537 442.91 418.187 443.3 410.827 442.22C405.617 441.45 400.287 441.06 395.207 439.72C386.737 437.53 378.258 435.33 370.038 432.23C363.928 429.95 357.437 428.53 351.147 426.77C349.947 435.93 350.418 483.47 352.698 495.26C362.078 496.12 371.538 496.21 381.388 494.7C381.908 497.37 382.677 499.69 382.807 502.1C383.107 508.6 383.197 515.09 383.327 521.63C383.327 521.89 383.367 522.15 383.367 522.4C383.497 529.2 382.207 529.97 376.617 529.93C366.037 529.84 355.447 530.15 344.867 530.15C336.607 530.15 328.347 529.76 320.047 529.72C307.957 529.68 295.868 529.76 283.788 529.81C273.638 529.85 263.438 529.98 253.288 529.98C239.868 530.02 226.448 529.89 213.018 529.94C194.308 529.98 175.587 530.2 156.837 530.2C150.387 530.2 143.927 529.77 137.477 529.73C132.617 529.69 127.708 530.03 122.848 529.99C113.688 529.9 104.517 529.6 95.3575 529.52C91.5275 529.48 87.6575 529.69 83.8275 529.74C76.1275 529.83 68.4275 529.83 60.7275 529.91C54.2775 529.95 47.8175 530.13 41.3675 530.13C33.7575 530.13 26.1775 529.96 18.5675 529.96C13.6675 529.96 8.7575 530.09 3.8575 530.26C1.6175 530.35 0.927501 530.17 0.757501 527.68C0.367501 521.4 0.2375 515.08 0.0675 508.75C-0.0225 505.82 -0.0225 502.86 0.0675 499.93C0.1975 496.53 1.1875 495.76 4.6675 495.76C11.9775 495.76 19.2975 495.67 26.6475 495.67C28.5375 495.67 30.3875 495.89 32.5875 496.01C32.7175 331.29 32.4575 167 32.7175 2.67001C33.9675 1.21001 35.4275 0.779999 37.4475 0.779999C48.2475 0.819999 58.9975 0.559998 69.7975 0.559998C75.8675 0.559998 81.9275 0.860012 87.9475 0.950012C92.0375 0.990012 96.1175 0.780002 100.207 0.690002C106.357 0.560002 112.558 0.389984 118.708 0.389984C127.958 0.349984 137.207 0.430011 146.497 0.480011C148.307 0.480011 150.107 0.609985 151.917 0.609985C163.657 0.569985 175.367 0.439984 187.107 0.389984C196.137 0.349984 205.127 0.430011 214.167 0.480011C220.707 0.520011 227.248 0.739994 233.788 0.649994C238.818 0.609994 243.808 0 248.848 0C256.338 0 263.778 0.389993 271.258 0.429993C278.228 0.469993 285.157 0.259991 292.117 0.209991C298.057 0.169991 303.948 0.249988 309.888 0.299988C320.038 0.389988 330.238 0.519998 340.388 0.559998C342.578 0.559998 344.727 0.169996 346.927 0.0899963C348.177 0.0499963 349.428 0.259984 350.758 0.389984C351.318 2.96998 351.577 5.07999 350.367 7.35999C349.677 8.68999 349.978 10.54 349.978 12.18C349.978 13.3 350.318 14.42 350.318 15.54C350.488 25.95 350.748 36.32 350.788 46.73C350.788 53.1 350.398 59.46 350.318 65.87C350.278 69.7 350.488 73.48 350.538 77.31C350.628 91.51 350.798 105.66 350.758 119.86C350.758 127.39 350.368 134.92 350.418 142.44C350.458 154.83 350.808 167.22 350.888 179.61C350.928 184.21 350.497 188.82 350.367 193.42C350.277 196.56 350.237 199.7 350.497 202.8C350.587 203.79 351.357 205.04 352.177 205.6C359.317 210.33 365.517 216.1 371.237 222.42C373.817 225.26 376.058 228.4 378.598 231.28C379.848 232.7 381.268 234.03 382.818 235.15C386.778 237.9 390.088 241.26 393.138 244.96C394.218 246.21 395.288 247.5 396.408 248.66C398.648 251.46 400.927 254.12 405.188 254.21L405.177 254.25ZM791.188 288.54C792.648 291.42 794.118 294.26 795.448 296.97C796.528 296.02 797.427 294.65 798.417 294.6C799.367 294.56 800.438 295.8 801.088 296.28C803.708 295.85 806.038 295.42 808.448 295.03C808.278 294.43 808.227 293.87 808.057 293.78C807.367 293.56 806.638 293.48 805.948 293.44C803.448 293.31 803.017 292.75 803.497 290.39C803.627 289.79 803.798 289.19 803.888 288.71C801.868 286.99 800.057 285.48 797.867 283.63C796.917 283.89 795.248 285.35 794.078 283.11C792.878 280.74 795.367 280.31 796.357 279.37C794.117 275.28 792.057 271.54 790.167 268.19C788.617 268.32 787.237 268.62 785.997 268.36C785.607 268.27 785.097 266.77 785.227 266.08C785.657 264.02 787.598 264.79 789.828 264.62C788.068 263.29 786.988 262.51 785.958 261.74C785.438 259.72 787.978 257.74 785.698 255.67C784.188 255.89 782.468 255.97 781.828 253.82C781.138 251.67 783.418 251.58 783.938 250.51C783.507 249.05 783.418 247.58 783.338 246.17C783.208 244.71 783.037 243.2 782.867 241.52C781.537 241.74 780.628 241.86 779.338 242.04C779.938 242.86 780.368 243.2 780.458 243.63C780.678 244.53 781.107 245.87 780.677 246.34C780.157 246.9 778.437 247.24 777.967 246.81C775.597 244.79 773.927 246.81 771.727 247.24C774.097 249.13 774.657 250.42 773.617 251.67C771.807 253.82 770.817 251.11 768.967 250.72C768.017 251.84 766.947 253.04 765.997 254.33C764.877 255.88 763.718 256.27 762.088 255.28C761.358 254.85 760.757 254.29 760.107 253.77C758.777 255.06 757.918 256.01 758.518 257.99C759.168 260.1 758.048 261.39 756.278 260.92C753.528 260.19 751.938 261.39 750.338 263.33C748.788 265.18 747.717 265.01 746.117 262.9C745.857 262.56 745.518 262.25 745.088 261.82C744.098 263.02 743.278 263.97 742.508 264.96C742.978 266.55 743.237 268.44 742.417 269.22C740.607 270.9 739.707 268.19 738.247 267.59C737.087 268.15 735.928 268.75 735.578 268.92C734.848 270.77 734.498 272.1 733.768 273.05C733.548 273.35 731.917 273.09 731.357 272.62C729.637 271.11 732.087 269.95 731.917 268.23C731.227 268.27 730.108 268.01 729.898 268.36C728.818 270.04 728.007 271.89 727.097 273.69C728.857 275.88 726.928 278.42 727.528 280.66C730.628 280.96 731.007 281.13 731.357 282.08C732.127 284.23 729.727 284.7 729.117 286.04C730.967 290.3 731.787 294.86 735.438 298.09C736.768 297.49 737.678 295.21 739.568 296.76C739.958 297.1 740.297 298.14 740.037 298.48C739.347 299.56 738.357 300.42 737.287 301.58C739.397 302.96 740.428 306.1 743.958 305.15C744.218 305.06 744.857 305.92 745.157 306.44C745.547 307.04 745.718 307.73 746.448 309.49C747.828 305.19 750.017 305.83 752.467 307.08C752.857 307.3 753.627 306.78 754.188 306.65C754.358 305.19 753.198 303.55 755.138 302.74C757.808 301.66 757.887 304.63 759.227 305.67C761.507 302.74 761.467 302.83 764.557 303.91C765.637 304.3 766.927 303.95 768.347 303.95C768.607 302.14 767.267 300.25 769.467 299.52C772.047 298.66 772.398 301.11 773.688 303.18C774.587 301.33 775.968 299.74 775.628 298.96C774.508 296.55 776.058 294.44 775.888 292.21C774.208 291.78 772.018 292.04 772.448 289.46C772.748 287.7 774.077 287.48 777.607 288.69C778.077 287.44 778.557 286.19 778.987 284.95C779.587 283.14 781.438 282.15 782.518 283.36C783.898 284.91 785.397 285.21 787.247 285.34C787.847 285.38 788.448 286.2 789.008 286.67C789.778 287.32 790.517 287.96 791.287 288.65L791.198 288.56L791.188 288.54ZM991.997 257.35C992.337 255.72 992.648 254.85 992.648 253.99C992.558 246.59 992.308 239.19 992.258 231.75C992.218 224.82 991.957 217.85 992.477 210.97C992.737 207.61 991.877 205.38 989.807 203.01C985.117 197.55 980.467 192.04 976.037 186.36C972.297 181.63 968.677 176.77 965.367 171.73C961.667 166.14 958.097 160.46 954.917 154.61C950.317 146.22 945.888 137.7 941.708 129.1C938.098 121.7 934.647 114.17 931.727 106.47C927.167 94.47 922.477 82.55 918.907 70.16C916.847 62.93 914.907 55.66 912.967 48.44C909.397 35.15 907.807 21.51 905.357 7.44H894.778C890.648 7.48 886.557 7.61001 882.427 7.57001C876.537 7.53001 870.637 7.31 864.747 7.31C858.857 7.31 853.438 7.57001 847.758 7.57001C841.738 7.57001 835.707 7.26999 829.688 7.26999C824.827 7.26999 819.917 7.70001 815.057 7.70001C808.087 7.70001 801.158 7.47999 794.198 7.35999C791.748 7.31999 789.338 7.13998 786.888 7.13998C785.078 7.13998 783.318 7.4 781.508 7.44C778.968 7.48 776.477 7.44 774.107 7.44C773.587 10.97 773.248 14.02 772.688 17.03C770.668 28.26 768.897 39.53 766.367 50.63C764.557 58.72 762.028 66.68 759.268 74.51C754.838 87.24 750.277 99.98 745.157 112.41C740.727 123.16 735.607 133.66 730.357 144.03C726.527 151.56 721.928 158.7 717.708 166.06C712.288 175.57 705.578 184.17 698.648 192.6C695.118 196.9 691.377 200.99 687.847 205.25C686.987 206.28 686.127 207.66 686.037 208.91C685.777 211.84 685.907 214.8 685.997 217.77C686.037 219.96 686.298 222.16 686.258 224.31C686.218 231.06 685.997 237.86 685.997 244.61C685.997 249.82 686.258 255.02 686.258 260.23C686.298 267.46 686.258 274.68 686.258 281.91C686.258 297.01 686.297 312.11 686.297 327.21C686.297 331.99 686.168 336.72 686.128 341.49C686.088 344.42 686.128 347.38 686.128 350.87C688.538 348.37 690.517 346.57 692.237 344.55C697.057 338.91 701.878 333.28 706.568 327.47C709.448 323.9 712.288 320.24 714.698 316.37C717.708 311.47 720.158 306.22 723.128 301.31C725.408 297.48 725.878 293.87 724.078 289.65C721.708 284.14 721.147 278.21 721.407 272.23C721.577 268.66 722.917 265.73 726.057 263.93C727.647 262.98 728.377 261.78 728.597 259.89C729.367 253.01 732.337 247.11 737.247 242.3C742.707 236.92 748.607 232.02 755.787 228.92C758.367 227.8 761.037 226.77 763.787 226.25C769.247 225.26 774.627 225.52 779.407 229.95C781.687 228.27 783.927 226.81 785.987 225.13C788.487 223.02 790.887 221.26 794.247 223.37C794.717 223.67 795.538 223.41 796.138 223.63C797.468 224.1 798.977 224.4 799.967 225.31C803.067 228.19 806.248 231.12 808.828 234.43C813.728 240.75 817.647 247.72 820.747 255.08C821.827 257.7 822.808 260.37 823.628 263.08C825.048 267.77 826.727 272.42 827.537 277.23C828.187 281.1 828.098 285.23 827.708 289.15C827.368 292.81 825.858 296.16 822.028 297.67C820.008 298.49 817.988 299.48 815.878 299.91C810.628 301.03 805.298 301.89 800.008 302.92C798.678 303.18 797.388 303.74 796.138 304.12C795.748 307.6 795.407 310.74 792.607 312.72C790.927 313.88 790.368 315.22 790.628 317.28C791.828 327.22 792.777 337.15 793.987 347.09C795.447 359.14 797.298 371.14 801.088 382.75C803.668 390.62 806.038 398.54 808.528 406.41C808.868 407.49 809.478 408.43 810.208 409.98C814.378 406.24 818.677 403.14 822.037 399.23C829.527 390.45 837.478 382.07 844.318 372.73C849.218 366.02 854.517 359.61 859.677 353.11C861.917 350.31 864.628 347.86 866.648 344.94C870.648 339.18 873.877 332.94 876.847 326.57C877.317 325.58 877.707 324.29 877.407 323.34C875.897 318.18 874.308 313.02 872.458 307.98C870.398 302.39 867.938 296.92 865.578 291.12C863.518 290.73 861.237 290.35 858.997 289.83C854.217 288.71 849.447 287.51 845.747 283.98C840.887 279.29 838.868 273.57 842.088 267.33C842.778 266 843.337 265.01 845.097 264.88C846.557 264.75 847.938 263.89 849.318 263.37C851.298 262.6 852.757 260.36 852.677 258.16C852.587 255.84 852.078 255.32 849.068 254.55C848.678 254.46 848.298 254.42 847.948 254.29C844.678 253.26 843.727 251.32 844.977 248.1C845.197 247.5 845.367 246.85 845.797 246.42C848.807 243.24 847.558 240.78 845.278 237.6C841.798 232.87 843.857 227.66 849.407 226.72C854.567 225.82 858.307 222.98 861.367 219.15C863.987 215.84 866.187 212.18 868.547 208.65C872.587 202.58 877.067 196.95 883.857 193.81C885.277 193.16 885.577 192.05 885.917 190.8C886.907 187.23 888.667 184.35 891.857 182.15C894.477 180.3 897.367 179.53 900.247 178.41C908.767 175.1 917.068 175.66 925.458 178.93C935.658 182.89 943.997 189.68 951.917 196.87C959.057 203.37 963.917 211.71 968.217 220.27C972.647 229.09 975.148 238.51 974.588 248.58C974.498 249.83 974.717 251.08 974.807 252.24C980.567 254.26 986.858 253.14 992.018 257.36L991.997 257.35ZM461.707 405.33C457.487 402.23 453.407 399.57 449.707 396.43C445.617 392.9 441.967 388.94 438.087 385.16C430.557 377.85 425.057 369.03 419.717 360.12C417.527 356.46 416.057 352.33 413.957 348.59C409.057 339.94 405.958 330.57 402.258 321.45C397.568 309.92 393.098 298.31 388.448 286.78C387.198 283.73 385.698 280.8 384.228 277.66C379.238 279.68 374.547 281.57 370.207 283.3C370.857 286.83 371.198 290.27 372.098 293.54C373.178 297.58 374.717 301.5 376.057 305.5C380.747 319.44 382.988 333.89 385.568 348.3C387.118 356.82 388.577 365.38 390.087 373.94C390.427 375.96 389.828 377.12 388.198 377.6C386.948 377.94 385.228 376.91 384.758 375.28C384.158 373.17 383.807 371.02 383.247 368.91C382.947 367.79 382.727 366.46 381.957 365.77C380.147 364.18 378.128 362.89 376.068 361.6C371.808 358.98 367.507 356.39 363.207 353.81C357.567 350.41 352.068 346.84 346.348 343.7C338.348 339.31 330.167 335.18 321.527 332.17C319.847 331.57 318.348 330.36 316.668 329.8C312.408 328.42 308.067 327.22 303.717 326.1C297.527 324.55 291.287 323.22 284.957 321.76C281.647 330.02 276.867 336.77 271.617 343.14C265.167 350.93 266.197 349.25 259.527 344.39C257.767 343.1 256.478 340.65 253.418 341.03C254.318 343.31 255.007 345.37 255.957 347.35C256.907 349.33 257.418 351.48 258.198 353.5C260.648 359.95 262.288 366.71 264.138 373.37C265.038 376.68 265.558 380.08 266.378 383.39C268.318 391.05 270.337 398.66 272.267 406.32C272.957 409.07 273.558 411.83 274.158 414.58C274.718 417.2 275.487 419.83 275.617 422.5C275.747 425.25 277.427 427.53 277.337 430.42C277.247 433.04 277.987 435.71 278.457 438.34C280.137 447.85 281.897 457.35 283.487 466.86C284.137 470.65 284.308 474.47 284.818 478.26C285.468 483.12 286.327 487.94 286.967 492.76C287.097 493.62 286.497 494.57 286.107 496.03H344.527C344.527 493.66 344.617 491.73 344.527 489.79C344.307 484.24 344.228 478.69 343.668 473.18C342.808 464.19 340.917 455.37 338.767 446.59C337.007 439.53 335.287 432.44 333.517 425.38C332.527 421.51 331.368 417.68 330.418 413.81C329.948 411.92 328.477 410.41 328.867 408C329.087 406.58 327.317 404.95 326.677 403.31C323.667 395.39 320.697 387.48 317.777 379.52C316.877 377.11 316.187 374.62 315.497 372.16C315.067 370.57 315.798 369.41 317.348 368.8C318.938 368.15 319.718 369.1 320.318 370.39C321.048 372.02 322.038 373.57 322.638 375.25C324.148 379.38 325.477 383.55 326.938 387.68C329.557 395.21 332.747 402.61 334.767 410.26C336.317 416.28 339.928 418.43 345.478 419.08C347.238 419.3 349.008 419.81 350.728 420.37C360.148 423.47 369.487 426.91 378.987 429.75C385.867 431.81 393.007 433.06 400.027 434.78C407.557 436.63 415.168 437.71 422.918 437.19C433.548 436.5 442.967 432.93 450.497 425.27C455.957 419.68 460.268 413.35 461.728 405.31L461.707 405.33ZM247.857 342.7C247.087 344.16 246.437 344.94 246.307 345.75C245.707 349.75 245.187 353.79 244.717 357.8C244.197 362.14 242.658 363.22 238.478 361.97C236.628 361.41 234.817 360.64 232.967 360.12C228.497 358.92 223.887 358.06 219.507 356.64C206.647 352.42 193.778 348.12 181.048 343.56C178.078 342.48 176.098 343 174.208 345.15C170.978 348.81 167.667 352.33 164.617 356.12C161.347 360.12 157.738 364.04 155.408 368.6C153.168 372.99 149.648 376.52 147.878 381.2C146.288 385.46 143.447 389.24 141.507 393.42C138.837 399.14 136.347 404.95 134.147 410.89C131.307 418.5 128.598 426.16 126.188 433.91C124.508 439.29 123.087 444.75 122.147 450.39C120.817 458.22 119.608 466.09 118.878 474.01C118.228 481.15 117.978 488.29 117.458 496.08C130.148 496.08 142.237 496.3 154.277 496.08C166.447 495.86 178.668 496.73 190.798 496.04C191.488 488.08 191.997 480.68 192.777 473.33C194.067 460.85 196.948 448.81 202.548 437.54C203.748 435.09 205.127 432.51 207.927 431.39C210.977 433.97 211.157 434.14 209.217 436.72C205.737 441.32 204.437 446.87 203.027 452.16C201.007 459.77 199.887 467.69 198.557 475.48C197.957 479.14 197.657 482.88 197.397 486.62C197.227 489.63 197.357 492.69 197.357 495.83C198.477 495.96 199.247 496.13 199.977 496.13C211.417 496.17 222.817 496.22 234.267 496.26C238.007 496.26 241.758 496.65 245.448 496.35C249.058 496.05 252.588 496.78 256.288 496.44C263.898 495.71 271.647 496.18 279.307 496.1C280.257 496.1 281.248 495.84 281.978 495.76C281.158 491.85 280.297 488.27 279.737 484.66C277.717 471.45 275.778 458.2 273.888 444.95C272.038 432 269.107 419.31 266.017 406.62C263.607 396.68 261.888 386.57 259.008 376.76C256.728 368.97 254.708 361.14 252.258 353.4C251.268 349.83 249.547 346.65 247.867 342.73L247.857 342.7ZM992.128 496.83V468.05C992.128 465.38 992.167 462.67 992.217 460.01C992.347 450.76 992.608 441.47 992.648 432.22C992.648 420.39 992.478 408.56 992.388 396.73C992.388 394.92 992.778 393.16 992.688 391.35C992.468 386.92 991.567 383 988.597 379.13C983.007 371.86 977.457 364.68 969.497 359.86C963.607 356.25 957.107 354.74 950.177 355.73C942.867 356.72 936.888 360.46 931.338 365.07C921.878 372.94 914.857 382.79 908.967 393.46C907.677 395.83 906.468 398.24 905.268 400.64C902.898 405.37 900.408 410.06 898.208 414.88C896.528 418.58 895.707 422.75 893.737 426.28C890.127 432.86 888.317 440.09 886.037 447.1C883.497 454.89 881.818 462.93 879.758 470.85C878.558 475.45 877.218 480.01 876.148 484.66C875.288 488.49 874.818 492.36 874.128 496.4C876.408 496.74 878.298 497.26 880.148 497.26C885.908 497.26 891.717 497.04 897.487 497.04C898.567 497.04 900.067 498.16 900.667 497.73C902.777 496.22 904.968 497.17 907.078 497.08C913.618 496.82 920.158 496.78 926.698 496.82C928.848 496.82 930.998 497.42 933.148 497.38C938.438 497.25 943.687 496.65 948.977 496.65C960.337 496.61 971.648 496.82 983.008 496.91C985.978 496.87 988.898 496.82 992.128 496.82V496.83ZM686.477 496.58C691.637 496.92 696.587 497.66 701.487 497.4C706.387 497.14 711.167 497.06 716.117 497.49C720.807 497.92 725.578 496.97 730.318 496.8C735.268 496.63 740.337 496.11 745.157 496.89C750.237 497.71 755.138 496.63 760.128 496.89C765.028 497.11 769.978 496.72 775.528 496.59C772.988 492.63 770.707 489.41 768.688 485.96C763.608 477.14 759.307 467.98 756.557 458.13C754.577 450.86 752.087 443.76 750.367 436.41C748.557 428.71 747.528 420.79 746.028 413.01C743.408 399.37 743.057 385.56 742.497 371.8C742.237 364.7 742.197 357.65 742.157 350.55C742.157 344.87 742.377 339.24 742.417 333.56C742.457 326.94 742.417 320.31 742.417 313.99C738.197 310.03 734.027 306.16 729.727 302.12C725.687 310.85 719.877 318.3 714.847 326.21C711.277 331.8 706.677 336.79 702.367 341.91C698.367 346.6 694.108 351.07 690.018 355.68C687.998 357.96 685.887 360.02 685.977 363.64C686.197 372.16 686.018 380.72 686.018 389.28C686.018 396.21 686.017 403.09 686.057 410.02C686.057 417.68 686.097 425.38 686.057 433.04C686.057 437.47 685.838 441.94 685.888 446.38C685.888 451.71 686.107 457.01 686.107 462.34C686.147 472.49 686.197 482.6 686.237 492.75C686.277 493.95 686.407 495.25 686.497 496.62L686.477 496.58ZM685.958 7.67001C685.958 9.56001 685.998 10.94 685.958 12.32C685.868 15.07 685.397 17.87 685.737 20.54C686.127 23.42 685.437 26.22 685.737 29.1C686.207 33.49 685.867 38 685.867 42.44C685.867 48.81 685.738 55.17 685.778 61.5C685.818 66.66 686.168 71.87 686.208 77.03C686.248 81.59 685.947 86.15 685.907 90.71C685.867 94.62 686.037 98.58 685.997 102.5C685.957 112.57 685.827 122.68 685.737 132.74C685.737 135.11 685.697 137.52 685.737 139.88C685.827 144.74 686.038 149.6 686.078 154.46C686.118 158.63 685.948 162.81 685.948 166.98C685.948 174.81 685.907 182.68 685.987 190.51C686.027 192.79 685.597 195.2 687.107 197.69C688.397 196.14 689.558 194.98 690.378 193.6C691.238 192.14 692.748 191.32 693.688 189.86C696.697 185.34 700.187 181.13 703.367 176.7C707.197 171.37 711.327 166.16 714.547 160.48C718.767 153.08 723.197 145.85 726.717 138.07C729.597 131.7 732.787 125.51 735.747 119.23C737.467 115.66 739.188 112.05 740.698 108.39C742.548 103.96 744.267 99.44 745.907 94.93C747.887 89.42 749.778 83.87 751.588 78.32C753.568 72.25 755.377 66.1 757.307 59.99C758.507 56.25 760.148 52.63 761.008 48.85C762.338 42.91 763.287 36.89 764.237 30.87C765.437 23.26 766.477 15.64 767.677 7.42001C741.567 7.38001 715.758 7.29 689.948 7.25C688.748 7.25 687.498 7.50999 685.948 7.67999L685.958 7.67001ZM991.528 197.25C991.868 197.08 992.218 196.91 992.518 196.73C991.398 192.34 992.688 188.04 992.518 183.65C992.178 175.39 992.427 167.09 992.427 158.83C992.427 157.32 992.258 155.86 992.258 154.36C992.218 149.37 992.258 144.42 992.258 139.43C992.258 131.34 992.167 123.25 992.217 115.21C992.257 109.06 992.518 102.95 992.518 96.8C992.518 90.65 992.297 84.8 992.297 78.82C992.297 74.26 992.597 69.74 992.557 65.18C992.517 53.78 992.338 42.38 992.258 30.98C992.218 28.36 992.258 25.69 992.258 23.06C992.258 20.65 992.217 18.24 992.217 15.83V7.13998C986.327 7.13998 980.908 7.36001 975.568 7.10001C970.238 6.80001 964.938 7.74999 959.568 7.39999C954.318 7.05999 949.028 7.14001 943.778 7.10001C938.448 7.06001 933.067 6.75998 927.727 7.13998C922.437 7.52998 917.018 6.41 911.508 7.91C913.318 18.92 915.038 29.68 916.838 40.43C917.398 43.66 917.997 46.88 918.857 50.07C920.147 54.76 921.568 59.36 923.078 63.97C925.658 71.89 928.287 79.8 931.037 87.63C933.577 94.86 936.157 102.04 938.997 109.14C940.847 113.79 943.387 118.13 945.367 122.73C949.667 132.62 954.528 142.26 959.778 151.64C961.968 155.55 964.078 159.51 966.578 163.26C970.188 168.72 974.068 174.06 977.938 179.31C982.457 185.38 987.058 191.27 991.528 197.25ZM786.028 333.45C773.378 335.47 761.118 336.16 748.688 334.14C748.558 335.3 748.427 335.9 748.427 336.55C748.387 344.25 748.167 351.91 748.297 359.61C748.517 369.59 748.728 379.61 749.458 389.55C749.978 397.12 751.348 404.61 752.128 412.13C753.078 421.42 755.228 430.46 757.208 439.49C758.108 443.58 758.838 447.75 760.138 451.71C761.948 457.26 763.968 462.77 766.378 468.1C768.488 472.79 771.068 477.22 773.648 481.69C776.148 486.03 778.897 490.25 781.607 494.47C782.637 496.06 784.018 496.88 786.128 496.84C790.988 496.71 795.898 496.88 800.758 496.88C808.248 496.88 815.727 496.79 823.217 496.92C827.437 496.96 827.478 497.14 827.778 492.88C827.818 492.11 827.817 491.33 827.867 490.6C828.207 484.71 828.127 478.73 828.987 472.92C830.667 461.52 832.858 450.25 834.838 438.89C835.058 437.64 835.568 436.39 835.828 435.15C837.548 427.41 838.877 419.53 841.037 411.92C844.567 399.57 848.268 387.23 853.388 375.4C854.288 373.38 854.978 371.23 855.758 369.12C842.078 385.34 828.957 401.81 812.907 415.32C813.167 416.78 813.598 417.77 813.508 418.76C813.288 421.51 810.928 422.55 808.818 420.78C807.868 420.01 807.137 418.8 806.667 417.64C805.077 413.85 803.738 410.03 802.148 406.24C798.408 397.16 795.828 387.74 793.458 378.23C792.078 372.77 791.047 367.17 790.057 361.62C789.027 355.81 788.298 349.92 787.438 344.07C787.007 340.71 786.577 337.32 786.057 333.44L786.028 333.45ZM1024.78 502.94C1023.92 502.85 1023.32 502.72 1022.72 502.72C1012.91 502.76 1003.06 502.89 993.247 502.89C985.377 502.89 977.508 502.67 969.628 502.63C965.158 502.59 960.678 502.85 956.208 502.85C947.818 502.81 939.427 502.59 931.037 502.59C924.627 502.59 918.218 502.81 911.768 502.81C906.258 502.81 900.797 502.59 895.287 502.59C886.507 502.59 877.738 502.76 868.958 502.81C856.138 502.9 843.357 502.98 830.537 502.94C819.787 502.94 809.068 502.77 798.318 502.64C791.048 502.55 783.737 502.47 776.467 502.47C768.727 502.43 761.028 502.47 753.278 502.43C749.108 502.43 744.928 502.21 740.758 502.26C736.418 502.3 732.108 502.73 727.768 502.78C722.558 502.82 717.357 502.52 712.107 502.52C703.327 502.56 694.558 502.86 685.778 502.82C677.128 502.82 668.488 502.52 659.878 502.43C657.858 502.39 655.837 502.65 653.557 502.82V525.36H661.128C668.188 525.32 675.238 525.32 682.338 525.19C688.528 525.06 694.727 525.62 700.917 525.49C703.627 525.45 706.507 526.35 709.047 525.75C713.307 524.76 717.477 526.05 721.737 525.58C729.047 524.72 736.537 525.28 743.938 525.24C744.928 525.24 745.958 525.15 746.948 525.24C748.838 525.37 750.738 525.71 752.588 525.67C756.198 525.58 759.817 525.07 763.427 525.02C768.977 524.98 774.487 525.19 780.037 525.28C782.487 525.32 784.938 525.15 787.398 525.15C792.048 525.19 796.647 525.32 801.297 525.32C806.937 525.32 812.568 525.1 818.208 525.1C822.078 525.1 825.948 525.36 829.828 525.36C835.978 525.36 842.128 525.19 848.328 525.19C853.878 525.19 859.387 525.28 864.938 525.32C871.387 525.36 877.847 525.36 884.297 525.45C887.177 525.49 890.058 525.92 892.898 525.62C897.288 525.15 901.587 525.84 905.977 525.53C910.837 525.19 915.788 525.92 920.648 525.57C924.608 525.27 928.478 524.41 932.388 525.91C933.038 526.17 933.938 525.91 934.708 525.87C938.798 525.57 942.928 525.01 947.008 525.01C957.208 524.97 967.357 525.27 977.547 525.27C983.697 525.27 989.847 524.93 995.997 524.97C1003.23 525.01 1010.45 525.31 1017.68 525.4C1019.96 525.44 1022.24 525.06 1024.82 524.84C1024.78 517.44 1024.78 510.43 1024.78 502.94ZM377.177 502.3C376.317 502.17 375.587 502 374.857 502C365.177 502.04 355.457 502.17 345.777 502.13C338.677 502.09 331.577 501.74 324.438 501.7C319.188 501.66 313.938 502.04 308.698 502.04C298.248 502.04 287.838 501.91 277.378 501.91C270.708 501.87 264.088 501.95 257.418 501.91C246.968 501.91 236.508 501.78 226.098 501.82C211.338 501.86 196.628 502.12 181.878 502.08C164.368 501.99 146.858 501.65 129.348 501.52C120.998 501.48 112.618 501.65 104.268 501.74C96.3975 501.83 88.5675 501.96 80.6975 501.96C75.3675 501.96 69.9875 501.62 64.6475 501.66C55.6175 501.7 46.5775 502 37.5475 502C29.2875 502 21.0275 501.74 12.8075 501.61C10.6575 501.57 8.5075 501.83 6.0075 501.95V524.49H13.3175C20.3775 524.45 27.4275 524.53 34.5275 524.36C40.7175 524.19 46.9175 524.75 53.1075 524.66C55.8175 524.62 58.7475 525.65 61.2375 524.96C65.5375 523.8 69.6675 525.26 73.9675 524.7C81.1475 523.75 88.5075 524.36 95.7775 524.31C97.0275 524.31 98.3175 524.31 99.5675 524.4C101.197 524.53 102.877 525.05 104.427 524.83C115.867 523.32 127.357 524.7 138.837 524.27C146.537 523.97 154.238 524.4 161.938 524.36C172.608 524.32 183.277 524.1 193.947 524.06C200.357 524.06 206.807 523.97 213.217 524.36C219.717 524.75 226.248 523.33 232.658 525.05C232.878 525.09 233.177 524.96 233.427 524.92C236.307 524.75 239.187 524.53 242.117 524.49C247.067 524.4 252.007 524.62 256.997 524.45C264.827 524.19 272.657 524.41 280.487 524.11C281.257 524.07 282.117 524.07 282.767 524.37C284.487 525.27 286.208 524.84 287.978 524.71C293.008 524.37 297.998 523.98 303.038 523.98C310.778 523.98 318.478 524.45 326.228 524.45C335.478 524.45 344.728 524.15 353.978 524.11C359.138 524.11 364.297 524.41 369.467 524.45C372.007 524.45 374.497 524.06 377.207 523.85C377.167 516.45 377.168 509.48 377.168 502.3H377.177ZM252.888 221.08C250.268 222.28 248.068 223.7 245.658 224.39C240.108 226.02 234.518 227.49 228.878 228.73C223.458 229.93 217.817 230.32 212.527 231.87C206.637 233.55 202.117 237.25 200.397 243.57C198.847 249.21 200.227 254.32 202.938 259.19C204.878 262.67 205.687 266.37 205.557 270.33C205.517 271.71 205.427 273.08 203.577 273.69C201.767 274.29 200.527 273.6 199.447 272.53C197.817 270.94 196.398 269.13 194.848 267.45C192.268 264.7 188.867 263.41 185.337 262.63C182.967 262.11 181.338 263.36 181.378 265.6C181.418 271.15 184.517 279.15 191.697 278.98C193.327 278.94 194.068 279.8 194.708 280.96C196.818 284.83 195.868 293.78 192.768 297.05C190.268 299.67 190.708 302.3 191.738 305.18C192.768 308.06 193.717 310.94 193.497 314.08C193.407 315.46 193.668 316.83 193.798 317.99C195.388 318.55 196.597 318.98 197.837 319.41C203.217 321.13 208.547 322.94 213.967 324.53C224.117 327.5 234.267 330.34 244.767 331.71C246.787 331.97 249.158 332.27 250.878 331.45C252.338 330.76 253.158 328.52 254.188 326.98C254.837 326.03 255.217 324.83 255.997 324.01C257.377 322.63 257.287 321.13 256.857 319.45C256.127 316.35 255.527 313.21 254.797 310.11C254.537 309.08 253.898 308.09 253.378 307.01C251.138 307.91 249.287 308.77 247.307 309.38C244.727 310.2 242.098 310.93 239.438 311.49C237.977 311.79 236.688 311.4 236.258 309.51C235.828 307.66 236.647 306.54 238.017 305.64C238.407 305.38 239.047 305.51 239.527 305.34C243.187 304.09 247.057 303.23 250.457 301.51C257.897 297.72 264.308 292.48 269.038 285.55C271.538 281.94 273.338 277.81 272.138 273.2C271.058 269.11 269.858 265.07 268.228 261.2C265.858 255.52 263.017 250.06 260.397 244.51C259.367 242.27 258.288 240.04 257.598 237.71C255.878 232.42 254.457 227.04 252.867 221.06L252.888 221.08ZM867.888 496.75C868.358 494.13 868.707 491.85 869.217 489.61C871.587 479.84 874.037 470.04 876.487 460.27C877.347 456.83 878.208 453.43 879.588 450.07C881.008 446.54 881.437 442.58 883.117 439.01C883.977 437.12 884.198 434.92 884.838 432.94C886.298 428.55 887.548 424.08 889.568 419.95C890.898 417.24 891.807 414.4 893.177 411.73C896.107 406.01 898.687 400.11 901.477 394.35C902.037 393.23 903.068 392.33 903.588 391.17C906.128 385.36 909.868 380.29 913.698 375.25C916.628 371.46 919.767 367.85 923.037 363.85C915.857 361.14 909.397 357.96 903.807 353.14C902.727 353.79 901.828 354.26 901.008 354.82C897.218 357.36 893.008 358.22 888.528 358.3C884.228 358.39 879.447 355.76 878.977 350.17C878.677 346.51 879.018 342.81 879.018 339.16C879.018 338.39 878.758 337.61 878.628 336.79C877.548 337.44 876.998 338.17 876.778 338.94C876.008 341.99 874.497 344.62 872.607 347.11C871.957 347.93 871.278 348.74 870.888 349.69C867.958 356.14 864.947 362.55 862.287 369.09C859.537 375.76 857.128 382.6 854.628 389.35C852.308 395.63 849.637 401.78 848.177 408.36C846.667 415.11 844.648 421.78 843.148 428.54C841.898 434.13 840.608 439.72 839.448 445.32C838.628 449.28 837.427 453.28 837.037 457.24C836.267 465.2 834.107 472.94 834.157 480.99C834.197 485.42 833.688 489.85 833.508 494.28C833.468 495.1 833.977 495.91 834.237 496.69C845.377 496.73 856.308 496.73 867.878 496.73L867.888 496.75ZM871.797 291.76C873.087 295.03 874.037 297.65 875.157 300.23C878.817 308.58 882.337 316.96 883.977 326C884.627 329.53 885.398 333.06 885.958 336.63C886.088 337.45 885.918 338.44 885.528 339.13C883.938 341.84 883.978 344.77 884.198 347.69C884.458 351.26 886.778 353.07 890.268 352.38C893.018 351.82 895.687 350.79 898.357 349.84C900.167 349.19 899.948 347.95 899.388 346.4C898.228 343 896.887 339.56 896.287 336.03C895.087 329.02 895.168 321.96 897.148 314.99C898.958 308.67 901.538 302.9 907.388 299.25C907.778 298.99 908.078 298.52 908.338 298.26C906.748 290.09 906.097 282.13 910.057 273.91C906.697 274.94 905.027 273.91 904.467 270.73C906.577 269.61 908.768 268.32 911.088 267.29C916.728 264.71 920.377 258.9 920.167 252.79C920.037 249.86 918.657 247.67 915.907 247.11C912.807 246.51 909.588 245.78 906.528 247.71C905.368 248.44 903.907 248.79 902.657 249.26C898.697 247.2 898.437 246.55 899.987 242.68C900.027 242.55 900.077 242.42 900.117 242.29C901.367 238.68 902.827 235.15 903.727 231.45C904.457 228.4 905.488 225.17 903.818 221.99C901.148 216.96 897.877 212.44 893.107 209.26C891.047 207.88 889.198 206.42 888.028 204.18C887.298 202.76 886.517 201.38 885.747 199.92C881.957 201.73 878.908 204.09 876.628 207.28C873.578 211.54 870.777 215.97 867.807 220.27C866.427 222.25 865.098 224.49 863.208 225.91C859.768 228.49 856.277 231.29 851.717 231.93C850.897 232.06 850.207 232.66 849.097 233.22C850.517 235.41 851.548 237.61 853.138 239.16C854.468 240.49 854.297 241.44 853.607 242.82C852.487 244.97 851.497 247.21 850.427 249.57C852.667 250.39 854.987 250.22 856.407 252.41C860.107 258.05 857.997 265.62 851.807 268.28C850.177 269.01 848.497 269.66 846.987 270.3C845.957 275.2 848.747 280.28 853.177 281.92C860.577 284.63 868.188 285.75 876.018 285.19C878.988 284.97 881.957 284.67 884.917 284.54C887.417 284.41 888.318 285.14 888.578 286.99C888.798 288.54 887.678 289.96 885.648 290.43C884.528 290.69 883.327 290.73 882.167 290.82C878.807 291.12 875.497 291.42 871.797 291.77V291.76ZM195.848 259.24C195.378 257.99 195.028 257.05 194.688 256.1C192.108 248.31 193.177 240.91 198.167 234.5C203.197 228.05 210.428 225.29 218.348 224.22C227.428 223.02 236.458 221.72 244.978 218.03C249.968 215.88 254.188 212.82 256.848 207.92C258.438 204.99 258.867 201.81 257.617 198.93C254.387 191.49 248.498 186.71 240.628 185.03C232.668 183.31 225.187 185.59 218.557 190.06C211.157 195.05 203.157 198.23 194.557 200.26C187.327 201.98 180.147 203.7 173.777 208.18C165.817 213.77 161.818 221.09 162.208 230.72C162.338 234.46 162.767 238.21 163.327 241.9C164.317 248.31 162.637 254.03 159.587 259.62C158.727 261.17 158.297 263.32 158.507 265.08C159.367 272.44 163.587 277.25 170.467 279.79C171.417 280.13 172.657 280.31 173.307 280.95C176.617 284.48 181.438 286.41 183.938 290.84C184.757 292.3 185.918 293.55 186.988 294.97C191.118 291.87 189.788 288.56 189.738 285.94C186.988 284.31 184.227 283.36 182.467 281.51C178.637 277.51 175.968 272.82 175.238 267.06C174.548 261.51 178.378 255.62 185.348 256.65C188.658 257.17 191.968 258.28 195.848 259.23V259.24ZM134.378 7.28V108.68C132.358 108.81 130.808 108.98 129.298 108.98C120.518 108.98 111.747 108.89 102.967 108.89C83.0975 108.89 63.1775 108.98 43.2975 109.02C41.7875 109.02 40.2475 109.41 38.7775 109.58V115.99C140.818 115.56 242.428 115.09 344.168 114.66C344.728 112.21 345.458 110.01 344.168 107.91C338.358 107.82 332.727 107.65 327.087 107.69C315.347 107.73 303.597 107.82 291.857 107.95C278.827 108.08 265.788 108.21 252.758 108.29C251.768 108.29 250.817 107.9 249.747 107.64V100.15C249.787 90.81 249.878 81.44 249.878 72.1C249.878 61.09 249.747 50.07 249.747 39.06C249.747 30.63 249.877 22.2 249.837 13.76C249.837 11.39 249.447 8.98001 249.237 6.32001C246.827 6.66001 245.017 6.96999 243.087 7.26999V18.02C243.047 28.86 243.047 39.7 242.997 50.54C242.997 58.11 242.908 65.64 242.908 73.21C242.908 83.49 242.868 93.73 242.948 104.01C242.948 107.8 241.997 108.87 238.297 108.7C235.847 108.57 233.437 108.31 230.987 108.31C221.697 108.27 212.358 108.27 203.068 108.27C198.208 108.27 193.348 108.4 188.488 108.4C183.968 108.4 179.497 108.31 174.977 108.36C166.627 108.45 158.247 108.66 149.897 108.75C147.097 108.79 144.347 108.53 141.247 108.41V69.18C141.247 59.54 141.208 49.86 141.158 40.23C141.158 36.27 141.247 32.31 141.197 28.36C141.107 22.04 141.107 15.76 140.857 9.42999C140.727 6.62999 140.168 6.38 137.458 6.72C136.598 6.85 135.737 7.02 134.357 7.28H134.378ZM388.827 274.38C389.687 275.76 390.378 276.7 390.848 277.74C393.168 283.03 395.497 288.32 397.688 293.66C400.868 301.36 403.967 309.1 407.027 316.85C409.137 322.23 410.938 327.73 413.098 333.07C416.028 340.25 419.077 347.44 423.117 354.11C425.357 357.81 427.977 361.29 429.997 365.12C432.447 369.72 436.107 373.38 439.247 377.38C442.687 381.77 446.987 385.47 450.987 389.38C454.257 392.61 457.828 395.49 462.258 397.6C462.518 396.18 462.988 395.06 462.948 393.94C462.518 385.34 461.567 376.73 459.207 368.43C457.017 360.73 454.818 352.99 450.948 345.85C448.888 342.02 447.547 337.76 445.487 333.89C439.977 323.69 434.347 313.54 428.497 303.56C424.457 296.72 419.978 290.14 415.638 283.47C413.098 279.6 410.607 275.73 407.897 271.98C405.747 269.01 403.377 266.22 401.017 263.25C396.717 267.16 392.848 270.69 388.848 274.39L388.827 274.38ZM331.448 278.86C333.338 278.77 334.248 278.09 334.288 276.19C334.328 275.33 334.937 274.08 335.617 273.78C336.217 273.52 337.598 274.17 338.068 274.81C338.968 275.97 339.957 276.06 341.117 275.76C342.107 275.5 343.007 275.03 343.957 274.64C344.127 272.96 344.517 271.28 345.587 270.64C347.477 269.48 347.868 272.1 348.948 272.7C350.708 272.79 351.357 271.93 351.747 270.46C352.217 268.83 353.337 268.35 355.057 269.17C357.857 270.55 359.657 269.94 361.467 267.41C362.117 266.46 362.978 265.69 363.318 265.26C364.008 262.33 364.567 259.93 365.077 257.77C363.877 256.82 362.237 256.18 361.897 255.15C361.127 252.74 364.177 252.91 365.077 251.58C364.087 247.19 364.857 242.5 361.677 238.46C359.007 241 356.558 243.36 354.068 245.73C355.018 248.14 354.928 249.04 353.638 249.64C352.088 250.33 351.138 249.55 350.198 247.49C347.618 245.81 345.808 244.65 343.698 243.32C341.578 244.093 339.801 243.377 338.367 241.17C336.777 241.6 335.097 241.82 334.707 243.92C334.447 245.38 333.328 245.77 332.038 245.38C330.748 244.99 329.978 243.96 330.448 242.71C331.138 240.99 330.318 239.74 329.628 238.37C328.858 236.95 328.167 235.44 327.307 233.72C325.587 235.18 324.077 236.52 322.487 237.85C321.367 238.8 320.117 239.1 319.087 237.76C318.097 236.51 316.898 236.25 315.348 236.13C314.528 236.09 313.497 235.31 313.027 234.54C312.377 233.55 312.937 232.65 313.927 231.92C315.437 230.8 315.777 229.51 313.967 227.83C313.147 229.46 312.377 231.01 311.517 232.73C309.107 232.6 306.698 232.47 304.158 232.34C303.988 233.11 304.068 233.93 303.728 234.32C303.128 235.01 302.268 235.61 301.408 235.95C301.018 236.08 299.897 235.48 299.897 235.13C299.807 234.18 299.937 233.15 300.367 232.29C300.707 231.6 301.568 231.13 302.128 230.61C301.478 228.93 300.968 227.56 300.448 226.18C298.468 225.893 297.004 225.02 296.057 223.56C293.777 223.22 291.798 222.83 289.818 222.66C289.258 222.62 288.657 223.31 288.057 223.65C288.447 224.08 288.788 224.68 289.258 224.94C289.818 225.2 290.547 225.11 291.147 225.33C292.267 225.67 293.128 226.49 292.568 227.61C291.408 230.06 292.397 231.74 293.987 233.46C294.717 234.28 295.017 235.52 295.497 236.6C296.877 236.82 298.677 235.91 299.457 238.02C300.277 240.3 298.128 240.73 296.918 241.76C297.948 245.98 298.937 250.11 299.927 254.11C301.817 254.24 303.887 253.51 304.267 255.96C304.737 258.97 301.818 258.11 300.098 259.1C302.038 260.61 302.768 262.07 301.258 264.18C300.098 265.81 300.697 267.11 302.677 268.14C304.737 269.17 304.827 271.24 303.107 272.4C302.587 272.74 301.947 272.87 301.647 272.96C301.427 274.59 301.687 276.27 300.997 277.22C299.877 278.73 299.917 280.23 299.747 281.82C300.177 282.12 300.437 282.47 300.777 282.55C302.457 283.02 303.148 284.18 302.758 285.78C302.368 287.41 301.128 287.46 299.658 287.07C299.268 286.98 298.707 287.67 297.717 288.4C300.687 289.26 302.618 289.05 304.388 287.32C305.158 286.55 306.448 285.43 307.138 285.64C311.048 286.84 313.807 284.22 317.207 283.06C316.947 282.2 316.647 281.51 316.517 280.78C316.297 279.45 316.817 278.24 318.147 278.2C318.877 278.16 319.778 279.06 320.388 279.75C320.818 280.27 320.908 281.08 321.158 281.69C323.268 281.13 325.068 280.61 326.918 280.14C326.058 277 326.267 275.62 327.777 275.19C330.787 274.63 330.318 277.38 331.388 278.85L331.448 278.86ZM381.258 357.71C380.138 351.34 379.277 345.49 378.027 339.77C375.877 329.88 373.557 320.02 371.057 310.22C369.077 302.39 366.717 294.65 364.557 286.86C364.217 285.66 363.398 284.15 363.788 283.2C364.818 280.79 363.487 278.98 362.837 276.96C362.317 275.33 361.248 275.11 359.788 275.58C358.198 276.05 356.607 276.61 354.967 277.04C350.877 278.03 350.628 278.2 350.628 282.5C350.588 295.53 350.628 308.57 350.628 321.65V338.73C360.828 344.97 370.628 351.08 381.258 357.7V357.71ZM322.367 229.73C325.207 227.28 327.358 224.65 328.948 221.56C329.598 220.31 330.457 219.15 331.057 217.9C332.087 215.75 333.937 216.35 335.397 216.74C336.167 216.96 336.907 218.37 337.077 219.32C337.297 220.52 336.947 221.82 336.737 223.06C336.217 226.2 335.537 229.3 335.057 232.44C334.967 233.17 335.527 233.99 336.047 235.62C338.157 232.22 341.167 230.59 342.237 227.19C343.057 224.61 345.118 223.49 347.228 223.96C348.818 224.3 349.678 226.07 349.508 228.69C349.378 230.84 349.117 232.99 349.077 235.1C349.037 236.73 349.207 238.41 350.967 239.75C353.807 237.3 356.517 234.8 359.397 232.52C362.447 230.07 365.467 230.58 366.837 234.11C368.467 238.28 369.847 242.63 370.747 246.97C371.267 249.34 372.207 250.88 374.147 252.18C376.387 253.64 378.448 255.23 379.788 257.73C381.728 261.26 384.007 264.61 386.367 268.36C390.277 265.56 393.427 262.17 396.647 258.59C395.317 256.96 394.237 255.54 393.077 254.2C389.767 250.46 386.757 246.24 382.927 243.14C378.667 239.74 375.188 235.74 371.568 231.78C367.438 227.22 363.398 222.49 358.658 218.57C354.008 214.7 349.148 211 343.388 208.5C337.578 206 331.728 204.28 325.448 204.33C314.438 204.42 306.348 211.6 306.388 224.12C306.388 224.77 306.777 225.45 307.077 226.27C309.527 225.02 310.647 222.96 312.027 221.15C313.317 219.39 314.477 217.49 315.938 215.86C318.088 213.49 321.097 214.31 321.747 217.41C322.007 218.74 321.617 220.21 321.707 221.58C321.797 224.2 320.027 226.91 322.357 229.71L322.367 229.73ZM295.008 268.06C295.008 266.12 295.177 264.19 294.967 262.3C294.017 254.21 292.217 246.3 289.247 238.68C287.437 233.99 285.158 229.52 281.638 225.9C280.008 224.22 277.938 222.24 275.228 223.32C272.948 224.22 270.967 225.77 270.147 228.31C269.587 230.03 269.068 231.75 268.598 233.47C267.268 238.25 266.707 243.15 268.427 247.84C270.317 252.96 272.897 257.86 274.927 262.94C277.297 268.92 279.317 274.94 277.077 281.52C276.817 282.29 276.857 283.37 277.207 284.1C277.897 285.61 278.627 287.2 279.707 288.4C281.167 289.99 282.848 291.45 284.698 292.62C286.158 293.52 290.547 290.9 291.577 288.79C294.847 282.21 295.277 275.2 295.017 268.06H295.008ZM788.388 238.94C788.518 241.35 788.217 243.93 788.907 246.12C790.667 251.58 792.007 257.13 794.497 262.42C798.927 271.84 803.398 281.09 811.018 288.49C812.958 290.34 815.018 291.67 817.388 292.62C819.538 293.48 821.607 292.28 821.907 290.04C822.247 287.42 822.338 284.71 822.378 282.04C822.418 276.79 820.828 271.89 819.148 267.03C817.258 261.61 815.238 256.15 812.648 250.98C810.328 246.33 807.397 241.9 804.297 237.73C801.717 234.25 798.658 231.11 794.878 228.83C791.478 226.81 789.628 227.32 788.638 231.24C788.078 233.78 788.338 236.4 788.208 238.94H788.388ZM187.938 321.75C184.967 326.87 182.297 331.47 179.467 336.42C182.647 337.84 185.317 339.35 188.197 340.29C195.037 342.53 201.967 344.51 208.807 346.61C214.567 348.42 220.297 350.31 226.057 352.07C230.097 353.27 234.188 354.35 238.658 355.55C239.518 349.27 242.137 343.81 241.837 337.57C223.467 333.91 205.528 329.48 187.938 321.74V321.75ZM776.128 308.5C774.148 308.76 772.128 308.97 770.148 309.36C768.258 309.75 766.408 310.39 764.508 310.78C760.338 311.68 756.158 312.46 752.028 313.32C750.518 313.66 748.718 314.01 748.758 316.03C748.798 320.16 749.057 324.33 749.227 328.81C761.577 330.06 773.488 331.13 785.188 327.3V316.07C781.828 313.92 777.017 314.13 776.107 308.5H776.128ZM735.047 262.25C735.607 262.03 735.998 261.99 736.338 261.78C738.918 260.32 740.247 257.82 741.797 255.46C743.947 252.15 746.228 252.19 748.338 255.55C748.468 255.77 748.728 255.85 749.328 256.32C749.978 255.85 750.958 255.42 751.438 254.69C752.727 252.67 754.057 250.56 754.967 248.32C755.917 245.95 757.338 244.84 759.828 245.01C761.028 246.04 762.278 247.07 763.958 248.49C764.908 246.6 765.938 245.22 766.278 243.67C766.708 241.61 767.737 240.19 769.547 238.81C770.877 239.2 772.348 239.58 773.768 239.97C776.088 236.31 775.617 234.55 771.917 232.66C768.517 230.94 765.078 232.06 761.768 232.57C757.768 233.22 754.758 236.01 751.448 238.03C744.908 242.07 739.788 247.62 736.008 254.29C734.678 256.57 733.507 259.32 735.057 262.25H735.047ZM264.638 316.28C264.298 316.88 263.778 317.4 263.688 317.96C262.827 322.78 257.967 325.79 257.927 330.99C257.927 331.29 257.627 331.72 257.327 331.94C255.647 333.27 256.167 334.82 257.327 335.94C259.437 337.88 261.758 339.64 264.128 341.27C264.858 341.79 265.978 341.79 266.538 341.96C267.738 339.94 268.597 338.26 269.677 336.71C271.097 334.65 272.947 332.97 274.107 330.69C275.697 327.64 277.677 324.75 279.267 321.7C280.467 319.38 279.868 318.43 277.288 318.04C273.158 317.39 268.988 316.88 264.638 316.28ZM570.417 391.01C574.587 387.1 578.767 383.61 581.987 379.09C584.137 376.04 585.558 372.85 586.028 369.28C586.498 365.88 584.478 364.03 581.208 364.85C579.658 365.24 578.107 366.05 576.737 366.91C572.087 369.88 570.287 374.83 568.867 379.73C567.787 383.3 568.047 387.17 570.417 391V391.01ZM382.077 271.42C378.287 266.9 377.558 260.54 371.668 257.65C371.368 258.42 371.107 258.9 371.017 259.37C370.587 263.37 369.598 267.16 367.918 270.81C367.658 271.37 367.487 272.06 367.527 272.66C367.617 275.28 369.208 277.13 371.098 276.62C374.798 275.59 378.538 274.43 382.068 271.41L382.077 271.42ZM782.367 308.5C787.487 311.08 790.717 309.19 790.237 303.51C789.767 298.35 787.358 294.09 783.398 290.73C782.928 291.07 782.627 291.2 782.537 291.38C782.367 291.72 782.237 292.07 782.107 292.46C781.027 296.2 781.377 299.9 781.977 303.69C782.237 305.15 782.237 306.62 782.367 308.51V308.5ZM343.527 239.15C343.137 238.85 342.837 238.5 342.577 238.5C342.317 238.5 342.018 238.89 341.758 239.1C342.098 239.4 342.408 239.7 342.788 239.92C342.878 239.96 343.217 239.49 343.517 239.15H343.527Z" fill="currentColor"/>
<path d="M791.268 288.71C790.498 287.16 791.358 286.21 792.648 285.78C793.208 285.56 794.368 285.87 794.588 286.3C794.978 286.95 795.058 288.02 794.758 288.75C794.238 290.08 793.038 289.95 791.148 288.58C791.188 288.54 791.278 288.71 791.278 288.71H791.268Z" fill="currentColor"/>
<path d="M777.287 274.6C778.187 275.93 779.137 276.75 779.227 277.65C779.397 278.85 778.497 279.84 777.117 279.71C775.567 279.54 774.877 278.33 775.097 277C775.187 276.31 776.217 275.71 777.287 274.59V274.6Z" fill="currentColor"/>
<path d="M735.518 277.44C733.928 278.43 733.067 279.38 732.157 279.38C731.467 279.38 730.397 278.35 730.177 277.57C729.837 276.24 730.867 275.25 732.117 275.38C733.107 275.51 733.928 276.41 735.518 277.44Z" fill="currentColor"/>
<path d="M778.668 274.86C777.548 273.57 776.518 272.88 776.218 271.93C775.828 270.73 776.908 269.78 777.938 269.99C778.838 270.21 779.918 271.11 780.308 271.97C780.518 272.44 779.488 273.48 778.678 274.85L778.668 274.86Z" fill="currentColor"/>
<path d="M786.497 271.67C786.327 273.73 785.378 274.55 784.128 274.25C783.358 274.03 782.837 272.92 782.237 272.23C783.057 271.54 783.787 270.51 784.737 270.29C785.257 270.16 786.117 271.32 786.497 271.67Z" fill="currentColor"/>
<path d="M775.138 275.46C773.508 276.49 772.728 277.31 771.778 277.48C770.398 277.74 769.537 276.71 769.717 275.46C769.807 274.69 770.878 273.4 771.398 273.44C772.388 273.57 773.338 274.43 775.138 275.46Z" fill="currentColor"/>
<path d="M740.938 289.83C741.967 291.29 742.957 292.07 743.047 292.97C743.217 294.35 741.928 295.08 740.768 294.82C739.998 294.65 738.917 293.57 738.917 292.93C738.957 292.07 739.947 291.25 740.938 289.83Z" fill="currentColor"/>
<path d="M755.438 296.24C754.148 297.23 753.157 298.39 752.727 298.22C751.827 297.83 750.917 296.84 750.617 295.94C750.487 295.51 751.867 294.05 752.427 294.13C753.327 294.22 754.107 295.21 755.438 296.24Z" fill="currentColor"/>
<path d="M765.758 261.09C766.708 260.75 767.737 259.97 768.597 260.1C769.367 260.23 770.277 261.26 770.537 262.04C770.707 262.6 769.937 263.85 769.287 264.06C768.687 264.32 767.527 263.89 766.967 263.37C766.367 262.77 766.237 261.78 765.847 260.92L765.758 261.09Z" fill="currentColor"/>
<path d="M743.818 283.85C742.918 282.26 742.008 281.35 742.008 280.41C742.008 279.81 743.208 278.69 743.948 278.65C745.238 278.56 746.138 279.73 745.888 281.02C745.718 281.79 744.858 282.48 743.828 283.86L743.818 283.85Z" fill="currentColor"/>
<path d="M737.628 282.82C736.638 281.01 735.818 280.02 735.648 278.99C735.608 278.6 737.108 277.53 737.838 277.61C738.568 277.69 739.727 278.86 739.727 279.5C739.687 280.36 738.697 281.18 737.617 282.81L737.628 282.82Z" fill="currentColor"/>
<path d="M763.398 265.26C761.978 266.42 761.208 267.5 760.388 267.54C759.738 267.58 758.538 266.55 758.328 265.82C757.938 264.44 759.097 263.63 760.347 263.67C761.117 263.67 761.898 264.44 763.398 265.26Z" fill="currentColor"/>
<path d="M738.148 285.87C736.858 286.9 735.998 288.11 735.268 288.02C734.498 287.93 733.457 286.69 733.287 285.83C733.027 284.5 734.237 283.72 735.477 283.94C736.337 284.11 736.988 284.97 738.148 285.88V285.87Z" fill="currentColor"/>
<path d="M761.717 289.35C760.727 287.67 759.908 286.77 759.698 285.69C759.608 285.35 761.077 284.27 761.847 284.23C763.137 284.14 764.088 285.18 763.828 286.51C763.698 287.33 762.797 287.97 761.717 289.35Z" fill="currentColor"/>
<path d="M744.727 286.77C743.217 287.67 742.447 288.58 741.717 288.53C740.947 288.49 739.697 287.63 739.607 286.98C739.387 285.65 740.557 284.79 741.797 284.92C742.567 284.96 743.307 285.82 744.727 286.77Z" fill="currentColor"/>
<path d="M770.747 287.33C769.547 288.36 768.638 289.61 768.208 289.44C767.348 289.18 766.397 288.24 766.097 287.33C765.927 286.86 767.177 285.35 767.727 285.39C768.547 285.52 769.357 286.42 770.737 287.33H770.747Z" fill="currentColor"/>
<path d="M751.008 268.79C749.378 269.74 748.508 270.64 747.608 270.64C746.918 270.64 745.848 269.61 745.668 268.83C745.328 267.5 746.358 266.51 747.648 266.68C748.598 266.85 749.408 267.76 751.008 268.79Z" fill="currentColor"/>
<path d="M801.768 290.69C800.348 291.72 799.527 292.71 798.667 292.75C798.107 292.79 797.078 291.5 796.948 290.73C796.688 289.35 797.807 288.54 799.097 288.75C799.827 288.84 800.518 289.74 801.768 290.69Z" fill="currentColor"/>
<path d="M762.838 277.65C763.828 279.11 764.777 279.93 764.857 280.88C764.897 281.44 763.348 282.77 763.008 282.6C762.108 282.21 761.157 281.27 760.857 280.36C760.727 279.89 761.848 278.98 762.838 277.65Z" fill="currentColor"/>
<path d="M768.218 299.68C766.708 300.58 765.898 301.4 764.988 301.53C763.658 301.75 762.928 300.63 762.878 299.38C762.838 298 763.868 297.14 765.068 297.4C766.018 297.62 766.748 298.56 768.208 299.68H768.218Z" fill="currentColor"/>
<path d="M743.997 304.58C742.967 302.9 742.058 302.04 742.018 301.14C742.018 300.54 743.267 299.46 743.997 299.42C744.687 299.42 745.938 300.54 745.888 301.14C745.928 302.09 744.987 302.95 743.997 304.58Z" fill="currentColor"/>
<path d="M757.198 280.66C756.168 279.58 755.177 279.03 755.047 278.34C754.827 277.01 755.947 276.15 757.157 276.32C757.887 276.45 758.918 277.4 759.008 278.08C759.098 278.68 758.108 279.46 757.198 280.66Z" fill="currentColor"/>
<path d="M750.617 280.49C749.667 278.81 748.768 277.91 748.768 277.05C748.768 276.45 750.018 275.5 750.828 275.33C751.988 275.07 752.937 276.02 752.717 277.14C752.547 278.09 751.687 278.86 750.607 280.5L750.617 280.49Z" fill="currentColor"/>
<path d="M747.907 274.13C746.487 275.21 745.717 276.24 744.857 276.28C744.257 276.32 743.137 275.16 742.967 274.39C742.707 273.06 743.868 272.24 745.078 272.33C745.848 272.37 746.537 273.23 747.917 274.14L747.907 274.13Z" fill="currentColor"/>
<path d="M769.117 278.08C770.017 279.37 770.797 280.06 770.967 280.79C771.227 282.12 770.318 283.11 769.028 282.9C768.258 282.77 767.048 281.74 767.088 281.18C767.088 280.32 768.077 279.5 769.107 278.08H769.117Z" fill="currentColor"/>
<path d="M769.208 253.74C770.368 254.99 771.397 255.68 771.617 256.58C771.747 257.1 770.367 258.6 769.987 258.52C769.037 258.26 768.008 257.49 767.578 256.63C767.358 256.11 768.398 255.08 769.208 253.75V253.74Z" fill="currentColor"/>
<path d="M759.607 284.45C757.927 285.27 756.988 286.13 756.128 286.04C755.438 286 754.448 284.84 754.318 284.06C754.148 282.77 755.268 281.87 756.508 282.12C757.408 282.38 758.137 283.32 759.607 284.44V284.45Z" fill="currentColor"/>
<path d="M778.758 257.13C777.208 257.99 776.258 258.85 775.448 258.81C774.798 258.77 774.197 257.52 773.597 256.83C774.417 256.18 775.187 255.24 776.097 255.07C776.657 254.94 777.478 256.06 778.768 257.13H778.758Z" fill="currentColor"/>
<path d="M756.037 270.99C754.707 271.94 754.018 272.71 753.198 272.93C752.078 273.19 750.827 271.73 750.917 270.43C751.007 269.13 752.038 268.58 753.028 268.88C753.978 269.14 754.707 270 756.037 270.99Z" fill="currentColor"/>
<path d="M758.967 295.51C759.867 296.84 760.597 297.49 760.688 298.22C760.858 299.47 760.257 300.67 758.797 300.5C758.197 300.41 757.118 299.34 757.208 298.82C757.338 297.87 758.107 297.01 758.967 295.51Z" fill="currentColor"/>
<path d="M766.148 265.74C767.048 266.99 767.867 267.68 767.997 268.45C768.167 269.7 767.437 270.73 766.057 270.73C764.677 270.73 763.907 269.7 764.117 268.45C764.287 267.68 765.198 266.99 766.138 265.74H766.148Z" fill="currentColor"/>
<path d="M774.578 296.41C773.158 297.23 772.167 298.17 771.607 297.96C770.707 297.62 770.097 296.54 769.367 295.77C770.057 295.17 770.877 294.05 771.477 294.14C772.427 294.27 773.198 295.3 774.578 296.42V296.41Z" fill="currentColor"/>
<path d="M777.417 263.11C776.297 264.27 775.737 265.3 774.967 265.48C773.637 265.78 772.728 264.66 772.778 263.5C772.818 262.73 773.767 261.39 774.287 261.39C775.187 261.39 776.047 262.29 777.427 263.11H777.417Z" fill="currentColor"/>
<path d="M768.857 293.18C767.437 294.26 766.748 295.2 766.018 295.2C765.248 295.24 763.957 294.55 763.737 293.91C763.347 292.58 764.427 291.72 765.677 291.76C766.447 291.76 767.267 292.41 768.857 293.18Z" fill="currentColor"/>
<path d="M783.528 265.95C782.278 266.85 781.588 267.76 780.818 267.8C779.618 267.93 778.837 266.85 779.227 265.78C779.487 264.96 780.388 264.06 781.208 263.89C781.638 263.72 782.408 264.92 783.528 265.95Z" fill="currentColor"/>
<path d="M759.347 289.7C760.337 291.03 761.238 291.68 761.328 292.41C761.498 293.61 760.768 294.82 759.388 294.65C758.658 294.56 757.497 293.53 757.497 292.89C757.457 292.07 758.397 291.21 759.347 289.71V289.7Z" fill="currentColor"/>
<path d="M757.198 265.22C755.868 266.21 755.008 267.33 754.448 267.16C753.548 266.94 752.428 266.08 752.128 265.22C751.698 264.1 752.818 263.2 753.888 263.37C754.838 263.5 755.648 264.32 757.198 265.22Z" fill="currentColor"/>
<path d="M749.367 294.9C748.077 295.93 747.427 296.79 746.617 297.05C745.537 297.39 744.167 295.93 744.167 294.64C744.167 293.35 745.158 292.7 746.188 292.92C747.137 293.14 747.947 293.95 749.367 294.9Z" fill="currentColor"/>
<path d="M750.487 289.74C749.027 290.47 748.037 291.42 747.477 291.2C746.617 290.86 746.057 289.74 745.417 288.92C746.147 288.36 746.968 287.29 747.568 287.37C748.468 287.59 749.157 288.62 750.497 289.74H750.487Z" fill="currentColor"/>
<path d="M772.727 266.77C773.587 267.97 774.358 268.58 774.448 269.27C774.618 270.69 773.588 271.46 772.258 271.16C771.568 270.99 770.447 269.91 770.537 269.65C770.877 268.75 771.697 268.02 772.727 266.77Z" fill="currentColor"/>
<path d="M765.847 260.96C765.027 261.35 764.218 261.99 763.398 261.99C762.668 261.99 761.587 261.43 761.287 260.83C761.027 260.23 761.287 258.89 761.807 258.51C762.367 258.08 763.697 258.08 764.217 258.47C764.947 259.03 765.247 260.19 765.727 261.05C765.767 261.09 765.857 260.96 765.857 260.96H765.847Z" fill="currentColor"/>
<path d="M781.768 257C782.588 258.33 783.358 259.02 783.448 259.84C783.578 261.09 782.847 262.08 781.427 261.99C780.007 261.9 779.367 260.83 779.617 259.62C779.787 258.85 780.738 258.24 781.768 257Z" fill="currentColor"/>
<path d="M752.898 282.86C751.568 283.89 750.877 284.75 749.967 285.01C749.627 285.14 748.288 283.81 748.378 283.5C748.718 282.55 749.407 281.61 750.227 281.05C750.527 280.88 751.648 282 752.898 282.86Z" fill="currentColor"/>
<path d="M759.528 275.24C758.448 273.69 757.507 272.92 757.417 272.01C757.377 271.36 758.318 270.12 759.008 269.99C760.298 269.73 761.198 270.76 761.068 272.05C761.028 272.87 760.338 273.64 759.518 275.23L759.528 275.24Z" fill="currentColor"/>
<path d="M789.807 278.21C790.667 279.59 791.358 280.23 791.438 280.96C791.567 282.21 790.968 283.41 789.458 283.2C788.808 283.11 787.777 282 787.867 281.48C788.037 280.53 788.857 279.67 789.807 278.21Z" fill="currentColor"/>
<path d="M781.677 251.63C780.087 252.49 779.178 253.35 778.278 253.31C777.628 253.27 776.647 252.15 776.467 251.37C776.207 250.04 777.238 249.09 778.528 249.35C779.478 249.57 780.207 250.55 781.667 251.63H781.677Z" fill="currentColor"/>
<path d="M768.297 274.34C766.967 275.33 766.238 276.19 765.328 276.4C764.938 276.49 763.648 275.11 763.778 274.81C764.118 273.86 764.857 272.96 765.717 272.44C765.977 272.27 767.047 273.39 768.297 274.33V274.34Z" fill="currentColor"/>
<path d="M793.117 274.86C791.737 276.11 791.058 277.14 790.148 277.36C789.678 277.49 788.388 276.16 788.338 275.47C788.298 274.78 789.287 273.66 790.057 273.45C790.707 273.23 791.607 274.1 793.107 274.87L793.117 274.86Z" fill="currentColor"/>
<path d="M737.407 291.89C736.117 292.75 735.427 293.57 734.657 293.7C733.407 293.92 732.678 292.88 733.068 291.81C733.328 291.04 734.187 290.05 734.917 289.92C735.477 289.79 736.247 290.87 737.417 291.9L737.407 291.89Z" fill="currentColor"/>
<path d="M753.927 286.6C754.747 288.15 755.387 288.88 755.557 289.7C755.777 290.95 754.827 291.81 753.747 291.59C752.977 291.42 751.767 290.39 751.807 289.78C751.807 288.96 752.797 288.15 753.917 286.6H753.927Z" fill="currentColor"/>
<path d="M753.157 302.43C751.777 303.12 751.008 303.72 750.148 303.85C748.988 304.02 748.038 303.38 748.258 302.09C748.518 300.8 749.548 300.07 750.838 300.37C751.528 300.54 752.037 301.4 753.157 302.43Z" fill="currentColor"/>
<path d="M774.747 287.07C773.757 285.69 772.987 285.01 772.807 284.19C772.507 282.81 773.537 282.13 774.787 282.04C775.987 281.95 776.897 282.64 776.677 283.8C776.547 284.75 775.687 285.52 774.737 287.07H774.747Z" fill="currentColor"/>
<path d="M786.068 278.64C784.908 279.67 784.257 280.66 783.487 280.79C782.107 281.01 781.428 279.89 781.378 278.6C781.338 277.4 782.108 276.54 783.268 276.75C784.128 276.88 784.818 277.74 786.068 278.64Z" fill="currentColor"/>
<path d="M741.847 274.13C740.337 274.99 739.348 275.94 738.878 275.76C738.018 275.42 737.498 274.3 736.818 273.52C737.418 273 738.148 272.01 738.628 272.1C739.528 272.27 740.347 273.09 741.857 274.12L741.847 274.13Z" fill="currentColor"/>
<path d="M328.908 261.22C329.898 262.77 330.798 263.63 330.888 264.53C331.058 265.99 329.767 266.47 328.517 266.47C327.267 266.47 326.407 265.7 326.707 264.53C326.967 263.54 327.827 262.77 328.897 261.22H328.908Z" fill="currentColor"/>
<path d="M334.198 260.92C335.788 259.93 336.608 258.98 337.508 258.9C338.888 258.77 339.357 260.02 339.487 261.27C339.617 262.56 338.888 263.46 337.728 263.21C336.698 262.95 335.838 262.01 334.198 260.93V260.92Z" fill="currentColor"/>
<path d="M341.297 251.97C342.287 253.48 343.237 254.34 343.277 255.2C343.317 255.89 342.287 256.96 341.557 257.18C340.307 257.57 339.107 256.75 339.237 255.37C339.367 254.47 340.317 253.61 341.297 251.97Z" fill="currentColor"/>
<path d="M324.517 266.17C325.597 267.5 326.577 268.23 326.797 269.1C327.097 270.39 326.198 271.25 324.818 271.29C323.438 271.38 322.447 270.56 322.577 269.27C322.667 268.41 323.567 267.64 324.517 266.17Z" fill="currentColor"/>
<path d="M320.517 253.99C318.577 253.86 317.338 252.44 317.848 251.24C318.148 250.51 319.228 249.78 320.038 249.65C321.458 249.43 322.277 250.55 322.057 251.8C321.887 252.7 320.938 253.48 320.508 253.99H320.517Z" fill="currentColor"/>
<path d="M340.607 247.24C339.017 248.14 337.987 249.18 337.297 249C336.477 248.78 335.447 247.62 335.277 246.72C335.017 245.3 336.397 244.66 337.557 244.91C338.417 245.13 339.147 246.07 340.607 247.23V247.24Z" fill="currentColor"/>
<path d="M362.888 259.97C361.338 260.87 360.477 261.69 359.577 261.78C358.247 261.91 357.517 260.83 357.517 259.54C357.517 258.03 358.677 257.43 359.837 257.65C360.737 257.87 361.468 258.85 362.888 259.97Z" fill="currentColor"/>
<path d="M322.967 266.25C321.587 267.07 320.857 267.84 320.087 267.93C318.627 268.06 317.717 267.07 317.767 265.61C317.807 264.32 318.668 263.24 319.918 263.59C320.868 263.89 321.597 265.01 322.967 266.26V266.25Z" fill="currentColor"/>
<path d="M342.158 261.39C343.148 262.81 344.047 263.54 344.217 264.44C344.477 265.77 343.528 266.55 342.158 266.59C340.738 266.59 339.838 265.69 340.008 264.48C340.098 263.58 341.128 262.85 342.158 261.38V261.39Z" fill="currentColor"/>
<path d="M329.897 245.65C330.977 247.28 331.838 248.15 332.138 249.22C332.268 249.61 331.188 250.68 330.508 250.9C329.308 251.29 327.887 250.04 328.057 248.66C328.187 247.84 329.008 247.11 329.908 245.65H329.897Z" fill="currentColor"/>
<path d="M346.367 249.3C344.777 250.38 343.867 251.15 342.837 251.54C342.617 251.63 341.378 250.16 341.508 249.78C341.848 248.88 342.627 247.84 343.487 247.5C343.957 247.33 344.947 248.36 346.367 249.31V249.3Z" fill="currentColor"/>
<path d="M314.147 259.63C315.047 261.31 315.957 262.25 315.957 263.16C315.957 263.85 314.837 264.92 314.107 265.05C312.777 265.31 311.787 264.28 312.047 262.94C312.177 262.04 313.078 261.26 314.158 259.63H314.147Z" fill="currentColor"/>
<path d="M307.008 276.97C306.018 275.51 305.118 274.73 304.948 273.83C304.688 272.37 305.938 271.94 307.188 271.89C308.607 271.85 309.427 272.79 309.207 274.04C309.037 274.86 308.087 275.59 307.017 276.97H307.008Z" fill="currentColor"/>
<path d="M325.848 274.86C324.088 275.94 323.267 276.84 322.367 276.88C321.717 276.88 320.478 275.76 320.478 275.16C320.478 274.47 321.508 273.22 322.158 273.18C323.058 273.09 324.047 273.95 325.857 274.86H325.848Z" fill="currentColor"/>
<path d="M354.247 254.04C356.187 254.04 357.177 255.29 357.047 256.75C356.957 258.04 356.097 258.56 354.938 258.47C353.607 258.38 352.568 257.61 352.788 256.28C352.958 255.38 353.907 254.56 354.247 254.04Z" fill="currentColor"/>
<path d="M346.327 256.49C347.357 258.08 348.268 258.86 348.388 259.76C348.558 261.18 347.268 261.65 346.068 261.7C344.868 261.75 344.007 260.97 344.307 259.81C344.527 258.86 345.337 258.09 346.327 256.5V256.49Z" fill="currentColor"/>
<path d="M326.328 246.51C326.028 248.57 324.948 248.96 323.748 248.96C322.548 248.96 321.858 248.23 321.938 246.98C322.028 245.6 322.838 244.66 324.128 244.96C325.028 245.13 325.758 246.08 326.318 246.51H326.328Z" fill="currentColor"/>
<path d="M315.867 276.32C314.617 277.31 313.847 278.3 312.897 278.56C311.737 278.82 311.008 277.83 311.138 276.62C311.268 275.33 311.998 274.34 313.418 274.56C314.108 274.69 314.707 275.46 315.867 276.32Z" fill="currentColor"/>
<path d="M331.617 254.85C332.567 256.57 333.467 257.47 333.467 258.38C333.467 259.07 332.437 260.19 331.707 260.36C330.377 260.66 329.467 259.59 329.647 258.3C329.777 257.35 330.598 256.54 331.628 254.86L331.617 254.85Z" fill="currentColor"/>
<path d="M310.797 272.06C310.067 270.64 309.378 269.91 309.288 269.09C309.158 267.76 310.058 266.94 311.438 266.98C312.898 267.02 313.627 268.14 313.327 269.3C313.157 270.16 312.038 270.81 310.788 272.05L310.797 272.06Z" fill="currentColor"/>
<path d="M349.258 256.7C348.178 255.24 347.197 254.51 347.017 253.56C346.757 252.31 347.617 251.28 348.997 251.24C350.457 251.2 351.018 252.4 350.978 253.61C350.938 254.43 350.158 255.2 349.258 256.71V256.7Z" fill="currentColor"/>
<path d="M313.158 281.57C313.028 283.63 312.208 284.54 310.878 284.24C310.108 284.07 308.897 282.78 309.027 282.35C309.327 281.45 310.227 280.29 311.087 280.07C311.737 279.98 312.677 281.19 313.147 281.58L313.158 281.57Z" fill="currentColor"/>
<path d="M304.518 247.33C303.098 248.23 302.238 249.14 301.418 249.14C300.728 249.14 299.698 248.11 299.478 247.33C299.138 246.21 300.858 244.66 301.888 245.05C302.708 245.35 303.308 246.21 304.508 247.33H304.518Z" fill="currentColor"/>
<path d="M351.147 266.77C349.687 267.85 348.958 268.75 348.008 269.01C346.808 269.35 346.068 268.41 346.158 267.25C346.248 266.05 346.807 264.88 348.217 265.06C348.987 265.1 349.727 265.88 351.147 266.78V266.77Z" fill="currentColor"/>
<path d="M318.198 248.83C316.738 249.6 316.007 250.29 315.188 250.34C313.857 250.43 313.038 249.52 313.038 248.19C313.038 246.86 313.937 245.74 315.147 246C316.097 246.22 316.778 247.51 318.198 248.84V248.83Z" fill="currentColor"/>
<path d="M308.467 264.15C308.297 266.21 307.348 266.99 306.098 266.69C305.328 266.52 304.118 265.18 304.288 264.84C304.628 263.94 305.537 262.82 306.397 262.65C307.047 262.52 307.947 263.73 308.457 264.16L308.467 264.15Z" fill="currentColor"/>
<path d="M361.038 249.86C360.908 251.88 360.087 252.79 358.797 252.48C358.027 252.31 356.818 251.1 356.908 250.67C357.168 249.72 358.068 248.56 358.888 248.39C359.538 248.22 360.478 249.42 361.038 249.85V249.86Z" fill="currentColor"/>
<path d="M306.497 254.68C305.547 253.35 304.687 252.66 304.557 251.88C304.337 250.59 305.158 249.43 306.538 249.69C307.308 249.82 308.518 250.89 308.478 251.5C308.478 252.32 307.527 253.13 306.497 254.68Z" fill="currentColor"/>
<path d="M309.117 242.25C310.197 243.84 311.178 244.66 311.228 245.52C311.268 246.25 310.328 247.41 309.598 247.67C308.308 248.06 307.278 247.02 307.318 245.78C307.318 244.83 308.178 243.97 309.128 242.25H309.117Z" fill="currentColor"/>
<path d="M319.138 245.43C318.148 244.14 317.327 243.49 317.117 242.68C316.817 241.48 318.237 239.97 319.397 240.36C320.127 240.62 321.117 241.69 321.077 242.34C320.987 243.2 320.048 244.02 319.138 245.44V245.43Z" fill="currentColor"/>
<path d="M308.168 261.87C307.308 260.67 306.317 259.85 306.487 259.42C306.787 258.47 307.647 257.7 308.297 256.84C308.987 257.49 310.238 258.17 310.188 258.73C310.097 259.68 309.158 260.49 308.168 261.87Z" fill="currentColor"/>
<path d="M297.327 226.55C298.057 228.18 298.878 229.13 298.788 229.99C298.698 230.64 297.538 231.5 296.728 231.62C295.438 231.79 294.408 230.89 294.788 229.51C295.088 228.61 296.077 227.92 297.327 226.54V226.55Z" fill="currentColor"/>
<path d="M335.017 255.58C334.157 254.25 333.298 253.52 333.258 252.74C333.128 251.36 334.208 250.55 335.448 250.89C336.218 251.11 337.338 252.18 337.258 252.74C337.128 253.6 336.097 254.29 335.017 255.58Z" fill="currentColor"/>
<path d="M304.897 282.6C303.947 281.35 303.087 280.66 302.957 279.89C302.737 278.56 303.687 277.61 305.017 277.87C305.837 278.04 307.077 279.07 306.997 279.63C306.907 280.49 305.918 281.26 304.888 282.6H304.897Z" fill="currentColor"/>
<path d="M317.288 268.06C318.278 269.57 319.137 270.38 319.307 271.29C319.567 272.54 318.537 273.1 317.367 273.05C315.947 273.01 315.177 272.02 315.307 270.81C315.347 270.04 316.258 269.35 317.288 268.06Z" fill="currentColor"/>
<path d="M310.967 236.48C309.417 237.3 308.687 237.94 307.867 238.03C306.487 238.16 305.717 237 305.807 235.84C305.897 235.15 307.188 233.9 307.568 233.99C308.558 234.33 309.377 235.28 310.967 236.49V236.48Z" fill="currentColor"/>
<path d="M312.598 242.68C311.778 241.35 311.007 240.62 310.967 239.8C310.877 238.6 311.867 237.82 313.027 238.12C313.847 238.38 314.487 239.28 315.217 239.88C314.527 240.65 313.838 241.39 312.598 242.68Z" fill="currentColor"/>
<path d="M327.188 237.6C327.918 239.32 328.737 240.31 328.607 241.17C328.517 241.86 327.318 242.85 326.628 242.85C325.338 242.85 324.568 241.69 324.948 240.4C325.168 239.63 326.028 238.98 327.188 237.6Z" fill="currentColor"/>
<path d="M315.698 253.99C314.188 254.81 313.457 255.54 312.647 255.62C311.267 255.75 310.457 254.54 310.587 253.43C310.677 252.7 311.967 251.41 312.307 251.54C313.297 251.84 314.117 252.79 315.707 253.99H315.698Z" fill="currentColor"/>
<path d="M328.777 254.12C327.147 255.15 326.237 255.84 325.247 256.23C325.027 256.32 323.867 254.81 323.997 254.42C324.337 253.52 325.157 252.57 326.017 252.23C326.447 252.06 327.397 253.13 328.767 254.12H328.777Z" fill="currentColor"/>
<path d="M321.117 257.13C319.567 258.29 318.878 259.11 318.068 259.32C316.818 259.62 315.618 259.06 315.698 257.56C315.738 256.91 316.687 255.84 317.247 255.8C318.237 255.8 319.187 256.45 321.117 257.13Z" fill="currentColor"/>
<path d="M324.307 256.7C325.077 258.38 325.857 259.32 325.897 260.23C325.937 261.65 324.778 262.12 323.448 261.95C322.248 261.78 321.467 260.92 321.857 259.8C322.157 258.9 323.107 258.17 324.307 256.7Z" fill="currentColor"/>
<path d="M355.147 261.78C354.027 262.64 353.467 263.33 352.777 263.54C351.487 263.88 350.277 262.72 350.277 261.35C350.277 260.06 351.178 259.37 352.258 259.63C353.158 259.89 353.848 260.83 355.138 261.78H355.147Z" fill="currentColor"/>
<path d="M360.698 265.52C359.148 266.42 358.418 267.15 357.558 267.33C356.228 267.63 355.188 266.56 355.368 265.31C355.538 264.11 356.358 263.37 357.558 263.68C358.458 263.9 359.188 264.58 360.698 265.53V265.52Z" fill="currentColor"/>
<path d="M335.098 269.22C333.978 267.8 333.078 267.07 332.818 266.12C332.478 264.92 333.508 264.23 334.668 264.23C336.048 264.19 336.948 265.13 336.908 266.38C336.908 267.15 336.008 267.89 335.098 269.22Z" fill="currentColor"/>
<path d="M333.297 271.42C332.097 272.5 331.407 273.36 330.547 273.74C330.207 273.87 328.997 272.97 328.827 272.36C328.437 271.03 329.597 269.61 330.807 269.82C331.497 269.95 332.097 270.64 333.307 271.41L333.297 271.42Z" fill="currentColor"/>
<path d="M360.698 247.67C359.878 246.42 359.147 245.78 359.107 245.09C359.017 243.93 359.497 242.72 360.957 242.72C362.117 242.72 363.067 243.41 362.767 244.61C362.547 245.56 361.687 246.33 360.707 247.66L360.698 247.67Z" fill="currentColor"/>
<path d="M339.747 273.01C338.927 271.63 338.028 270.77 338.198 270.17C338.368 269.48 339.488 268.49 340.138 268.54C340.868 268.58 341.557 269.62 342.247 270.22C341.557 270.95 340.867 271.68 339.747 273.02V273.01Z" fill="currentColor"/>
<path d="M303.267 244.36C302.497 243.11 301.807 242.47 301.717 241.78C301.587 240.58 302.187 239.5 303.607 239.46C304.767 239.42 305.717 240.11 305.367 241.31C305.107 242.26 304.248 242.99 303.258 244.36H303.267Z" fill="currentColor"/>
</svg>
