<svg xmlns="http://www.w3.org/2000/svg" width="686" height="647" viewBox="0 0 686 647" fill="none">
<path d="M18 250.546L18 252.024L6.36363 247.751L6.36363 246.296L18 242.024L18 243.501L8.20454 246.978L8.20454 247.069L18 250.546ZM13.4545 250.001L13.4545 244.046L14.7045 244.046L14.7045 250.001L13.4545 250.001ZM18.1818 237.418C18.1818 238.145 17.9981 238.787 17.6307 239.344C17.2595 239.901 16.7367 240.336 16.0625 240.651C15.3845 240.965 14.5833 241.122 13.6591 241.122C12.7424 241.122 11.947 240.965 11.2727 240.651C10.5985 240.336 10.0776 239.899 9.71022 239.338C9.3428 238.777 9.15909 238.13 9.15909 237.395C9.15909 236.827 9.25378 236.378 9.44318 236.048C9.62878 235.715 9.84091 235.461 10.0795 235.287C10.3144 235.109 10.5076 234.971 10.6591 234.872L10.6591 234.758L6.36363 234.758L6.36363 233.418L18 233.418L18 234.713L16.6591 234.713L16.6591 234.872C16.8182 234.971 17.0189 235.111 17.2614 235.293C17.5 235.474 17.714 235.734 17.9034 236.071C18.089 236.408 18.1818 236.857 18.1818 237.418ZM16.9773 237.236C16.9773 236.698 16.8371 236.243 16.5568 235.872C16.2727 235.501 15.8807 235.219 15.3807 235.026C14.8769 234.832 14.2955 234.736 13.6364 234.736C12.9848 234.736 12.4148 234.83 11.9261 235.02C11.4337 235.209 11.0511 235.49 10.7784 235.861C10.5019 236.232 10.3636 236.69 10.3636 237.236C10.3636 237.804 10.5095 238.277 10.8011 238.656C11.089 239.031 11.4811 239.313 11.9773 239.503C12.4697 239.688 13.0227 239.781 13.6364 239.781C14.2576 239.781 14.822 239.687 15.3295 239.497C15.8333 239.304 16.2348 239.02 16.5341 238.645C16.8295 238.266 16.9773 237.796 16.9773 237.236ZM9.27272 223.959L18 227.186L18 228.55L9.27272 231.777L9.27272 230.323L16.2273 227.914L16.2273 227.823L9.27272 225.414L9.27272 223.959ZM18.2045 220.207C18.2045 220.76 18.1004 221.262 17.892 221.712C17.6799 222.163 17.375 222.521 16.9773 222.786C16.5758 223.051 16.0909 223.184 15.5227 223.184C15.0227 223.184 14.6174 223.086 14.3068 222.889C13.9924 222.692 13.7462 222.428 13.5682 222.099C13.3901 221.769 13.2576 221.406 13.1705 221.008C13.0795 220.606 13.0076 220.203 12.9545 219.798C12.8864 219.267 12.8352 218.837 12.8011 218.508C12.7633 218.175 12.7008 217.932 12.6136 217.781C12.5265 217.625 12.375 217.548 12.1591 217.548L12.1136 217.548C11.553 217.548 11.1174 217.701 10.8068 218.008C10.4962 218.311 10.3409 218.771 10.3409 219.389C10.3409 220.029 10.4811 220.531 10.7614 220.894C11.0417 221.258 11.3409 221.514 11.6591 221.661L11.2045 222.934C10.6742 222.707 10.2614 222.404 9.9659 222.025C9.66666 221.642 9.45833 221.226 9.3409 220.775C9.21969 220.32 9.15909 219.873 9.15909 219.434C9.15909 219.154 9.19318 218.832 9.26136 218.468C9.32575 218.101 9.46022 217.747 9.66477 217.406C9.86931 217.061 10.178 216.775 10.5909 216.548C11.0038 216.32 11.5568 216.207 12.25 216.207L18 216.207L18 217.548L16.8182 217.548L16.8182 217.616C17.0076 217.707 17.2102 217.858 17.4261 218.07C17.642 218.282 17.8258 218.565 17.9773 218.917C18.1288 219.269 18.2045 219.699 18.2045 220.207ZM17 220.002C17 219.472 16.8958 219.025 16.6875 218.661C16.4792 218.294 16.2102 218.017 15.8807 217.832C15.5511 217.642 15.2045 217.548 14.8409 217.548L13.6136 217.548C13.6818 217.604 13.7443 217.729 13.8011 217.923C13.8542 218.112 13.9015 218.332 13.9432 218.582C13.9811 218.828 14.0151 219.068 14.0455 219.303C14.072 219.534 14.0947 219.722 14.1136 219.866C14.1591 220.214 14.233 220.54 14.3352 220.843C14.4337 221.142 14.5833 221.385 14.7841 221.57C14.9811 221.752 15.25 221.843 15.5909 221.843C16.0568 221.843 16.4091 221.671 16.6477 221.326C16.8826 220.978 17 220.536 17 220.002ZM12.75 212.738L18 212.738L18 214.079L9.27272 214.079L9.27272 212.784L10.6364 212.784L10.6364 212.67C10.1932 212.466 9.83712 212.155 9.56818 211.738C9.29545 211.322 9.15909 210.784 9.15909 210.125C9.15909 209.534 9.2803 209.017 9.52272 208.574C9.76136 208.13 10.125 207.786 10.6136 207.54C11.0985 207.293 11.7121 207.17 12.4545 207.17L18 207.17L18 208.511L12.5454 208.511C11.8598 208.511 11.3258 208.689 10.9432 209.045C10.5568 209.401 10.3636 209.89 10.3636 210.511C10.3636 210.939 10.4564 211.322 10.642 211.659C10.8276 211.992 11.0985 212.255 11.4545 212.449C11.8106 212.642 12.2424 212.738 12.75 212.738ZM9.27272 201.244L10.4091 201.244L10.4091 205.767L9.27272 205.767L9.27272 201.244ZM7.18181 204.449L7.18181 203.108L15.5 203.108C15.8788 203.108 16.1629 203.053 16.3523 202.943C16.5379 202.83 16.6629 202.686 16.7273 202.512C16.7879 202.333 16.8182 202.146 16.8182 201.949C16.8182 201.801 16.8106 201.68 16.7954 201.585C16.7765 201.491 16.7614 201.415 16.75 201.358L17.9545 201.085C17.9886 201.176 18.0227 201.303 18.0568 201.466C18.0947 201.629 18.1136 201.835 18.1136 202.085C18.1136 202.464 18.0322 202.835 17.8693 203.199C17.7064 203.559 17.4583 203.858 17.125 204.097C16.7917 204.332 16.3712 204.449 15.8636 204.449L7.18181 204.449ZM18.2045 196.979C18.2045 197.532 18.1004 198.034 17.892 198.485C17.6799 198.936 17.375 199.294 16.9773 199.559C16.5758 199.824 16.0909 199.957 15.5227 199.957C15.0227 199.957 14.6174 199.858 14.3068 199.661C13.9924 199.464 13.7462 199.201 13.5682 198.871C13.3901 198.542 13.2576 198.178 13.1704 197.78C13.0795 197.379 13.0076 196.975 12.9545 196.57C12.8864 196.04 12.8352 195.61 12.8011 195.28C12.7633 194.947 12.7008 194.705 12.6136 194.553C12.5265 194.398 12.375 194.32 12.1591 194.32L12.1136 194.32C11.553 194.32 11.1174 194.474 10.8068 194.78C10.4962 195.083 10.3409 195.544 10.3409 196.161C10.3409 196.801 10.4811 197.303 10.7614 197.667C11.0417 198.03 11.3409 198.286 11.6591 198.434L11.2045 199.707C10.6742 199.479 10.2614 199.176 9.9659 198.797C9.66666 198.415 9.45833 197.998 9.3409 197.547C9.21969 197.093 9.15909 196.646 9.15909 196.207C9.15909 195.926 9.19318 195.604 9.26136 195.241C9.32575 194.873 9.46022 194.519 9.66477 194.178C9.86931 193.833 10.178 193.547 10.5909 193.32C11.0038 193.093 11.5568 192.979 12.25 192.979L18 192.979L18 194.32L16.8182 194.32L16.8182 194.388C17.0076 194.479 17.2102 194.631 17.4261 194.843C17.642 195.055 17.8258 195.337 17.9773 195.689C18.1288 196.042 18.2045 196.472 18.2045 196.979ZM17 196.775C17 196.244 16.8958 195.797 16.6875 195.434C16.4792 195.066 16.2102 194.79 15.8807 194.604C15.5511 194.415 15.2045 194.32 14.8409 194.32L13.6136 194.32C13.6818 194.377 13.7443 194.502 13.8011 194.695C13.8542 194.885 13.9015 195.104 13.9432 195.354C13.9811 195.6 14.0151 195.841 14.0454 196.076C14.072 196.307 14.0947 196.494 14.1136 196.638C14.1591 196.987 14.2329 197.313 14.3352 197.616C14.4337 197.915 14.5833 198.157 14.7841 198.343C14.9811 198.525 15.25 198.616 15.5909 198.616C16.0568 198.616 16.4091 198.443 16.6477 198.099C16.8826 197.75 17 197.309 17 196.775ZM21.4545 187.329C21.4545 187.977 21.3712 188.534 21.2045 189C21.0417 189.465 20.8258 189.854 20.5568 190.164C20.2917 190.471 20.0076 190.715 19.7045 190.897L18.9545 189.829C19.1136 189.708 19.2954 189.554 19.5 189.369C19.7083 189.183 19.8883 188.929 20.0398 188.607C20.1951 188.282 20.2727 187.856 20.2727 187.329C20.2727 186.625 20.1023 186.043 19.7614 185.585C19.4204 185.126 18.8864 184.897 18.1591 184.897L16.3864 184.897L16.3864 185.011C16.5454 185.109 16.7424 185.25 16.9773 185.431C17.2083 185.609 17.4148 185.867 17.5966 186.204C17.7746 186.537 17.8636 186.988 17.8636 187.556C17.8636 188.261 17.697 188.893 17.3636 189.454C17.0303 190.011 16.5454 190.452 15.9091 190.778C15.2727 191.1 14.5 191.261 13.5909 191.261C12.697 191.261 11.9186 191.104 11.2557 190.789C10.589 190.475 10.0739 190.037 9.71022 189.477C9.3428 188.916 9.15909 188.268 9.15909 187.534C9.15909 186.965 9.25378 186.515 9.44318 186.181C9.62878 185.844 9.8409 185.587 10.0795 185.409C10.3144 185.227 10.5076 185.087 10.6591 184.988L10.6591 184.852L9.27272 184.852L9.27272 183.556L18.25 183.556C19 183.556 19.6098 183.727 20.0795 184.068C20.553 184.405 20.8996 184.859 21.1193 185.431C21.3428 186 21.4545 186.632 21.4545 187.329ZM16.6591 187.375C16.6591 186.837 16.536 186.382 16.2898 186.011C16.0436 185.64 15.6894 185.357 15.2273 185.164C14.7651 184.971 14.2121 184.875 13.5682 184.875C12.9394 184.875 12.3845 184.969 11.9034 185.159C11.4223 185.348 11.0454 185.628 10.7727 186C10.5 186.371 10.3636 186.829 10.3636 187.375C10.3636 187.943 10.5076 188.416 10.7954 188.795C11.0833 189.17 11.4697 189.452 11.9545 189.642C12.4394 189.827 12.9773 189.92 13.5682 189.92C14.1742 189.92 14.7102 189.825 15.1761 189.636C15.6383 189.443 16.0019 189.159 16.267 188.784C16.5284 188.405 16.6591 187.935 16.6591 187.375ZM18.1818 177.763C18.1818 178.604 17.9962 179.329 17.625 179.939C17.25 180.545 16.7273 181.013 16.0568 181.342C15.3826 181.668 14.5985 181.831 13.7045 181.831C12.8106 181.831 12.0227 181.668 11.3409 181.342C10.6553 181.013 10.1212 180.554 9.73863 179.967C9.35227 179.376 9.15909 178.687 9.15909 177.899C9.15908 177.445 9.23484 176.996 9.38636 176.552C9.53787 176.109 9.78408 175.706 10.125 175.342C10.4621 174.979 10.9091 174.689 11.4659 174.473C12.0227 174.257 12.7083 174.149 13.5227 174.149L14.0909 174.149L14.0909 180.876L12.9318 180.876L12.9318 175.513C12.4394 175.513 12 175.611 11.6136 175.808C11.2273 176.001 10.9223 176.278 10.6989 176.638C10.4754 176.994 10.3636 177.414 10.3636 177.899C10.3636 178.433 10.4962 178.895 10.7614 179.285C11.0227 179.672 11.3636 179.969 11.7841 180.177C12.2045 180.386 12.6553 180.49 13.1364 180.49L13.9091 180.49C14.5682 180.49 15.1269 180.376 15.5852 180.149C16.0398 179.918 16.3864 179.598 16.625 179.189C16.8598 178.78 16.9773 178.304 16.9773 177.763C16.9773 177.41 16.928 177.092 16.8295 176.808C16.7273 176.52 16.5758 176.272 16.375 176.064C16.1704 175.856 15.9167 175.695 15.6136 175.581L15.9773 174.285C16.4167 174.422 16.803 174.651 17.1364 174.973C17.4659 175.295 17.7235 175.693 17.9091 176.166C18.0909 176.64 18.1818 177.172 18.1818 177.763ZM9.27272 164.363L10.4091 164.363L10.4091 169.067L9.27272 169.067L9.27272 164.363ZM18 167.658L8.06818 167.658C7.56817 167.658 7.15151 167.541 6.81817 167.306C6.48484 167.071 6.23484 166.766 6.06817 166.391C5.90151 166.016 5.81817 165.621 5.81817 165.204C5.81817 164.874 5.84469 164.605 5.89772 164.397C5.95075 164.189 5.99999 164.033 6.04545 163.931L7.20454 164.317C7.18181 164.386 7.1534 164.48 7.11931 164.602C7.08522 164.719 7.06817 164.874 7.06817 165.067C7.06817 165.511 7.17992 165.831 7.4034 166.028C7.62689 166.221 7.95454 166.317 8.38636 166.317L18 166.317L18 167.658ZM18.1818 159.618C18.1818 160.405 17.9943 161.097 17.6193 161.691C17.2443 162.282 16.7197 162.744 16.0454 163.078C15.3712 163.407 14.5833 163.572 13.6818 163.572C12.7727 163.572 11.9792 163.407 11.3011 163.078C10.6231 162.744 10.0966 162.282 9.72158 161.691C9.34658 161.097 9.15908 160.405 9.15908 159.618C9.15908 158.83 9.34658 158.14 9.72158 157.549C10.0966 156.955 10.6231 156.493 11.3011 156.163C11.9792 155.83 12.7727 155.663 13.6818 155.663C14.5833 155.663 15.3712 155.83 16.0454 156.163C16.7197 156.493 17.2443 156.955 17.6193 157.549C17.9943 158.14 18.1818 158.83 18.1818 159.618ZM16.9773 159.618C16.9773 159.019 16.8239 158.527 16.517 158.14C16.2102 157.754 15.8068 157.468 15.3068 157.282C14.8068 157.097 14.2651 157.004 13.6818 157.004C13.0985 157.004 12.5549 157.097 12.0511 157.282C11.5473 157.468 11.1401 157.754 10.8295 158.14C10.5189 158.527 10.3636 159.019 10.3636 159.618C10.3636 160.216 10.5189 160.709 10.8295 161.095C11.1401 161.481 11.5473 161.767 12.0511 161.953C12.5549 162.138 13.0985 162.231 13.6818 162.231C14.2651 162.231 14.8068 162.138 15.3068 161.953C15.8068 161.767 16.2102 161.481 16.517 161.095C16.8239 160.709 16.9773 160.216 16.9773 159.618ZM18 153.936L9.27272 153.936L9.27272 152.641L10.5909 152.641L10.5909 152.55C10.1591 152.391 9.8087 152.103 9.53976 151.686C9.27083 151.269 9.13636 150.8 9.13636 150.277C9.13636 150.179 9.13825 150.055 9.14204 149.908C9.14583 149.76 9.15151 149.648 9.15908 149.573L10.5227 149.573C10.5114 149.618 10.4943 149.722 10.4716 149.885C10.4451 150.044 10.4318 150.213 10.4318 150.391C10.4318 150.815 10.5208 151.194 10.6989 151.527C10.8731 151.857 11.1155 152.118 11.4261 152.311C11.7329 152.501 12.0833 152.595 12.4773 152.595L18 152.595L18 153.936ZM18 143.941L6.36363 143.941L6.36363 140.009C6.36363 139.097 6.5284 138.35 6.85795 137.771C7.1837 137.187 7.62499 136.756 8.18181 136.475C8.73863 136.195 9.35984 136.055 10.0454 136.055C10.7311 136.055 11.3542 136.195 11.9148 136.475C12.4754 136.752 12.9223 137.18 13.2557 137.759C13.5852 138.339 13.75 139.081 13.75 139.987L13.75 142.805L12.5 142.805L12.5 140.032C12.5 139.407 12.392 138.905 12.1761 138.526C11.9602 138.148 11.6686 137.873 11.3011 137.703C10.9299 137.528 10.5114 137.441 10.0454 137.441C9.57954 137.441 9.16287 137.528 8.79545 137.703C8.42802 137.873 8.14014 138.15 7.93181 138.532C7.71969 138.915 7.61363 139.422 7.61363 140.055L7.61363 142.532L18 142.532L18 143.941ZM6.36363 132.946L18 132.946L18 134.287L6.36363 134.287L6.36363 132.946ZM18.2045 128.242C18.2045 128.795 18.1004 129.297 17.892 129.747C17.6799 130.198 17.375 130.556 16.9773 130.821C16.5757 131.086 16.0909 131.219 15.5227 131.219C15.0227 131.219 14.6174 131.121 14.3068 130.924C13.9924 130.727 13.7462 130.463 13.5682 130.134C13.3901 129.804 13.2576 129.441 13.1704 129.043C13.0795 128.641 13.0076 128.238 12.9545 127.833C12.8864 127.302 12.8352 126.872 12.8011 126.543C12.7632 126.21 12.7007 125.967 12.6136 125.816C12.5265 125.66 12.375 125.583 12.1591 125.583L12.1136 125.583C11.553 125.583 11.1174 125.736 10.8068 126.043C10.4962 126.346 10.3409 126.806 10.3409 127.424C10.3409 128.064 10.4811 128.566 10.7614 128.929C11.0417 129.293 11.3409 129.549 11.6591 129.696L11.2045 130.969C10.6742 130.742 10.2614 130.439 9.9659 130.06C9.66666 129.677 9.45832 129.261 9.3409 128.81C9.21969 128.355 9.15908 127.908 9.15908 127.469C9.15908 127.189 9.19317 126.867 9.26135 126.503C9.32575 126.136 9.46022 125.782 9.66476 125.441C9.86931 125.096 10.178 124.81 10.5909 124.583C11.0038 124.355 11.5568 124.242 12.25 124.242L18 124.242L18 125.583L16.8182 125.583L16.8182 125.651C17.0076 125.742 17.2102 125.893 17.4261 126.105C17.642 126.318 17.8257 126.6 17.9773 126.952C18.1288 127.304 18.2045 127.734 18.2045 128.242ZM17 128.037C17 127.507 16.8958 127.06 16.6875 126.696C16.4792 126.329 16.2102 126.052 15.8807 125.867C15.5511 125.677 15.2045 125.583 14.8409 125.583L13.6136 125.583C13.6818 125.639 13.7443 125.764 13.8011 125.958C13.8542 126.147 13.9015 126.367 13.9432 126.617C13.9811 126.863 14.0151 127.103 14.0454 127.338C14.072 127.569 14.0947 127.757 14.1136 127.901C14.1591 128.249 14.2329 128.575 14.3352 128.878C14.4337 129.177 14.5833 129.42 14.7841 129.605C14.9811 129.787 15.25 129.878 15.5909 129.878C16.0568 129.878 16.4091 129.706 16.6477 129.361C16.8826 129.013 17 128.571 17 128.037ZM18.1818 118.569C18.1818 119.387 17.9886 120.092 17.6023 120.682C17.2159 121.273 16.6837 121.728 16.0057 122.046C15.3276 122.364 14.553 122.523 13.6818 122.523C12.7954 122.523 12.0132 122.361 11.3352 122.035C10.6534 121.705 10.1212 121.247 9.73863 120.66C9.35226 120.069 9.15908 119.379 9.15908 118.592C9.15908 117.978 9.27272 117.425 9.49999 116.932C9.72726 116.44 10.0454 116.037 10.4545 115.722C10.8636 115.408 11.3409 115.213 11.8864 115.137L11.8864 116.478C11.4886 116.58 11.1364 116.807 10.8295 117.16C10.5189 117.508 10.3636 117.978 10.3636 118.569C10.3636 119.092 10.5 119.55 10.7727 119.944C11.0417 120.334 11.4223 120.639 11.9148 120.859C12.4034 121.075 12.9773 121.182 13.6364 121.182C14.3106 121.182 14.8977 121.076 15.3977 120.864C15.8977 120.648 16.286 120.345 16.5625 119.955C16.839 119.561 16.9773 119.099 16.9773 118.569C16.9773 118.22 16.9167 117.904 16.7954 117.62C16.6742 117.336 16.5 117.095 16.2727 116.898C16.0454 116.701 15.7727 116.561 15.4545 116.478L15.4545 115.137C15.9697 115.213 16.4337 115.4 16.8466 115.7C17.2557 115.995 17.5814 116.387 17.8239 116.876C18.0625 117.361 18.1818 117.925 18.1818 118.569ZM18.1818 109.838C18.1818 110.679 17.9962 111.404 17.625 112.014C17.25 112.62 16.7273 113.088 16.0568 113.417C15.3826 113.743 14.5985 113.906 13.7045 113.906C12.8106 113.906 12.0227 113.743 11.3409 113.417C10.6553 113.088 10.1212 112.629 9.73863 112.042C9.35226 111.451 9.15908 110.762 9.15908 109.974C9.15908 109.52 9.23484 109.071 9.38635 108.627C9.53787 108.184 9.78408 107.781 10.125 107.417C10.4621 107.054 10.9091 106.764 11.4659 106.548C12.0227 106.332 12.7083 106.224 13.5227 106.224L14.0909 106.224L14.0909 112.951L12.9318 112.951L12.9318 107.588C12.4394 107.588 12 107.686 11.6136 107.883C11.2273 108.076 10.9223 108.353 10.6989 108.713C10.4754 109.069 10.3636 109.489 10.3636 109.974C10.3636 110.508 10.4962 110.97 10.7614 111.36C11.0227 111.747 11.3636 112.044 11.7841 112.252C12.2045 112.461 12.6553 112.565 13.1364 112.565L13.9091 112.565C14.5682 112.565 15.1269 112.451 15.5852 112.224C16.0398 111.993 16.3864 111.673 16.625 111.264C16.8598 110.855 16.9773 110.379 16.9773 109.838C16.9773 109.485 16.928 109.167 16.8295 108.883C16.7273 108.595 16.5757 108.347 16.375 108.139C16.1704 107.93 15.9167 107.77 15.6136 107.656L15.9773 106.36C16.4167 106.497 16.803 106.726 17.1364 107.048C17.4659 107.37 17.7235 107.768 17.9091 108.241C18.0909 108.715 18.1818 109.247 18.1818 109.838ZM18 104.322L6.36363 104.322L6.36363 102.982L10.6591 102.982L10.6591 102.868C10.5076 102.769 10.3144 102.633 10.0795 102.459C9.8409 102.281 9.62878 102.027 9.44317 101.697C9.25378 101.364 9.15908 100.913 9.15908 100.345C9.15908 99.6104 9.34279 98.9626 9.71022 98.402C10.0776 97.8414 10.5985 97.4039 11.2727 97.0895C11.947 96.7751 12.7424 96.6179 13.6591 96.6179C14.5833 96.6179 15.3845 96.7751 16.0625 97.0895C16.7367 97.4039 17.2595 97.8395 17.6307 98.3963C17.9981 98.9532 18.1818 99.5952 18.1818 100.322C18.1818 100.883 18.089 101.332 17.9034 101.669C17.714 102.006 17.5 102.266 17.2614 102.447C17.0189 102.629 16.8182 102.769 16.6591 102.868L16.6591 103.027L18 103.027L18 104.322ZM13.6364 103.004C14.2954 103.004 14.8769 102.908 15.3807 102.715C15.8807 102.521 16.2727 102.239 16.5568 101.868C16.8371 101.497 16.9773 101.042 16.9773 100.504C16.9773 99.9437 16.8295 99.4759 16.5341 99.1009C16.2348 98.7221 15.8333 98.438 15.3295 98.2486C14.822 98.0554 14.2576 97.9588 13.6364 97.9588C13.0227 97.9588 12.4697 98.0535 11.9773 98.2429C11.4811 98.4285 11.089 98.7107 10.8011 99.0895C10.5095 99.4645 10.3636 99.9361 10.3636 100.504C10.3636 101.05 10.5019 101.508 10.7784 101.879C11.0511 102.251 11.4337 102.531 11.9261 102.72C12.4148 102.91 12.9848 103.004 13.6364 103.004ZM18.1818 91.3413C18.1818 92.1292 17.9943 92.8205 17.6193 93.4152C17.2443 94.0061 16.7197 94.4682 16.0454 94.8016C15.3712 95.1311 14.5833 95.2959 13.6818 95.2959C12.7727 95.2959 11.9792 95.1311 11.3011 94.8016C10.6231 94.4682 10.0966 94.0061 9.72158 93.4152C9.34658 92.8205 9.15908 92.1292 9.15908 91.3413C9.15908 90.5535 9.34658 89.8641 9.72158 89.2731C10.0966 88.6785 10.6231 88.2163 11.3011 87.8868C11.9792 87.5535 12.7727 87.3868 13.6818 87.3868C14.5833 87.3868 15.3712 87.5535 16.0454 87.8868C16.7197 88.2163 17.2443 88.6785 17.6193 89.2731C17.9943 89.8641 18.1818 90.5535 18.1818 91.3413ZM16.9773 91.3413C16.9773 90.7428 16.8239 90.2504 16.517 89.8641C16.2102 89.4777 15.8068 89.1917 15.3068 89.0061C14.8068 88.8205 14.2651 88.7277 13.6818 88.7277C13.0985 88.7277 12.5549 88.8205 12.0511 89.0061C11.5473 89.1917 11.1401 89.4777 10.8295 89.8641C10.5189 90.2504 10.3636 90.7428 10.3636 91.3413C10.3636 91.9398 10.5189 92.4322 10.8295 92.8186C11.1401 93.205 11.5473 93.491 12.0511 93.6766C12.5549 93.8622 13.0985 93.955 13.6818 93.955C14.2651 93.955 14.8068 93.8622 15.3068 93.6766C15.8068 93.491 16.2102 93.205 16.517 92.8186C16.8239 92.4322 16.9773 91.9398 16.9773 91.3413Z" fill="var(--_theme---neutral--11)"/>
<line y1="314" x2="24" y2="314" stroke="var(--_theme---accentl--12)" stroke-width="2"/>
<path d="M18 577.935L18 579.412L6.36363 575.139L6.36363 573.685L18 569.412L18 570.889L8.20454 574.366L8.20454 574.457L18 577.935ZM13.4545 577.389L13.4545 571.435L14.7045 571.435L14.7045 577.389L13.4545 577.389ZM18.1818 564.806C18.1818 565.533 17.9981 566.175 17.6307 566.732C17.2595 567.289 16.7367 567.724 16.0625 568.039C15.3845 568.353 14.5833 568.51 13.6591 568.51C12.7424 568.51 11.947 568.353 11.2727 568.039C10.5985 567.724 10.0776 567.287 9.71023 566.726C9.3428 566.166 9.15909 565.518 9.15909 564.783C9.15909 564.215 9.25379 563.766 9.44318 563.436C9.62879 563.103 9.84091 562.849 10.0795 562.675C10.3144 562.497 10.5076 562.359 10.6591 562.26L10.6591 562.147L6.36363 562.147L6.36363 560.806L18 560.806L18 562.101L16.6591 562.101L16.6591 562.26C16.8182 562.359 17.0189 562.499 17.2614 562.681C17.5 562.863 17.714 563.122 17.9034 563.459C18.089 563.796 18.1818 564.245 18.1818 564.806ZM16.9773 564.624C16.9773 564.086 16.8371 563.631 16.5568 563.26C16.2727 562.889 15.8807 562.607 15.3807 562.414C14.8769 562.22 14.2955 562.124 13.6364 562.124C12.9848 562.124 12.4148 562.219 11.9261 562.408C11.4337 562.597 11.0511 562.878 10.7784 563.249C10.5019 563.62 10.3636 564.078 10.3636 564.624C10.3636 565.192 10.5095 565.666 10.8011 566.044C11.089 566.419 11.4811 566.702 11.9773 566.891C12.4697 567.077 13.0227 567.169 13.6364 567.169C14.2576 567.169 14.822 567.075 15.3295 566.885C15.8333 566.692 16.2348 566.408 16.5341 566.033C16.8295 565.654 16.9773 565.184 16.9773 564.624ZM9.27272 551.347L18 554.575L18 555.938L9.27272 559.165L9.27272 557.711L16.2273 555.302L16.2273 555.211L9.27272 552.802L9.27272 551.347ZM18.2045 547.595C18.2045 548.148 18.1004 548.65 17.892 549.101C17.6799 549.551 17.375 549.909 16.9773 550.174C16.5758 550.44 16.0909 550.572 15.5227 550.572C15.0227 550.572 14.6174 550.474 14.3068 550.277C13.9924 550.08 13.7462 549.816 13.5682 549.487C13.3901 549.157 13.2576 548.794 13.1705 548.396C13.0795 547.994 13.0076 547.591 12.9545 547.186C12.8864 546.655 12.8352 546.226 12.8011 545.896C12.7633 545.563 12.7008 545.32 12.6136 545.169C12.5265 545.013 12.375 544.936 12.1591 544.936L12.1136 544.936C11.553 544.936 11.1174 545.089 10.8068 545.396C10.4962 545.699 10.3409 546.159 10.3409 546.777C10.3409 547.417 10.4811 547.919 10.7614 548.282C11.0417 548.646 11.3409 548.902 11.6591 549.049L11.2045 550.322C10.6742 550.095 10.2614 549.792 9.96591 549.413C9.66666 549.03 9.45833 548.614 9.34091 548.163C9.21969 547.708 9.15909 547.262 9.15909 546.822C9.15909 546.542 9.19318 546.22 9.26136 545.856C9.32575 545.489 9.46022 545.135 9.66477 544.794C9.86932 544.449 10.178 544.163 10.5909 543.936C11.0038 543.708 11.5568 543.595 12.25 543.595L18 543.595L18 544.936L16.8182 544.936L16.8182 545.004C17.0076 545.095 17.2102 545.246 17.4261 545.458C17.642 545.671 17.8258 545.953 17.9773 546.305C18.1288 546.657 18.2045 547.087 18.2045 547.595ZM17 547.39C17 546.86 16.8958 546.413 16.6875 546.049C16.4792 545.682 16.2102 545.405 15.8807 545.22C15.5511 545.03 15.2045 544.936 14.8409 544.936L13.6136 544.936C13.6818 544.993 13.7443 545.118 13.8011 545.311C13.8542 545.5 13.9015 545.72 13.9432 545.97C13.9811 546.216 14.0151 546.457 14.0455 546.691C14.072 546.923 14.0947 547.11 14.1136 547.254C14.1591 547.602 14.233 547.928 14.3352 548.231C14.4337 548.53 14.5833 548.773 14.7841 548.958C14.9811 549.14 15.25 549.231 15.5909 549.231C16.0568 549.231 16.4091 549.059 16.6477 548.714C16.8826 548.366 17 547.924 17 547.39ZM12.75 540.127L18 540.127L18 541.467L9.27272 541.467L9.27272 540.172L10.6364 540.172L10.6364 540.058C10.1932 539.854 9.83712 539.543 9.56818 539.127C9.29545 538.71 9.15909 538.172 9.15909 537.513C9.15909 536.922 9.2803 536.405 9.52272 535.962C9.76136 535.519 10.125 535.174 10.6136 534.928C11.0985 534.681 11.7121 534.558 12.4545 534.558L18 534.558L18 535.899L12.5455 535.899C11.8598 535.899 11.3258 536.077 10.9432 536.433C10.5568 536.789 10.3636 537.278 10.3636 537.899C10.3636 538.327 10.4564 538.71 10.642 539.047C10.8276 539.38 11.0985 539.644 11.4545 539.837C11.8106 540.03 12.2424 540.127 12.75 540.127ZM9.27272 528.633L10.4091 528.633L10.4091 533.155L9.27272 533.155L9.27272 528.633ZM7.18181 531.837L7.18181 530.496L15.5 530.496C15.8788 530.496 16.1629 530.441 16.3523 530.331C16.5379 530.218 16.6629 530.074 16.7273 529.9C16.7879 529.722 16.8182 529.534 16.8182 529.337C16.8182 529.189 16.8106 529.068 16.7955 528.973C16.7765 528.879 16.7614 528.803 16.75 528.746L17.9545 528.473C17.9886 528.564 18.0227 528.691 18.0568 528.854C18.0947 529.017 18.1136 529.223 18.1136 529.473C18.1136 529.852 18.0322 530.223 17.8693 530.587C17.7064 530.947 17.4583 531.246 17.125 531.485C16.7917 531.72 16.3712 531.837 15.8636 531.837L7.18181 531.837ZM18.2045 524.367C18.2045 524.92 18.1004 525.422 17.892 525.873C17.6799 526.324 17.375 526.682 16.9773 526.947C16.5758 527.212 16.0909 527.345 15.5227 527.345C15.0227 527.345 14.6174 527.246 14.3068 527.049C13.9924 526.852 13.7462 526.589 13.5682 526.259C13.3901 525.93 13.2576 525.566 13.1705 525.168C13.0795 524.767 13.0076 524.364 12.9545 523.958C12.8864 523.428 12.8352 522.998 12.8011 522.668C12.7633 522.335 12.7008 522.093 12.6136 521.941C12.5265 521.786 12.375 521.708 12.1591 521.708L12.1136 521.708C11.553 521.708 11.1174 521.862 10.8068 522.168C10.4962 522.472 10.3409 522.932 10.3409 523.549C10.3409 524.189 10.4811 524.691 10.7614 525.055C11.0417 525.418 11.3409 525.674 11.6591 525.822L11.2045 527.095C10.6742 526.867 10.2614 526.564 9.96591 526.186C9.66666 525.803 9.45833 525.386 9.34091 524.936C9.21969 524.481 9.15909 524.034 9.15909 523.595C9.15909 523.314 9.19318 522.992 9.26136 522.629C9.32575 522.261 9.46022 521.907 9.66477 521.566C9.86931 521.222 10.178 520.936 10.5909 520.708C11.0038 520.481 11.5568 520.367 12.25 520.367L18 520.367L18 521.708L16.8182 521.708L16.8182 521.776C17.0076 521.867 17.2102 522.019 17.4261 522.231C17.642 522.443 17.8258 522.725 17.9773 523.078C18.1288 523.43 18.2045 523.86 18.2045 524.367ZM17 524.163C17 523.633 16.8958 523.186 16.6875 522.822C16.4792 522.454 16.2102 522.178 15.8807 521.992C15.5511 521.803 15.2045 521.708 14.8409 521.708L13.6136 521.708C13.6818 521.765 13.7443 521.89 13.8011 522.083C13.8542 522.273 13.9015 522.492 13.9432 522.742C13.9811 522.989 14.0151 523.229 14.0455 523.464C14.072 523.695 14.0947 523.883 14.1136 524.026C14.1591 524.375 14.233 524.701 14.3352 525.004C14.4337 525.303 14.5833 525.545 14.7841 525.731C14.9811 525.913 15.25 526.004 15.5909 526.004C16.0568 526.004 16.4091 525.831 16.6477 525.487C16.8826 525.138 17 524.697 17 524.163ZM21.4545 514.717C21.4545 515.365 21.3712 515.922 21.2045 516.388C21.0417 516.854 20.8258 517.242 20.5568 517.552C20.2917 517.859 20.0076 518.104 19.7045 518.285L18.9545 517.217C19.1136 517.096 19.2955 516.943 19.5 516.757C19.7083 516.571 19.8883 516.318 20.0398 515.996C20.1951 515.67 20.2727 515.244 20.2727 514.717C20.2727 514.013 20.1023 513.431 19.7614 512.973C19.4205 512.515 18.8864 512.285 18.1591 512.285L16.3864 512.285L16.3864 512.399C16.5455 512.497 16.7424 512.638 16.9773 512.819C17.2083 512.997 17.4148 513.255 17.5966 513.592C17.7746 513.926 17.8636 514.376 17.8636 514.944C17.8636 515.649 17.697 516.282 17.3636 516.842C17.0303 517.399 16.5455 517.84 15.9091 518.166C15.2727 518.488 14.5 518.649 13.5909 518.649C12.697 518.649 11.9186 518.492 11.2557 518.177C10.589 517.863 10.0739 517.426 9.71022 516.865C9.3428 516.304 9.15909 515.657 9.15909 514.922C9.15909 514.354 9.25378 513.903 9.44318 513.569C9.62878 513.232 9.8409 512.975 10.0795 512.797C10.3144 512.615 10.5076 512.475 10.6591 512.376L10.6591 512.24L9.27272 512.24L9.27272 510.944L18.25 510.944C19 510.944 19.6098 511.115 20.0795 511.456C20.553 511.793 20.8996 512.247 21.1193 512.819C21.3428 513.388 21.4545 514.02 21.4545 514.717ZM16.6591 514.763C16.6591 514.225 16.536 513.77 16.2898 513.399C16.0436 513.028 15.6894 512.746 15.2273 512.552C14.7651 512.359 14.2121 512.263 13.5682 512.263C12.9394 512.263 12.3845 512.357 11.9034 512.547C11.4223 512.736 11.0455 513.016 10.7727 513.388C10.5 513.759 10.3636 514.217 10.3636 514.763C10.3636 515.331 10.5076 515.804 10.7955 516.183C11.0833 516.558 11.4697 516.84 11.9545 517.03C12.4394 517.215 12.9773 517.308 13.5682 517.308C14.1742 517.308 14.7102 517.213 15.1761 517.024C15.6383 516.831 16.0019 516.547 16.267 516.172C16.5284 515.793 16.6591 515.323 16.6591 514.763ZM18.1818 505.151C18.1818 505.992 17.9962 506.717 17.625 507.327C17.25 507.933 16.7273 508.401 16.0568 508.73C15.3826 509.056 14.5985 509.219 13.7045 509.219C12.8106 509.219 12.0227 509.056 11.3409 508.73C10.6553 508.401 10.1212 507.942 9.73863 507.355C9.35227 506.764 9.15909 506.075 9.15909 505.287C9.15909 504.833 9.23484 504.384 9.38636 503.941C9.53787 503.497 9.78409 503.094 10.125 502.73C10.4621 502.367 10.9091 502.077 11.4659 501.861C12.0227 501.645 12.7083 501.537 13.5227 501.537L14.0909 501.537L14.0909 508.264L12.9318 508.264L12.9318 502.901C12.4394 502.901 12 502.999 11.6136 503.196C11.2273 503.389 10.9223 503.666 10.6989 504.026C10.4754 504.382 10.3636 504.802 10.3636 505.287C10.3636 505.821 10.4962 506.283 10.7614 506.674C11.0227 507.06 11.3636 507.357 11.7841 507.566C12.2045 507.774 12.6553 507.878 13.1364 507.878L13.9091 507.878C14.5682 507.878 15.1269 507.764 15.5852 507.537C16.0398 507.306 16.3864 506.986 16.625 506.577C16.8598 506.168 16.9773 505.692 16.9773 505.151C16.9773 504.799 16.928 504.48 16.8295 504.196C16.7273 503.908 16.5758 503.66 16.375 503.452C16.1705 503.244 15.9167 503.083 15.6136 502.969L15.9773 501.674C16.4167 501.81 16.803 502.039 17.1364 502.361C17.4659 502.683 17.7235 503.081 17.9091 503.554C18.0909 504.028 18.1818 504.56 18.1818 505.151ZM9.27272 491.751L10.4091 491.751L10.4091 496.456L9.27272 496.456L9.27272 491.751ZM18 495.047L8.06818 495.047C7.56818 495.047 7.15151 494.929 6.81818 494.694C6.48484 494.459 6.23484 494.154 6.06818 493.779C5.90151 493.404 5.81818 493.009 5.81818 492.592C5.81818 492.262 5.84469 491.993 5.89772 491.785C5.95075 491.577 5.99999 491.422 6.04545 491.319L7.20454 491.706C7.18181 491.774 7.1534 491.868 7.11931 491.99C7.08522 492.107 7.06818 492.262 7.06818 492.456C7.06818 492.899 7.17992 493.219 7.4034 493.416C7.62689 493.609 7.95454 493.706 8.38636 493.706L18 493.706L18 495.047ZM18.1818 487.006C18.1818 487.794 17.9943 488.485 17.6193 489.08C17.2443 489.67 16.7197 490.133 16.0454 490.466C15.3712 490.795 14.5833 490.96 13.6818 490.96C12.7727 490.96 11.9792 490.795 11.3011 490.466C10.6231 490.133 10.0966 489.67 9.72159 489.08C9.34659 488.485 9.15909 487.794 9.15909 487.006C9.15909 486.218 9.34659 485.528 9.72159 484.938C10.0966 484.343 10.6231 483.881 11.3011 483.551C11.9792 483.218 12.7727 483.051 13.6818 483.051C14.5833 483.051 15.3712 483.218 16.0454 483.551C16.7197 483.881 17.2443 484.343 17.6193 484.938C17.9943 485.528 18.1818 486.218 18.1818 487.006ZM16.9773 487.006C16.9773 486.407 16.8239 485.915 16.517 485.528C16.2102 485.142 15.8068 484.856 15.3068 484.67C14.8068 484.485 14.2651 484.392 13.6818 484.392C13.0985 484.392 12.5549 484.485 12.0511 484.67C11.5473 484.856 11.1401 485.142 10.8295 485.528C10.5189 485.915 10.3636 486.407 10.3636 487.006C10.3636 487.604 10.5189 488.097 10.8295 488.483C11.1401 488.869 11.5473 489.155 12.0511 489.341C12.5549 489.527 13.0985 489.619 13.6818 489.619C14.2651 489.619 14.8068 489.527 15.3068 489.341C15.8068 489.155 16.2102 488.869 16.517 488.483C16.8239 488.097 16.9773 487.604 16.9773 487.006ZM18 481.324L9.27272 481.324L9.27272 480.029L10.5909 480.029L10.5909 479.938C10.1591 479.779 9.80871 479.491 9.53977 479.074C9.27083 478.658 9.13636 478.188 9.13636 477.665C9.13636 477.567 9.13825 477.444 9.14204 477.296C9.14583 477.148 9.15151 477.036 9.15909 476.961L10.5227 476.961C10.5114 477.006 10.4943 477.11 10.4716 477.273C10.4451 477.432 10.4318 477.601 10.4318 477.779C10.4318 478.203 10.5208 478.582 10.6989 478.915C10.8731 479.245 11.1155 479.506 11.4261 479.699C11.7329 479.889 12.0833 479.983 12.4773 479.983L18 479.983L18 481.324ZM9.27272 464.966C8.69696 465.034 8.24999 465.31 7.93181 465.795C7.61363 466.28 7.45454 466.875 7.45454 467.579C7.45454 468.094 7.53787 468.545 7.70454 468.932C7.87121 469.314 8.10037 469.613 8.39204 469.829C8.68371 470.041 9.01515 470.148 9.38636 470.148C9.69696 470.148 9.96401 470.074 10.1875 469.926C10.4072 469.774 10.5909 469.581 10.7386 469.346C10.8826 469.112 11.0019 468.865 11.0966 468.608C11.1875 468.35 11.2614 468.113 11.3182 467.898L11.6364 466.716C11.7159 466.413 11.8258 466.076 11.9659 465.704C12.1061 465.329 12.2973 464.971 12.5398 464.63C12.7784 464.286 13.0852 464.002 13.4602 463.778C13.8352 463.555 14.2954 463.443 14.8409 463.443C15.4697 463.443 16.0379 463.608 16.5454 463.937C17.053 464.263 17.4564 464.74 17.7557 465.369C18.0549 465.994 18.2045 466.754 18.2045 467.648C18.2045 468.481 18.0701 469.202 17.8011 469.812C17.5322 470.418 17.1572 470.896 16.6761 471.244C16.1951 471.589 15.6364 471.784 15 471.829L15 470.375C15.4394 470.337 15.803 470.189 16.0909 469.932C16.375 469.67 16.5871 469.341 16.7273 468.943C16.8636 468.541 16.9318 468.11 16.9318 467.648C16.9318 467.11 16.8447 466.627 16.6704 466.199C16.4924 465.771 16.2462 465.432 15.9318 465.182C15.6136 464.932 15.2424 464.807 14.8182 464.807C14.4318 464.807 14.1174 464.915 13.875 465.13C13.6326 465.346 13.4356 465.63 13.2841 465.983C13.1326 466.335 13 466.716 12.8864 467.125L12.4773 468.557C12.2159 469.466 11.8428 470.185 11.3579 470.716C10.8731 471.246 10.2386 471.511 9.45454 471.511C8.80302 471.511 8.23484 471.335 7.74999 470.983C7.26136 470.627 6.88257 470.149 6.61363 469.551C6.3409 468.949 6.20454 468.276 6.20454 467.534C6.20454 466.784 6.33901 466.117 6.60795 465.534C6.8731 464.951 7.23674 464.488 7.69886 464.148C8.16098 463.803 8.6856 463.621 9.27272 463.602L9.27272 464.966ZM6.36363 460.037L18 460.037L18 461.446L6.36363 461.446L6.36363 460.037ZM18 457.532L6.36363 457.532L6.36363 456.123L16.75 456.123L16.75 450.714L18 450.714L18 457.532ZM6.36363 449.468L16.1591 446.014L16.1591 445.877L6.36363 442.423L6.36363 440.946L18 445.218L18 446.673L6.36363 450.946L6.36363 449.468ZM18 439.453L6.36363 439.453L6.36363 432.43L7.61363 432.43L7.61363 438.044L11.5454 438.044L11.5454 432.794L12.7954 432.794L12.7954 438.044L16.75 438.044L16.75 432.339L18 432.339L18 439.453ZM5.18181 436.567L2.54545 435.18L2.54545 433.612L5.18181 435.385L5.18181 436.567ZM18 430.211L6.36363 430.211L6.36363 426.279C6.36363 425.37 6.51893 424.623 6.82954 424.04C7.13636 423.457 7.5587 423.025 8.09658 422.745C8.63446 422.464 9.2462 422.324 9.93181 422.324C10.6174 422.324 11.2254 422.464 11.7557 422.745C12.286 423.025 12.7026 423.455 13.0057 424.034C13.3049 424.614 13.4545 425.355 13.4545 426.256L13.4545 429.438L12.1818 429.438L12.1818 426.302C12.1818 425.68 12.0909 425.18 11.9091 424.802C11.7273 424.419 11.4697 424.142 11.1364 423.972C10.7992 423.798 10.3977 423.711 9.93181 423.711C9.4659 423.711 9.0587 423.798 8.71022 423.972C8.36173 424.146 8.0928 424.425 7.9034 424.807C7.71022 425.19 7.61363 425.695 7.61363 426.324L7.61363 428.802L18 428.802L18 430.211ZM12.7727 424.733L18 421.87L18 423.506L12.7727 426.324L12.7727 424.733ZM6.36363 418.887L18 418.887L18 420.296L6.36363 420.296L6.36363 418.887ZM12.1818 406.564C13.4091 406.564 14.4697 406.785 15.3636 407.228C16.2576 407.672 16.947 408.28 17.4318 409.052C17.9167 409.825 18.1591 410.708 18.1591 411.7C18.1591 412.692 17.9167 413.575 17.4318 414.348C16.947 415.12 16.2576 415.728 15.3636 416.172C14.4697 416.615 13.4091 416.836 12.1818 416.836C10.9545 416.836 9.89393 416.615 8.99999 416.172C8.10605 415.728 7.41666 415.12 6.93181 414.348C6.44696 413.575 6.20454 412.692 6.20454 411.7C6.20454 410.708 6.44696 409.825 6.93181 409.052C7.41666 408.28 8.10605 407.672 8.99999 407.228C9.89393 406.785 10.9545 406.564 12.1818 406.564ZM12.1818 407.927C11.1742 407.927 10.3239 408.096 9.63067 408.433C8.93749 408.766 8.41287 409.219 8.05681 409.791C7.70075 410.359 7.52272 410.995 7.52272 411.7C7.52272 412.405 7.70075 413.043 8.05681 413.615C8.41287 414.183 8.93749 414.636 9.63067 414.973C10.3239 415.306 11.1742 415.473 12.1818 415.473C13.1894 415.473 14.0398 415.306 14.7329 414.973C15.4261 414.636 15.9507 414.183 16.3068 413.615C16.6629 413.043 16.8409 412.405 16.8409 411.7C16.8409 410.995 16.6629 410.359 16.3068 409.791C15.9507 409.219 15.4261 408.766 14.7329 408.433C14.0398 408.096 13.1894 407.927 12.1818 407.927ZM6.36363 395.287L18 395.287L18 396.651L8.86363 402.992L8.86363 403.105L18 403.105L18 404.514L6.36363 404.514L6.36363 403.151L15.5227 396.787L15.5227 396.673L6.36363 396.673L6.36363 395.287ZM12.7954 390.424L8.60226 390.424L8.60226 388.299C8.60226 388.128 8.65151 387.943 8.74999 387.742C8.84469 387.541 8.99241 387.371 9.19317 387.231C9.39014 387.087 9.64014 387.015 9.94317 387.015C10.25 387.015 10.5114 387.089 10.7273 387.236C10.9394 387.384 11.1004 387.564 11.2102 387.776C11.3201 387.984 11.375 388.181 11.375 388.367L11.375 389.901L10.6932 389.901L10.6932 388.651C10.6932 388.526 10.6307 388.392 10.5057 388.248C10.3807 388.1 10.1932 388.026 9.94317 388.026C9.6856 388.026 9.51135 388.1 9.42044 388.248C9.32954 388.392 9.28408 388.519 9.28408 388.628L9.28408 389.503L12.7954 389.503L12.7954 390.424ZM10.8182 387.89L12.7954 386.844L12.7954 387.856L10.8182 388.878L10.8182 387.89ZM15.2954 388.833C15.2954 389.462 15.178 390.051 14.9432 390.6C14.7083 391.149 14.3826 391.632 13.9659 392.049C13.5492 392.466 13.0663 392.791 12.517 393.026C11.9678 393.261 11.3788 393.378 10.75 393.378C10.1212 393.378 9.53219 393.261 8.98294 393.026C8.4337 392.791 7.95075 392.466 7.53408 392.049C7.11741 391.632 6.79166 391.149 6.55681 390.6C6.32196 390.051 6.20454 389.462 6.20454 388.833C6.20454 388.204 6.32196 387.615 6.55681 387.066C6.79166 386.517 7.11741 386.034 7.53408 385.617C7.95075 385.2 8.4337 384.875 8.98294 384.64C9.53219 384.405 10.1212 384.287 10.75 384.287C11.3788 384.287 11.9678 384.405 12.517 384.64C13.0663 384.875 13.5492 385.2 13.9659 385.617C14.3826 386.034 14.7083 386.517 14.9432 387.066C15.178 387.615 15.2954 388.204 15.2954 388.833ZM14.2045 388.833C14.2045 388.197 14.0492 387.617 13.7386 387.094C13.428 386.572 13.0114 386.155 12.4886 385.844C11.9659 385.534 11.3864 385.378 10.75 385.378C10.1136 385.378 9.53408 385.534 9.01135 385.844C8.48863 386.155 8.07196 386.572 7.76135 387.094C7.45075 387.617 7.29544 388.197 7.29544 388.833C7.29544 389.469 7.45075 390.049 7.76135 390.572C8.07196 391.094 8.48863 391.511 9.01135 391.822C9.53408 392.132 10.1136 392.287 10.75 392.287C11.3864 392.287 11.9659 392.132 12.4886 391.822C13.0114 391.511 13.428 391.094 13.7386 390.572C14.0492 390.049 14.2045 389.469 14.2045 388.833ZM18 378.398L16.9773 378.398L12.7727 374.557C12.2803 374.106 11.8523 373.735 11.4886 373.443C11.1212 373.151 10.7765 372.936 10.4545 372.795C10.1288 372.651 9.78787 372.579 9.43181 372.579C9.02272 372.579 8.66855 372.678 8.36931 372.875C8.07007 373.068 7.839 373.333 7.67613 373.67C7.51325 374.007 7.43181 374.386 7.43181 374.807C7.43181 375.254 7.52461 375.644 7.71022 375.977C7.89203 376.307 8.14772 376.562 8.47726 376.744C8.80681 376.922 9.19317 377.011 9.63635 377.011L9.63635 378.352C8.95454 378.352 8.35605 378.195 7.8409 377.881C7.32575 377.566 6.92423 377.138 6.63635 376.597C6.34847 376.051 6.20453 375.439 6.20453 374.761C6.20453 374.079 6.34847 373.475 6.63635 372.949C6.92423 372.422 7.31249 372.009 7.80113 371.71C8.28976 371.411 8.83332 371.261 9.43181 371.261C9.85984 371.261 10.2784 371.339 10.6875 371.494C11.0928 371.646 11.5454 371.911 12.0454 372.29C12.5417 372.665 13.1477 373.186 13.8636 373.852L16.6591 376.466L16.75 376.466L16.75 371.057L18 371.057L18 378.398ZM15.6136 369.553L14.4545 369.553L6.36363 364.439L6.36363 363.598L8.15908 363.598L8.15908 364.167L14.2727 368.03L14.3636 368.03L14.3636 361.144L15.6136 361.144L15.6136 369.553ZM18 364.076L15.2614 364.076L14.7216 364.076L6.36363 364.076L6.36363 362.735L18 362.735L18 364.076ZM18.1591 355.539C18.1591 356.395 17.9261 357.124 17.4602 357.727C16.9905 358.329 16.3106 358.789 15.4204 359.107C14.5265 359.425 13.447 359.585 12.1818 359.585C10.9242 359.585 9.85037 359.425 8.96022 359.107C8.06628 358.785 7.38446 358.323 6.91476 357.721C6.44128 357.115 6.20453 356.388 6.20453 355.539C6.20453 354.691 6.44128 353.965 6.91476 353.363C7.38446 352.757 8.06628 352.295 8.96022 351.977C9.85037 351.655 10.9242 351.494 12.1818 351.494C13.447 351.494 14.5265 351.653 15.4204 351.971C16.3106 352.289 16.9905 352.749 17.4602 353.352C17.9261 353.954 18.1591 354.683 18.1591 355.539ZM16.9091 355.539C16.9091 354.691 16.5 354.031 15.6818 353.562C14.8636 353.092 13.697 352.857 12.1818 352.857C11.1742 352.857 10.3163 352.965 9.60794 353.181C8.89961 353.393 8.35984 353.7 7.98863 354.102C7.61741 354.499 7.43181 354.978 7.43181 355.539C7.43181 356.38 7.84658 357.037 8.67613 357.511C9.50188 357.984 10.6704 358.221 12.1818 358.221C13.1894 358.221 14.0454 358.115 14.75 357.903C15.4545 357.691 15.9905 357.386 16.3579 356.988C16.7254 356.586 16.9091 356.103 16.9091 355.539ZM18.1591 345.859C18.1591 346.715 17.9261 347.444 17.4602 348.047C16.9905 348.649 16.3106 349.109 15.4204 349.427C14.5265 349.745 13.447 349.905 12.1818 349.905C10.9242 349.905 9.85037 349.745 8.96022 349.427C8.06628 349.105 7.38446 348.643 6.91476 348.041C6.44128 347.435 6.20453 346.708 6.20453 345.859C6.20453 345.011 6.44128 344.285 6.91476 343.683C7.38446 343.077 8.06628 342.615 8.96022 342.297C9.85037 341.975 10.9242 341.814 12.1818 341.814C13.447 341.814 14.5265 341.973 15.4204 342.291C16.3106 342.609 16.9905 343.069 17.4602 343.672C17.9261 344.274 18.1591 345.003 18.1591 345.859ZM16.9091 345.859C16.9091 345.011 16.5 344.351 15.6818 343.882C14.8636 343.412 13.697 343.177 12.1818 343.177C11.1742 343.177 10.3163 343.285 9.60794 343.501C8.89961 343.713 8.35984 344.02 7.98862 344.422C7.61741 344.819 7.43181 345.298 7.43181 345.859C7.43181 346.7 7.84658 347.357 8.67612 347.831C9.50188 348.304 10.6704 348.541 12.1818 348.541C13.1894 348.541 14.0454 348.435 14.75 348.223C15.4545 348.011 15.9905 347.706 16.3579 347.308C16.7254 346.906 16.9091 346.423 16.9091 345.859Z" fill="var(--_theme---neutral--11)"/>
<path d="M62.208 73V61.672C62.208 60.664 62.36 59.784 62.664 59.032H61.56C61.256 59.976 60.768 60.744 60.096 61.336C59.424 61.912 58.616 62.264 57.672 62.392V59.896C59.944 59.384 61.6 58.152 62.64 56.2H64.56V73H62.208ZM67.8958 73V69.88H70.9678V73H67.8958ZM72.0452 64.528C72.0452 61.824 72.6772 59.704 73.9412 58.168C75.2212 56.632 76.8372 55.864 78.7892 55.864C80.7252 55.864 82.3252 56.632 83.5892 58.168C84.8532 59.704 85.4852 61.824 85.4852 64.528C85.4852 67.312 84.8772 69.48 83.6612 71.032C82.4452 72.568 80.8212 73.336 78.7892 73.336C76.7252 73.336 75.0852 72.568 73.8692 71.032C72.6532 69.496 72.0452 67.328 72.0452 64.528ZM82.9652 64.528C82.9652 62.544 82.5812 60.96 81.8132 59.776C81.0612 58.592 80.0532 58 78.7892 58C77.5092 58 76.4852 58.592 75.7172 59.776C74.9492 60.96 74.5652 62.544 74.5652 64.528C74.5652 66.672 74.9332 68.32 75.6692 69.472C76.4212 70.624 77.4612 71.2 78.7892 71.2C80.1012 71.2 81.1252 70.624 81.8612 69.472C82.5972 68.32 82.9652 66.672 82.9652 64.528Z" fill="var(--_theme---accentl--9)"/>
<path d="M58.368 112.403C58.368 109.699 59 107.579 60.264 106.043C61.544 104.507 63.16 103.739 65.112 103.739C67.048 103.739 68.648 104.507 69.912 106.043C71.176 107.579 71.808 109.699 71.808 112.403C71.808 115.187 71.2 117.355 69.984 118.907C68.768 120.443 67.144 121.211 65.112 121.211C63.048 121.211 61.408 120.443 60.192 118.907C58.976 117.371 58.368 115.203 58.368 112.403ZM69.288 112.403C69.288 110.419 68.904 108.835 68.136 107.651C67.384 106.467 66.376 105.875 65.112 105.875C63.832 105.875 62.808 106.467 62.04 107.651C61.272 108.835 60.888 110.419 60.888 112.403C60.888 114.547 61.256 116.195 61.992 117.347C62.744 118.499 63.784 119.075 65.112 119.075C66.424 119.075 67.448 118.499 68.184 117.347C68.92 116.195 69.288 114.547 69.288 112.403ZM72.888 120.875V117.755H75.96V120.875H72.888ZM78.1852 116.531C78.1852 115.395 78.5772 114.491 79.3612 113.819C80.1452 113.131 81.1612 112.747 82.4092 112.667V111.683C81.2572 111.603 80.3372 111.259 79.6492 110.651C78.9772 110.027 78.6412 109.187 78.6412 108.131C78.6412 106.851 79.1452 105.803 80.1532 104.987C81.1612 104.155 82.4812 103.739 84.1132 103.739C85.7292 103.739 87.0412 104.155 88.0492 104.987C89.0732 105.819 89.5852 106.867 89.5852 108.131C89.5852 109.187 89.2413 110.027 88.5533 110.651C87.8812 111.259 86.9692 111.603 85.8172 111.683V112.667C87.0812 112.747 88.0972 113.123 88.8653 113.795C89.6333 114.467 90.0173 115.379 90.0173 116.531C90.0173 117.891 89.4973 119.011 88.4573 119.891C87.4332 120.771 85.9852 121.211 84.1132 121.211C82.2412 121.211 80.7852 120.771 79.7452 119.891C78.7052 119.011 78.1852 117.891 78.1852 116.531ZM87.1853 108.395C87.1853 107.643 86.8972 107.027 86.3212 106.547C85.7452 106.051 85.0092 105.803 84.1132 105.803C83.2172 105.803 82.4812 106.051 81.9052 106.547C81.3292 107.027 81.0412 107.643 81.0412 108.395C81.0412 109.227 81.3212 109.883 81.8812 110.363C82.4572 110.843 83.2012 111.083 84.1132 111.083C84.9932 111.083 85.7212 110.843 86.2973 110.363C86.8893 109.867 87.1853 109.211 87.1853 108.395ZM86.5852 118.331C87.2092 117.803 87.5213 117.099 87.5213 116.219C87.5213 115.339 87.2092 114.635 86.5852 114.107C85.9612 113.579 85.1292 113.315 84.0892 113.315C83.1612 113.315 82.3612 113.595 81.6892 114.155C81.0172 114.715 80.6812 115.403 80.6812 116.219C80.6812 117.099 80.9932 117.803 81.6172 118.331C82.2412 118.859 83.0652 119.123 84.0892 119.123C85.1453 119.123 85.9773 118.859 86.5852 118.331Z" fill="var(--_theme---accentl--9)"/>
<path d="M58.368 160.278C58.368 157.574 59 155.454 60.264 153.918C61.544 152.382 63.16 151.614 65.112 151.614C67.048 151.614 68.648 152.382 69.912 153.918C71.176 155.454 71.808 157.574 71.808 160.278C71.808 163.062 71.2 165.23 69.984 166.782C68.768 168.318 67.144 169.086 65.112 169.086C63.048 169.086 61.408 168.318 60.192 166.782C58.976 165.246 58.368 163.078 58.368 160.278ZM69.288 160.278C69.288 158.294 68.904 156.71 68.136 155.526C67.384 154.342 66.376 153.75 65.112 153.75C63.832 153.75 62.808 154.342 62.04 155.526C61.272 156.71 60.888 158.294 60.888 160.278C60.888 162.422 61.256 164.07 61.992 165.222C62.744 166.374 63.784 166.95 65.112 166.95C66.424 166.95 67.448 166.374 68.184 165.222C68.92 164.07 69.288 162.422 69.288 160.278ZM72.888 168.75V165.63H75.96V168.75H72.888ZM78.0446 160.926C78.0126 158.174 78.7166 155.926 80.1566 154.182C81.5966 152.438 83.5806 151.582 86.1086 151.614C87.3246 151.614 88.3886 151.782 89.3006 152.118V154.446C88.2766 154.078 87.2606 153.894 86.2526 153.894C84.3326 153.894 82.7806 154.518 81.5966 155.766C80.4126 157.014 79.8126 158.822 79.7966 161.19H80.7806C80.9886 160.262 81.4686 159.478 82.2206 158.838C82.9726 158.182 83.9086 157.854 85.0286 157.854C86.5806 157.854 87.8446 158.374 88.8206 159.414C89.8126 160.438 90.3086 161.71 90.3086 163.23C90.3086 164.91 89.7726 166.31 88.7006 167.43C87.6446 168.534 86.2126 169.086 84.4046 169.086C82.4526 169.086 80.9006 168.374 79.7486 166.95C78.6126 165.51 78.0446 163.502 78.0446 160.926ZM87.8126 163.446C87.8126 162.406 87.4846 161.558 86.8286 160.902C86.1726 160.23 85.3646 159.894 84.4046 159.894C83.4126 159.894 82.5966 160.222 81.9566 160.878C81.3166 161.518 80.9966 162.374 80.9966 163.446C80.9966 164.518 81.3166 165.382 81.9566 166.038C82.5966 166.678 83.4126 166.998 84.4046 166.998C85.3646 166.998 86.1726 166.67 86.8286 166.014C87.4846 165.358 87.8126 164.502 87.8126 163.446Z" fill="var(--_theme---accentl--9)"/>
<path d="M58.368 208.153C58.368 205.449 59 203.329 60.264 201.793C61.544 200.257 63.16 199.489 65.112 199.489C67.048 199.489 68.648 200.257 69.912 201.793C71.176 203.329 71.808 205.449 71.808 208.153C71.808 210.937 71.2 213.105 69.984 214.657C68.768 216.193 67.144 216.961 65.112 216.961C63.048 216.961 61.408 216.193 60.192 214.657C58.976 213.121 58.368 210.953 58.368 208.153ZM69.288 208.153C69.288 206.169 68.904 204.585 68.136 203.401C67.384 202.217 66.376 201.625 65.112 201.625C63.832 201.625 62.808 202.217 62.04 203.401C61.272 204.585 60.888 206.169 60.888 208.153C60.888 210.297 61.256 211.945 61.992 213.097C62.744 214.249 63.784 214.825 65.112 214.825C66.424 214.825 67.448 214.249 68.184 213.097C68.92 211.945 69.288 210.297 69.288 208.153ZM72.888 216.625V213.505H75.96V216.625H72.888ZM85.4332 216.625V212.089H77.5372V209.833L84.1853 199.825H87.7612V210.049H90.2333V212.089H87.7612V216.625H85.4332ZM85.4332 210.049V205.753C85.4332 204.905 85.5132 204.217 85.6733 203.689C85.8492 203.161 86.1212 202.633 86.4892 202.105L85.5773 201.505L79.9132 210.049L79.7212 210.337L80.5612 210.985C80.8812 210.649 81.2092 210.409 81.5452 210.265C81.8972 210.121 82.4332 210.049 83.1532 210.049H85.4332Z" fill="var(--_theme---accentl--9)"/>
<path d="M58.368 256.028C58.368 253.324 59 251.204 60.264 249.668C61.544 248.132 63.16 247.364 65.112 247.364C67.048 247.364 68.648 248.132 69.912 249.668C71.176 251.204 71.808 253.324 71.808 256.028C71.808 258.812 71.2 260.98 69.984 262.532C68.768 264.068 67.144 264.836 65.112 264.836C63.048 264.836 61.408 264.068 60.192 262.532C58.976 260.996 58.368 258.828 58.368 256.028ZM69.288 256.028C69.288 254.044 68.904 252.46 68.136 251.276C67.384 250.092 66.376 249.5 65.112 249.5C63.832 249.5 62.808 250.092 62.04 251.276C61.272 252.46 60.888 254.044 60.888 256.028C60.888 258.172 61.256 259.82 61.992 260.972C62.744 262.124 63.784 262.7 65.112 262.7C66.424 262.7 67.448 262.124 68.184 260.972C68.92 259.82 69.288 258.172 69.288 256.028ZM72.888 264.5V261.38H75.96V264.5H72.888ZM78.2812 264.5V261.884C80.1852 260.684 81.6892 259.668 82.7932 258.836C85.4812 256.788 86.8252 254.788 86.8252 252.836C86.8252 251.812 86.5292 251.004 85.9372 250.412C85.3612 249.804 84.6412 249.5 83.7772 249.5C82.8332 249.5 82.0572 249.836 81.4492 250.508C80.8572 251.18 80.5612 252.084 80.5612 253.22L78.1372 252.908C78.1692 251.26 78.6892 249.924 79.6972 248.9C80.7212 247.876 82.0892 247.364 83.8012 247.364C85.4973 247.364 86.8413 247.852 87.8333 248.828C88.8413 249.788 89.3453 251.036 89.3453 252.572C89.3453 254.332 88.7613 255.892 87.5932 257.252C86.3612 258.692 83.9132 260.428 80.2492 262.46L80.8492 263.372C81.9212 262.652 83.1132 262.292 84.4252 262.292H89.5373V264.5H78.2812Z" fill="var(--_theme---accentl--9)"/>
<path d="M63.0267 315.028C63.0267 312.324 63.6587 310.204 64.9227 308.668C66.2027 307.132 67.8187 306.364 69.7707 306.364C71.7067 306.364 73.3067 307.132 74.5707 308.668C75.8347 310.204 76.4667 312.324 76.4667 315.028C76.4667 317.812 75.8587 319.98 74.6427 321.532C73.4267 323.068 71.8027 323.836 69.7707 323.836C67.7067 323.836 66.0667 323.068 64.8507 321.532C63.6347 319.996 63.0267 317.828 63.0267 315.028ZM73.9467 315.028C73.9467 313.044 73.5627 311.46 72.7947 310.276C72.0427 309.092 71.0347 308.5 69.7707 308.5C68.4907 308.5 67.4667 309.092 66.6987 310.276C65.9307 311.46 65.5467 313.044 65.5467 315.028C65.5467 317.172 65.9147 318.82 66.6507 319.972C67.4027 321.124 68.4427 321.7 69.7707 321.7C71.0827 321.7 72.1067 321.124 72.8427 319.972C73.5787 318.82 73.9467 317.172 73.9467 315.028ZM77.5467 323.5V320.38H80.6187V323.5H77.5467ZM81.6961 315.028C81.6961 312.324 82.3281 310.204 83.5921 308.668C84.8721 307.132 86.4881 306.364 88.4401 306.364C90.3761 306.364 91.9761 307.132 93.2401 308.668C94.5041 310.204 95.1361 312.324 95.1361 315.028C95.1361 317.812 94.5281 319.98 93.3121 321.532C92.0961 323.068 90.4721 323.836 88.4401 323.836C86.3761 323.836 84.7361 323.068 83.5201 321.532C82.3041 319.996 81.6961 317.828 81.6961 315.028ZM92.6161 315.028C92.6161 313.044 92.2321 311.46 91.4641 310.276C90.7121 309.092 89.7041 308.5 88.4401 308.5C87.1601 308.5 86.1361 309.092 85.3681 310.276C84.6001 311.46 84.2161 313.044 84.2161 315.028C84.2161 317.172 84.5841 318.82 85.3201 319.972C86.0721 321.124 87.1121 321.7 88.4401 321.7C89.7521 321.7 90.7761 321.124 91.5121 319.972C92.2481 318.82 92.6161 317.172 92.6161 315.028Z" fill="var(--_theme---accentl--9)"/>
<path d="M54.7992 376.212V373.884H61.7352V376.212H54.7992ZM64.0111 374.028C64.0111 371.324 64.6431 369.204 65.9071 367.668C67.1871 366.132 68.8031 365.364 70.7551 365.364C72.6911 365.364 74.2911 366.132 75.5551 367.668C76.8191 369.204 77.4511 371.324 77.4511 374.028C77.4511 376.812 76.8431 378.98 75.6271 380.532C74.4111 382.068 72.7871 382.836 70.7551 382.836C68.6911 382.836 67.0511 382.068 65.8351 380.532C64.6191 378.996 64.0111 376.828 64.0111 374.028ZM74.9311 374.028C74.9311 372.044 74.5471 370.46 73.7791 369.276C73.0271 368.092 72.0191 367.5 70.7551 367.5C69.4751 367.5 68.4511 368.092 67.6831 369.276C66.9151 370.46 66.5311 372.044 66.5311 374.028C66.5311 376.172 66.8991 377.82 67.6351 378.972C68.3871 380.124 69.4271 380.7 70.7551 380.7C72.0671 380.7 73.0911 380.124 73.8271 378.972C74.5631 377.82 74.9311 376.172 74.9311 374.028ZM78.5311 382.5V379.38H81.6031V382.5H78.5311ZM83.9244 382.5V379.884C85.8284 378.684 87.3324 377.668 88.4364 376.836C91.1244 374.788 92.4684 372.788 92.4684 370.836C92.4684 369.812 92.1724 369.004 91.5804 368.412C91.0044 367.804 90.2844 367.5 89.4204 367.5C88.4764 367.5 87.7004 367.836 87.0924 368.508C86.5004 369.18 86.2044 370.084 86.2044 371.22L83.7804 370.908C83.8124 369.26 84.3324 367.924 85.3404 366.9C86.3644 365.876 87.7324 365.364 89.4444 365.364C91.1404 365.364 92.4844 365.852 93.4764 366.828C94.4844 367.788 94.9884 369.036 94.9884 370.572C94.9884 372.332 94.4044 373.892 93.2364 375.252C92.0044 376.692 89.5564 378.428 85.8924 380.46L86.4924 381.372C87.5644 380.652 88.7564 380.292 90.0684 380.292H95.1804V382.5H83.9244Z" fill="var(--_theme---accentl--9)"/>
<path d="M54.5883 424.087V421.759H61.5243V424.087H54.5883ZM63.8002 421.903C63.8002 419.199 64.4322 417.079 65.6962 415.543C66.9762 414.007 68.5922 413.239 70.5442 413.239C72.4802 413.239 74.0802 414.007 75.3442 415.543C76.6082 417.079 77.2402 419.199 77.2402 421.903C77.2402 424.687 76.6322 426.855 75.4162 428.407C74.2002 429.943 72.5762 430.711 70.5442 430.711C68.4802 430.711 66.8402 429.943 65.6242 428.407C64.4082 426.871 63.8002 424.703 63.8002 421.903ZM74.7202 421.903C74.7202 419.919 74.3362 418.335 73.5682 417.151C72.8162 415.967 71.8082 415.375 70.5442 415.375C69.2642 415.375 68.2402 415.967 67.4722 417.151C66.7042 418.335 66.3202 419.919 66.3202 421.903C66.3202 424.047 66.6882 425.695 67.4242 426.847C68.1762 427.999 69.2162 428.575 70.5442 428.575C71.8562 428.575 72.8802 427.999 73.6162 426.847C74.3522 425.695 74.7202 424.047 74.7202 421.903ZM78.3202 430.375V427.255H81.3922V430.375H78.3202ZM90.8654 430.375V425.839H82.9694V423.583L89.6174 413.575H93.1934V423.799H95.6654V425.839H93.1934V430.375H90.8654ZM90.8654 423.799V419.503C90.8654 418.655 90.9454 417.967 91.1054 417.439C91.2814 416.911 91.5534 416.383 91.9214 415.855L91.0094 415.255L85.3454 423.799L85.1534 424.087L85.9934 424.735C86.3134 424.399 86.6414 424.159 86.9774 424.015C87.3294 423.871 87.8654 423.799 88.5854 423.799H90.8654Z" fill="var(--_theme---accentl--9)"/>
<path d="M54.2367 471.962V469.634H61.1727V471.962H54.2367ZM63.4486 469.778C63.4486 467.074 64.0806 464.954 65.3446 463.418C66.6246 461.882 68.2406 461.114 70.1926 461.114C72.1286 461.114 73.7286 461.882 74.9926 463.418C76.2566 464.954 76.8886 467.074 76.8886 469.778C76.8886 472.562 76.2806 474.73 75.0646 476.282C73.8486 477.818 72.2246 478.586 70.1926 478.586C68.1286 478.586 66.4886 477.818 65.2726 476.282C64.0566 474.746 63.4486 472.578 63.4486 469.778ZM74.3686 469.778C74.3686 467.794 73.9846 466.21 73.2166 465.026C72.4646 463.842 71.4566 463.25 70.1926 463.25C68.9126 463.25 67.8886 463.842 67.1206 465.026C66.3526 466.21 65.9686 467.794 65.9686 469.778C65.9686 471.922 66.3366 473.57 67.0726 474.722C67.8246 475.874 68.8646 476.45 70.1926 476.45C71.5046 476.45 72.5286 475.874 73.2646 474.722C74.0006 473.57 74.3686 471.922 74.3686 469.778ZM77.9686 478.25V475.13H81.0406V478.25H77.9686ZM83.1253 470.426C83.0933 467.674 83.7973 465.426 85.2373 463.682C86.6773 461.938 88.6613 461.082 91.1893 461.114C92.4053 461.114 93.4693 461.282 94.3813 461.618V463.946C93.3573 463.578 92.3413 463.394 91.3333 463.394C89.4133 463.394 87.8613 464.018 86.6773 465.266C85.4933 466.514 84.8933 468.322 84.8773 470.69H85.8613C86.0693 469.762 86.5493 468.978 87.3013 468.338C88.0533 467.682 88.9893 467.354 90.1093 467.354C91.6613 467.354 92.9253 467.874 93.9012 468.914C94.8933 469.938 95.3893 471.21 95.3893 472.73C95.3893 474.41 94.8533 475.81 93.7812 476.93C92.7253 478.034 91.2933 478.586 89.4853 478.586C87.5333 478.586 85.9813 477.874 84.8293 476.45C83.6933 475.01 83.1253 473.002 83.1253 470.426ZM92.8933 472.946C92.8933 471.906 92.5653 471.058 91.9093 470.402C91.2533 469.73 90.4453 469.394 89.4853 469.394C88.4933 469.394 87.6773 469.722 87.0373 470.378C86.3973 471.018 86.0773 471.874 86.0773 472.946C86.0773 474.018 86.3973 474.882 87.0373 475.538C87.6773 476.178 88.4933 476.498 89.4853 476.498C90.4453 476.498 91.2533 476.17 91.9093 475.514C92.5653 474.858 92.8933 474.002 92.8933 472.946Z" fill="var(--_theme---accentl--9)"/>
<path d="M54.2836 519.837V517.509H61.2196V519.837H54.2836ZM63.4955 517.653C63.4955 514.949 64.1275 512.829 65.3915 511.293C66.6715 509.757 68.2875 508.989 70.2395 508.989C72.1755 508.989 73.7755 509.757 75.0395 511.293C76.3035 512.829 76.9355 514.949 76.9355 517.653C76.9355 520.437 76.3275 522.605 75.1115 524.157C73.8955 525.693 72.2715 526.461 70.2395 526.461C68.1755 526.461 66.5355 525.693 65.3195 524.157C64.1035 522.621 63.4955 520.453 63.4955 517.653ZM74.4155 517.653C74.4155 515.669 74.0315 514.085 73.2635 512.901C72.5115 511.717 71.5035 511.125 70.2395 511.125C68.9595 511.125 67.9355 511.717 67.1675 512.901C66.3995 514.085 66.0155 515.669 66.0155 517.653C66.0155 519.797 66.3835 521.445 67.1195 522.597C67.8715 523.749 68.9115 524.325 70.2395 524.325C71.5515 524.325 72.5755 523.749 73.3115 522.597C74.0475 521.445 74.4155 519.797 74.4155 517.653ZM78.0155 526.125V523.005H81.0875V526.125H78.0155ZM83.3128 521.781C83.3128 520.645 83.7048 519.741 84.4888 519.069C85.2728 518.381 86.2888 517.997 87.5368 517.917V516.933C86.3848 516.853 85.4648 516.509 84.7768 515.901C84.1048 515.277 83.7688 514.437 83.7688 513.381C83.7688 512.101 84.2728 511.053 85.2808 510.237C86.2888 509.405 87.6088 508.989 89.2408 508.989C90.8568 508.989 92.1688 509.405 93.1768 510.237C94.2008 511.069 94.7128 512.117 94.7128 513.381C94.7128 514.437 94.3688 515.277 93.6808 515.901C93.0088 516.509 92.0968 516.853 90.9448 516.933V517.917C92.2088 517.997 93.2248 518.373 93.9928 519.045C94.7608 519.717 95.1448 520.629 95.1448 521.781C95.1448 523.141 94.6248 524.261 93.5848 525.141C92.5608 526.021 91.1128 526.461 89.2408 526.461C87.3688 526.461 85.9128 526.021 84.8728 525.141C83.8328 524.261 83.3128 523.141 83.3128 521.781ZM92.3128 513.645C92.3128 512.893 92.0248 512.277 91.4488 511.797C90.8728 511.301 90.1368 511.053 89.2408 511.053C88.3448 511.053 87.6088 511.301 87.0328 511.797C86.4568 512.277 86.1688 512.893 86.1688 513.645C86.1688 514.477 86.4488 515.133 87.0088 515.613C87.5848 516.093 88.3288 516.333 89.2408 516.333C90.1208 516.333 90.8488 516.093 91.4248 515.613C92.0168 515.117 92.3128 514.461 92.3128 513.645ZM91.7128 523.581C92.3368 523.053 92.6488 522.349 92.6488 521.469C92.6488 520.589 92.3368 519.885 91.7128 519.357C91.0888 518.829 90.2568 518.565 89.2168 518.565C88.2888 518.565 87.4888 518.845 86.8168 519.405C86.1448 519.965 85.8088 520.653 85.8088 521.469C85.8088 522.349 86.1208 523.053 86.7448 523.581C87.3688 524.109 88.1928 524.373 89.2168 524.373C90.2728 524.373 91.1048 524.109 91.7128 523.581Z" fill="var(--_theme---accentl--9)"/>
<path d="M54.8071 567.712V565.384H61.7431V567.712H54.8071ZM67.8589 574V562.672C67.8589 561.664 68.0109 560.784 68.3149 560.032H67.2109C66.9069 560.976 66.4189 561.744 65.7469 562.336C65.0749 562.912 64.2669 563.264 63.3229 563.392V560.896C65.5949 560.384 67.2509 559.152 68.2909 557.2H70.2109V574H67.8589ZM73.5467 574V570.88H76.6187V574H73.5467ZM77.6961 565.528C77.6961 562.824 78.3281 560.704 79.5921 559.168C80.8721 557.632 82.4881 556.864 84.4401 556.864C86.3761 556.864 87.9761 557.632 89.2401 559.168C90.5041 560.704 91.1361 562.824 91.1361 565.528C91.1361 568.312 90.5281 570.48 89.3121 572.032C88.0961 573.568 86.4721 574.336 84.4401 574.336C82.3761 574.336 80.7361 573.568 79.5201 572.032C78.3041 570.496 77.6961 568.328 77.6961 565.528ZM88.6161 565.528C88.6161 563.544 88.2321 561.96 87.4641 560.776C86.7121 559.592 85.7041 559 84.4401 559C83.1601 559 82.1361 559.592 81.3681 560.776C80.6001 561.96 80.2161 563.544 80.2161 565.528C80.2161 567.672 80.5841 569.32 81.3201 570.472C82.0721 571.624 83.1121 572.2 84.4401 572.2C85.7521 572.2 86.7761 571.624 87.5121 570.472C88.2481 569.32 88.6161 567.672 88.6161 565.528Z" fill="var(--_theme---accentl--9)"/>
<line opacity="0.21" x1="129" y1="67.5" x2="686" y2="67.5" stroke="var(--_theme---accentl--7)"/>
<line opacity="0.21" x1="129" y1="114.589" x2="686" y2="114.589" stroke="var(--_theme---accentl--7)"/>
<line opacity="0.21" x1="129" y1="161.679" x2="686" y2="161.679" stroke="var(--_theme---accentl--7)"/>
<line opacity="0.21" x1="129" y1="208.768" x2="686" y2="208.768" stroke="var(--_theme---accentl--7)"/>
<line opacity="0.21" x1="129" y1="255.857" x2="686" y2="255.857" stroke="var(--_theme---accentl--7)"/>
<path d="M135.2 308.446V297.118C135.2 296.11 135.352 295.23 135.656 294.478H134.552C134.248 295.422 133.76 296.19 133.088 296.782C132.416 297.358 131.608 297.71 130.664 297.838V295.342C132.936 294.83 134.592 293.598 135.632 291.646H137.552V308.446H135.2Z" fill="var(--_theme---accentl--9)"/>
<path d="M155.071 308.446V305.83C156.975 304.63 158.479 303.614 159.583 302.782C162.271 300.734 163.615 298.734 163.615 296.782C163.615 295.758 163.319 294.95 162.727 294.358C162.151 293.75 161.431 293.446 160.567 293.446C159.623 293.446 158.847 293.782 158.239 294.454C157.647 295.126 157.351 296.03 157.351 297.166L154.927 296.854C154.959 295.206 155.479 293.87 156.487 292.846C157.511 291.822 158.879 291.31 160.591 291.31C162.287 291.31 163.631 291.798 164.623 292.774C165.631 293.734 166.135 294.982 166.135 296.518C166.135 298.278 165.551 299.838 164.383 301.198C163.151 302.638 160.703 304.374 157.039 306.406L157.639 307.318C158.711 306.598 159.903 306.238 161.215 306.238H166.327V308.446H155.071Z" fill="var(--_theme---accentl--9)"/>
<path d="M182.241 303.646L184.761 303.118C184.809 304.222 185.145 305.094 185.769 305.734C186.393 306.374 187.217 306.694 188.241 306.694C189.169 306.694 189.929 306.438 190.521 305.926C191.129 305.398 191.433 304.694 191.433 303.814C191.433 302.95 191.129 302.254 190.521 301.726C189.913 301.198 189.129 300.934 188.169 300.934H186.993V298.894H188.169C189.001 298.894 189.705 298.638 190.281 298.126C190.873 297.614 191.169 296.95 191.169 296.134C191.169 295.334 190.881 294.678 190.305 294.166C189.745 293.654 189.057 293.398 188.241 293.398C187.361 293.398 186.641 293.678 186.081 294.238C185.521 294.782 185.201 295.51 185.121 296.422L182.673 295.966C182.769 294.622 183.321 293.51 184.329 292.63C185.337 291.75 186.641 291.31 188.241 291.31C189.873 291.31 191.169 291.726 192.129 292.558C193.105 293.39 193.593 294.446 193.593 295.726C193.593 296.814 193.233 297.67 192.513 298.294C191.809 298.918 190.905 299.27 189.801 299.35V300.334C190.969 300.382 191.945 300.742 192.729 301.414C193.513 302.07 193.905 302.998 193.905 304.198C193.905 305.51 193.385 306.606 192.345 307.486C191.305 308.35 189.937 308.782 188.241 308.782C186.513 308.782 185.113 308.318 184.041 307.39C182.969 306.462 182.369 305.214 182.241 303.646Z" fill="var(--_theme---accentl--9)"/>
<path d="M217.307 308.446V303.91H209.411V301.654L216.059 291.646H219.635V301.87H222.107V303.91H219.635V308.446H217.307ZM217.307 301.87V297.574C217.307 296.726 217.387 296.038 217.547 295.51C217.723 294.982 217.995 294.454 218.363 293.926L217.451 293.326L211.787 301.87L211.595 302.158L212.435 302.806C212.755 302.47 213.083 302.23 213.419 302.086C213.771 301.942 214.307 301.87 215.027 301.87H217.307Z" fill="var(--_theme---accentl--9)"/>
<path d="M237.372 304.558L239.772 303.766C239.996 304.694 240.428 305.414 241.068 305.926C241.724 306.438 242.508 306.694 243.42 306.694C244.476 306.694 245.308 306.382 245.916 305.758C246.54 305.134 246.852 304.302 246.852 303.262C246.852 302.222 246.54 301.398 245.916 300.79C245.308 300.166 244.476 299.854 243.42 299.854C242.7 299.854 242.044 300.022 241.452 300.358C240.876 300.694 240.436 301.118 240.132 301.63L237.708 301.222L239.148 291.646H248.82V293.854H240.924L240.492 296.542C240.316 297.534 240.14 298.27 239.964 298.75C239.772 299.23 239.508 299.686 239.172 300.118H240.396C241.196 298.598 242.436 297.838 244.116 297.838C245.684 297.838 246.94 298.326 247.884 299.302C248.844 300.262 249.324 301.558 249.324 303.19C249.324 304.87 248.796 306.222 247.74 307.246C246.684 308.27 245.292 308.782 243.564 308.782C241.884 308.782 240.5 308.398 239.412 307.63C238.324 306.846 237.644 305.822 237.372 304.558Z" fill="var(--_theme---accentl--9)"/>
<path d="M264.861 300.622C264.829 297.87 265.533 295.622 266.973 293.878C268.413 292.134 270.397 291.278 272.925 291.31C274.141 291.31 275.205 291.478 276.117 291.814V294.142C275.093 293.774 274.077 293.59 273.069 293.59C271.149 293.59 269.597 294.214 268.413 295.462C267.229 296.71 266.629 298.518 266.613 300.886H267.597C267.805 299.958 268.285 299.174 269.037 298.534C269.789 297.878 270.725 297.55 271.845 297.55C273.397 297.55 274.661 298.07 275.637 299.11C276.629 300.134 277.125 301.406 277.125 302.926C277.125 304.606 276.589 306.006 275.517 307.126C274.461 308.23 273.029 308.782 271.221 308.782C269.269 308.782 267.717 308.07 266.565 306.646C265.429 305.206 264.861 303.198 264.861 300.622ZM274.629 303.142C274.629 302.102 274.301 301.254 273.645 300.598C272.989 299.926 272.181 299.59 271.221 299.59C270.229 299.59 269.413 299.918 268.773 300.574C268.133 301.214 267.813 302.07 267.813 303.142C267.813 304.214 268.133 305.078 268.773 305.734C269.413 306.374 270.229 306.694 271.221 306.694C272.181 306.694 272.989 306.366 273.645 305.71C274.301 305.054 274.629 304.198 274.629 303.142Z" fill="var(--_theme---accentl--9)"/>
<path d="M301.351 293.854L301.639 293.59L301.015 292.75C300.039 293.486 298.903 293.854 297.607 293.854H291.967V291.646H303.367V294.262C300.999 296.278 299.367 298.366 298.471 300.526C297.591 302.686 297.143 305.326 297.127 308.446H294.463C294.463 305.454 295.055 302.726 296.239 300.262C297.423 297.782 299.127 295.646 301.351 293.854Z" fill="var(--_theme---accentl--9)"/>
<path d="M318.342 304.102C318.342 302.966 318.734 302.062 319.518 301.39C320.302 300.702 321.318 300.318 322.566 300.238V299.254C321.414 299.174 320.494 298.83 319.806 298.222C319.134 297.598 318.798 296.758 318.798 295.702C318.798 294.422 319.302 293.374 320.31 292.558C321.318 291.726 322.638 291.31 324.27 291.31C325.886 291.31 327.198 291.726 328.206 292.558C329.23 293.39 329.742 294.438 329.742 295.702C329.742 296.758 329.398 297.598 328.71 298.222C328.038 298.83 327.126 299.174 325.974 299.254V300.238C327.238 300.318 328.254 300.694 329.022 301.366C329.79 302.038 330.174 302.95 330.174 304.102C330.174 305.462 329.654 306.582 328.614 307.462C327.59 308.342 326.142 308.782 324.27 308.782C322.398 308.782 320.942 308.342 319.902 307.462C318.862 306.582 318.342 305.462 318.342 304.102ZM327.342 295.966C327.342 295.214 327.054 294.598 326.478 294.118C325.902 293.622 325.166 293.374 324.27 293.374C323.374 293.374 322.638 293.622 322.062 294.118C321.486 294.598 321.198 295.214 321.198 295.966C321.198 296.798 321.478 297.454 322.038 297.934C322.614 298.414 323.358 298.654 324.27 298.654C325.15 298.654 325.878 298.414 326.454 297.934C327.046 297.438 327.342 296.782 327.342 295.966ZM326.742 305.902C327.366 305.374 327.678 304.67 327.678 303.79C327.678 302.91 327.366 302.206 326.742 301.678C326.118 301.15 325.286 300.886 324.246 300.886C323.318 300.886 322.518 301.166 321.846 301.726C321.174 302.286 320.838 302.974 320.838 303.79C320.838 304.67 321.15 305.374 321.774 305.902C322.398 306.43 323.222 306.694 324.246 306.694C325.302 306.694 326.134 306.43 326.742 305.902Z" fill="var(--_theme---accentl--9)"/>
<path d="M346.732 308.278V305.83C347.724 306.23 348.78 306.43 349.9 306.43C352.076 306.43 353.66 305.622 354.652 304.006C354.988 303.43 355.26 302.734 355.468 301.918C355.676 301.086 355.772 300.302 355.756 299.566H354.772C354.532 300.318 354.06 300.966 353.356 301.51C352.652 302.038 351.812 302.302 350.836 302.302C349.364 302.302 348.156 301.814 347.212 300.838C346.284 299.846 345.82 298.622 345.82 297.166C345.82 295.502 346.332 294.11 347.356 292.99C348.396 291.87 349.772 291.31 351.484 291.31C353.196 291.31 354.62 291.886 355.756 293.038C357.148 294.462 357.844 296.598 357.844 299.446C357.844 302.31 357.172 304.582 355.828 306.262C354.5 307.942 352.556 308.782 349.996 308.782C348.684 308.782 347.596 308.614 346.732 308.278ZM354.892 296.854C354.892 295.83 354.58 294.998 353.956 294.358C353.332 293.718 352.548 293.398 351.604 293.398C350.676 293.398 349.892 293.718 349.252 294.358C348.628 294.998 348.316 295.83 348.316 296.854C348.316 297.862 348.628 298.686 349.252 299.326C349.892 299.95 350.676 300.262 351.604 300.262C352.548 300.262 353.332 299.95 353.956 299.326C354.58 298.686 354.892 297.862 354.892 296.854Z" fill="var(--_theme---accentl--9)"/>
<path d="M377.572 308.446V297.118C377.572 296.11 377.724 295.23 378.028 294.478H376.924C376.62 295.422 376.132 296.19 375.46 296.782C374.788 297.358 373.98 297.71 373.036 297.838V295.342C375.308 294.83 376.964 293.598 378.004 291.646H379.924V308.446H377.572ZM383.02 299.974C383.02 297.27 383.652 295.15 384.916 293.614C386.196 292.078 387.812 291.31 389.764 291.31C391.7 291.31 393.3 292.078 394.564 293.614C395.828 295.15 396.46 297.27 396.46 299.974C396.46 302.758 395.852 304.926 394.636 306.478C393.42 308.014 391.796 308.782 389.764 308.782C387.7 308.782 386.06 308.014 384.844 306.478C383.628 304.942 383.02 302.774 383.02 299.974ZM393.94 299.974C393.94 297.99 393.556 296.406 392.788 295.222C392.036 294.038 391.028 293.446 389.764 293.446C388.484 293.446 387.46 294.038 386.692 295.222C385.924 296.406 385.54 297.99 385.54 299.974C385.54 302.118 385.908 303.766 386.644 304.918C387.396 306.07 388.436 306.646 389.764 306.646C391.076 306.646 392.1 306.07 392.836 304.918C393.572 303.766 393.94 302.118 393.94 299.974Z" fill="var(--_theme---accentl--9)"/>
<path d="M416.383 308.446V297.118C416.383 296.11 416.535 295.23 416.839 294.478H415.735C415.431 295.422 414.943 296.19 414.271 296.782C413.599 297.358 412.791 297.71 411.847 297.838V295.342C414.119 294.83 415.775 293.598 416.815 291.646H418.735V308.446H416.383ZM425.671 308.446V297.118C425.671 296.11 425.823 295.23 426.127 294.478H425.023C424.719 295.422 424.231 296.19 423.559 296.782C422.887 297.358 422.079 297.71 421.135 297.838V295.342C423.407 294.83 425.063 293.598 426.103 291.646H428.023V308.446H425.671Z" fill="var(--_theme---accentl--9)"/>
<path d="M449.022 308.446V297.118C449.022 296.11 449.174 295.23 449.478 294.478H448.374C448.07 295.422 447.582 296.19 446.91 296.782C446.238 297.358 445.43 297.71 444.486 297.838V295.342C446.758 294.83 448.414 293.598 449.454 291.646H451.374V308.446H449.022ZM454.542 308.446V305.83C456.446 304.63 457.95 303.614 459.054 302.782C461.742 300.734 463.086 298.734 463.086 296.782C463.086 295.758 462.79 294.95 462.198 294.358C461.622 293.75 460.902 293.446 460.038 293.446C459.094 293.446 458.318 293.782 457.71 294.454C457.118 295.126 456.822 296.03 456.822 297.166L454.398 296.854C454.43 295.206 454.95 293.87 455.958 292.846C456.982 291.822 458.35 291.31 460.062 291.31C461.758 291.31 463.102 291.798 464.094 292.774C465.102 293.734 465.606 294.982 465.606 296.518C465.606 298.278 465.022 299.838 463.854 301.198C462.622 302.638 460.174 304.374 456.51 306.406L457.11 307.318C458.182 306.598 459.374 306.238 460.686 306.238H465.798V308.446H454.542Z" fill="var(--_theme---accentl--9)"/>
<path d="M485.552 308.446V297.118C485.552 296.11 485.704 295.23 486.008 294.478H484.904C484.6 295.422 484.112 296.19 483.44 296.782C482.768 297.358 481.96 297.71 481.016 297.838V295.342C483.288 294.83 484.944 293.598 485.984 291.646H487.904V308.446H485.552ZM490.712 303.646L493.232 303.118C493.28 304.222 493.616 305.094 494.24 305.734C494.864 306.374 495.688 306.694 496.712 306.694C497.64 306.694 498.4 306.438 498.992 305.926C499.6 305.398 499.904 304.694 499.904 303.814C499.904 302.95 499.6 302.254 498.992 301.726C498.384 301.198 497.6 300.934 496.64 300.934H495.464V298.894H496.64C497.472 298.894 498.176 298.638 498.752 298.126C499.344 297.614 499.64 296.95 499.64 296.134C499.64 295.334 499.352 294.678 498.776 294.166C498.216 293.654 497.528 293.398 496.712 293.398C495.832 293.398 495.112 293.678 494.552 294.238C493.992 294.782 493.672 295.51 493.592 296.422L491.144 295.966C491.24 294.622 491.792 293.51 492.8 292.63C493.808 291.75 495.112 291.31 496.712 291.31C498.344 291.31 499.64 291.726 500.6 292.558C501.576 293.39 502.064 294.446 502.064 295.726C502.064 296.814 501.704 297.67 500.984 298.294C500.28 298.918 499.376 299.27 498.272 299.35V300.334C499.44 300.382 500.416 300.742 501.2 301.414C501.984 302.07 502.376 302.998 502.376 304.198C502.376 305.51 501.856 306.606 500.816 307.486C499.776 308.35 498.408 308.782 496.712 308.782C494.984 308.782 493.584 308.318 492.512 307.39C491.44 306.462 490.84 305.214 490.712 303.646Z" fill="var(--_theme---accentl--9)"/>
<path d="M522.105 308.446V297.118C522.105 296.11 522.257 295.23 522.561 294.478H521.457C521.153 295.422 520.665 296.19 519.993 296.782C519.321 297.358 518.513 297.71 517.569 297.838V295.342C519.841 294.83 521.497 293.598 522.537 291.646H524.457V308.446H522.105ZM534.777 308.446V303.91H526.881V301.654L533.529 291.646H537.105V301.87H539.577V303.91H537.105V308.446H534.777ZM534.777 301.87V297.574C534.777 296.726 534.857 296.038 535.017 295.51C535.193 294.982 535.465 294.454 535.833 293.926L534.921 293.326L529.257 301.87L529.065 302.158L529.905 302.806C530.225 302.47 530.553 302.23 530.889 302.086C531.241 301.942 531.777 301.87 532.497 301.87H534.777Z" fill="var(--_theme---accentl--9)"/>
<path d="M558.659 308.446V297.118C558.659 296.11 558.811 295.23 559.115 294.478H558.011C557.707 295.422 557.219 296.19 556.547 296.782C555.875 297.358 555.067 297.71 554.123 297.838V295.342C556.395 294.83 558.051 293.598 559.091 291.646H561.011V308.446H558.659ZM563.843 304.558L566.243 303.766C566.467 304.694 566.899 305.414 567.539 305.926C568.195 306.438 568.979 306.694 569.891 306.694C570.947 306.694 571.779 306.382 572.387 305.758C573.011 305.134 573.323 304.302 573.323 303.262C573.323 302.222 573.011 301.398 572.387 300.79C571.779 300.166 570.947 299.854 569.891 299.854C569.171 299.854 568.515 300.022 567.923 300.358C567.347 300.694 566.907 301.118 566.603 301.63L564.179 301.222L565.619 291.646H575.291V293.854H567.395L566.963 296.542C566.787 297.534 566.611 298.27 566.435 298.75C566.243 299.23 565.979 299.686 565.643 300.118H566.867C567.667 298.598 568.907 297.838 570.587 297.838C572.155 297.838 573.411 298.326 574.355 299.302C575.315 300.262 575.795 301.558 575.795 303.19C575.795 304.87 575.267 306.222 574.211 307.246C573.155 308.27 571.763 308.782 570.035 308.782C568.355 308.782 566.971 308.398 565.883 307.63C564.795 306.846 564.115 305.822 563.843 304.558Z" fill="var(--_theme---accentl--9)"/>
<path d="M595.907 308.446V297.118C595.907 296.11 596.059 295.23 596.363 294.478H595.259C594.955 295.422 594.467 296.19 593.795 296.782C593.123 297.358 592.315 297.71 591.371 297.838V295.342C593.643 294.83 595.299 293.598 596.339 291.646H598.259V308.446H595.907ZM601.331 300.622C601.299 297.87 602.003 295.622 603.443 293.878C604.883 292.134 606.867 291.278 609.395 291.31C610.611 291.31 611.675 291.478 612.587 291.814V294.142C611.563 293.774 610.547 293.59 609.539 293.59C607.619 293.59 606.067 294.214 604.883 295.462C603.699 296.71 603.099 298.518 603.083 300.886H604.067C604.275 299.958 604.755 299.174 605.507 298.534C606.259 297.878 607.195 297.55 608.315 297.55C609.867 297.55 611.131 298.07 612.107 299.11C613.099 300.134 613.595 301.406 613.595 302.926C613.595 304.606 613.059 306.006 611.987 307.126C610.931 308.23 609.499 308.782 607.691 308.782C605.739 308.782 604.187 308.07 603.035 306.646C601.899 305.206 601.331 303.198 601.331 300.622ZM611.099 303.142C611.099 302.102 610.771 301.254 610.115 300.598C609.459 299.926 608.651 299.59 607.691 299.59C606.699 299.59 605.883 299.918 605.243 300.574C604.603 301.214 604.283 302.07 604.283 303.142C604.283 304.214 604.603 305.078 605.243 305.734C605.883 306.374 606.699 306.694 607.691 306.694C608.651 306.694 609.459 306.366 610.115 305.71C610.771 305.054 611.099 304.198 611.099 303.142Z" fill="var(--_theme---accentl--9)"/>
<path d="M632.758 308.446V297.118C632.758 296.11 632.91 295.23 633.214 294.478H632.11C631.806 295.422 631.318 296.19 630.646 296.782C629.974 297.358 629.166 297.71 628.222 297.838V295.342C630.494 294.83 632.15 293.598 633.19 291.646H635.11V308.446H632.758ZM646.821 293.854L647.109 293.59L646.485 292.75C645.509 293.486 644.373 293.854 643.077 293.854H637.437V291.646H648.837V294.262C646.469 296.278 644.837 298.366 643.941 300.526C643.061 302.686 642.613 305.326 642.597 308.446H639.933C639.933 305.454 640.525 302.726 641.709 300.262C642.893 297.782 644.597 295.646 646.821 293.854Z" fill="var(--_theme---accentl--9)"/>
<path d="M667.389 308.446V297.118C667.389 296.11 667.541 295.23 667.845 294.478H666.741C666.437 295.422 665.949 296.19 665.277 296.782C664.605 297.358 663.797 297.71 662.853 297.838V295.342C665.125 294.83 666.781 293.598 667.821 291.646H669.741V308.446H667.389ZM672.813 304.102C672.813 302.966 673.205 302.062 673.989 301.39C674.773 300.702 675.789 300.318 677.037 300.238V299.254C675.885 299.174 674.965 298.83 674.277 298.222C673.605 297.598 673.269 296.758 673.269 295.702C673.269 294.422 673.773 293.374 674.781 292.558C675.789 291.726 677.109 291.31 678.741 291.31C680.357 291.31 681.669 291.726 682.677 292.558C683.701 293.39 684.213 294.438 684.213 295.702C684.213 296.758 683.869 297.598 683.181 298.222C682.509 298.83 681.597 299.174 680.445 299.254V300.238C681.709 300.318 682.725 300.694 683.493 301.366C684.261 302.038 684.645 302.95 684.645 304.102C684.645 305.462 684.125 306.582 683.085 307.462C682.061 308.342 680.613 308.782 678.741 308.782C676.869 308.782 675.413 308.342 674.373 307.462C673.333 306.582 672.813 305.462 672.813 304.102ZM681.813 295.966C681.813 295.214 681.525 294.598 680.949 294.118C680.373 293.622 679.637 293.374 678.741 293.374C677.845 293.374 677.109 293.622 676.533 294.118C675.957 294.598 675.669 295.214 675.669 295.966C675.669 296.798 675.949 297.454 676.509 297.934C677.085 298.414 677.829 298.654 678.741 298.654C679.621 298.654 680.349 298.414 680.925 297.934C681.517 297.438 681.813 296.782 681.813 295.966ZM681.213 305.902C681.837 305.374 682.149 304.67 682.149 303.79C682.149 302.91 681.837 302.206 681.213 301.678C680.589 301.15 679.757 300.886 678.717 300.886C677.789 300.886 676.989 301.166 676.317 301.726C675.645 302.286 675.309 302.974 675.309 303.79C675.309 304.67 675.621 305.374 676.245 305.902C676.869 306.43 677.693 306.694 678.717 306.694C679.773 306.694 680.605 306.43 681.213 305.902Z" fill="var(--_theme---accentl--9)"/>
<line x1="129" y1="315.446" x2="686" y2="315.554" stroke="var(--_theme---accentl--12)" stroke-width="2"/>
<line opacity="0.21" x1="129" y1="377.143" x2="686" y2="377.143" stroke="var(--_theme---accentl--7)"/>
<line opacity="0.21" x1="129" y1="424.232" x2="686" y2="424.232" stroke="var(--_theme---accentl--7)"/>
<line opacity="0.21" x1="129" y1="471.321" x2="686" y2="471.321" stroke="var(--_theme---accentl--7)"/>
<line opacity="0.21" x1="129" y1="518.411" x2="686" y2="518.411" stroke="var(--_theme---accentl--7)"/>
<line opacity="0.21" x1="129" y1="565.5" x2="686" y2="565.5" stroke="var(--_theme---accentl--7)"/>
<rect x="154" y="316" width="16" height="71" fill="var(--_theme---accentl--10)"/>
<rect x="207" y="316" width="16" height="173" fill="var(--_theme---accentl--10)"/>
<rect x="288" y="316" width="16" height="183" fill="var(--_theme---accentl--10)"/>
<rect x="343" y="316" width="16" height="71" fill="var(--_theme---accentl--10)"/>
<rect x="377" y="316" width="16" height="250" fill="var(--_theme---accentl--10)"/>
<rect x="412" y="316" width="16" height="250" fill="var(--_theme---accentl--10)"/>
<rect x="520" y="316" width="16" height="165" fill="var(--_theme---accentl--10)"/>
<rect x="596" y="316" width="16" height="99" fill="var(--_theme---accentl--10)"/>
<rect x="558" y="316" width="16" height="250" fill="var(--_theme---accentl--10)"/>
<path d="M292.62 623L287.196 606.2H289.86L293.292 617.288C293.612 618.36 293.812 619.616 293.892 621.056H294.9C294.916 619.888 295.124 618.64 295.524 617.312L299.004 606.2H301.644L296.172 623H292.62ZM303.866 621.536C302.778 620.336 302.234 618.84 302.234 617.048C302.234 615.256 302.77 613.76 303.842 612.56C304.914 611.36 306.266 610.76 307.898 610.76C309.53 610.76 310.874 611.36 311.93 612.56C313.002 613.76 313.538 615.256 313.538 617.048C313.538 618.84 313.002 620.336 311.93 621.536C310.858 622.736 309.514 623.336 307.898 623.336C306.298 623.336 304.954 622.736 303.866 621.536ZM311.21 617.096C311.21 615.672 310.906 614.584 310.298 613.832C309.706 613.08 308.906 612.704 307.898 612.704C306.874 612.704 306.066 613.08 305.474 613.832C304.882 614.584 304.586 615.672 304.586 617.096C304.586 618.488 304.874 619.552 305.45 620.288C306.042 621.024 306.858 621.392 307.898 621.392C308.922 621.392 309.73 621.024 310.322 620.288C310.914 619.536 311.21 618.472 311.21 617.096ZM315.833 623V606.2H318.089V623H315.833ZM321.109 618.92V611.096H323.365V618.368C323.365 620.384 324.181 621.392 325.813 621.392C326.725 621.392 327.405 621.12 327.853 620.576C328.573 619.712 328.933 618.28 328.933 616.28V611.096H331.189V623H329.053C329.053 622.232 329.421 621.304 330.157 620.216H328.909C328.173 622.296 326.909 623.336 325.117 623.336C323.821 623.336 322.829 622.944 322.141 622.16C321.453 621.376 321.109 620.296 321.109 618.92ZM334.408 623V611.096H336.568C336.568 611.768 336.184 612.688 335.416 613.856H336.64C336.88 613.056 337.336 612.344 338.008 611.72C338.68 611.08 339.496 610.76 340.456 610.76C341.832 610.76 342.864 611.152 343.552 611.936C344.256 612.704 344.608 613.8 344.608 615.224V623H342.352V615.728C342.352 613.728 341.52 612.728 339.856 612.728C338.896 612.728 338.176 613.016 337.696 613.592C337.264 614.104 336.984 614.688 336.856 615.344C336.728 616 336.664 616.84 336.664 617.864V623H334.408ZM348.809 620.072V612.968H346.097V611.096H348.809V607.376H351.065V611.096H354.281V612.968H351.065V619.88C351.065 620.664 351.457 621.056 352.241 621.056H354.737V623H351.785C349.801 623 348.809 622.024 348.809 620.072ZM355.448 617.096C355.448 615.192 355.952 613.664 356.96 612.512C357.968 611.344 359.264 610.76 360.848 610.76C362.432 610.76 363.712 611.312 364.688 612.416C365.664 613.52 366.152 614.928 366.152 616.64C366.152 616.944 366.128 617.272 366.08 617.624H357.704C357.752 618.904 358.072 619.864 358.664 620.504C359.272 621.128 360.048 621.44 360.992 621.44C362.416 621.44 363.456 620.68 364.112 619.16L366.176 619.904C365.76 621.008 365.096 621.856 364.184 622.448C363.288 623.04 362.208 623.336 360.944 623.336C359.264 623.336 357.928 622.792 356.936 621.704C355.944 620.6 355.448 619.064 355.448 617.096ZM357.752 615.824H363.8C363.784 614.816 363.496 614.024 362.936 613.448C362.376 612.856 361.68 612.56 360.848 612.56C360.032 612.56 359.336 612.856 358.76 613.448C358.184 614.04 357.848 614.832 357.752 615.824ZM367.642 617.096C367.642 615.192 368.146 613.664 369.154 612.512C370.162 611.344 371.458 610.76 373.042 610.76C374.626 610.76 375.906 611.312 376.882 612.416C377.858 613.52 378.346 614.928 378.346 616.64C378.346 616.944 378.322 617.272 378.274 617.624H369.898C369.946 618.904 370.266 619.864 370.858 620.504C371.466 621.128 372.242 621.44 373.186 621.44C374.61 621.44 375.65 620.68 376.306 619.16L378.37 619.904C377.954 621.008 377.29 621.856 376.378 622.448C375.482 623.04 374.402 623.336 373.138 623.336C371.458 623.336 370.122 622.792 369.13 621.704C368.138 620.6 367.642 619.064 367.642 617.096ZM369.946 615.824H375.994C375.978 614.816 375.69 614.024 375.13 613.448C374.57 612.856 373.874 612.56 373.042 612.56C372.226 612.56 371.53 612.856 370.954 613.448C370.378 614.04 370.042 614.832 369.946 615.824ZM380.724 623V611.096H382.908C382.908 612.04 382.484 613.176 381.636 614.504H382.932C383.54 612.12 384.852 610.928 386.868 610.928C387.268 610.928 387.644 610.968 387.996 611.048V613.376C387.484 613.296 387.06 613.256 386.724 613.256C384.228 613.256 382.98 614.736 382.98 617.696V623H380.724ZM388.321 619.928L390.457 619.232C390.857 620.736 391.897 621.488 393.577 621.488C395.273 621.488 396.121 620.936 396.121 619.832C396.121 618.952 395.409 618.368 393.985 618.08L392.545 617.816C391.313 617.56 390.377 617.184 389.737 616.688C389.113 616.176 388.801 615.408 388.801 614.384C388.801 613.328 389.233 612.464 390.097 611.792C390.961 611.104 392.025 610.76 393.289 610.76C394.585 610.76 395.641 611.04 396.457 611.6C397.289 612.144 397.849 612.872 398.137 613.784L396.145 614.552C395.665 613.208 394.705 612.536 393.265 612.536C392.529 612.536 391.961 612.696 391.561 613.016C391.161 613.32 390.961 613.696 390.961 614.144C390.961 614.56 391.097 614.88 391.369 615.104C391.641 615.328 392.177 615.52 392.977 615.68L394.393 615.968C395.417 616.16 396.345 616.536 397.177 617.096C398.009 617.64 398.425 618.488 398.425 619.64C398.425 620.776 397.993 621.68 397.129 622.352C396.265 623.008 395.073 623.336 393.553 623.336C392.241 623.336 391.097 623.032 390.121 622.424C389.161 621.816 388.561 620.984 388.321 619.928Z" fill="var(--_theme---accentl--9)"/>
</svg>
